<?xml version="1.0" encoding="utf-8"?>
<!-- Generator: Adobe Illustrator 22.0.0, SVG Export Plug-In . SVG Version: 6.00 Build 0)  -->
<svg version="1.1" id="Capa_1" xmlns="http://www.w3.org/2000/svg" xmlns:xlink="http://www.w3.org/1999/xlink" x="0px" y="0px"
	 viewBox="0 0 241.8 213.7" style="enable-background:new 0 0 241.8 213.7;" xml:space="preserve">
<style type="text/css">
	.st0{fill:#E1C23D;stroke:#E1C23D;stroke-miterlimit:10;}
</style>
<g>
	<path class="st0" d="M37.3,136.1C24.7,96.6,32.7,64.3,68.8,42c2.5-1.5,0.8-5.3-2-4.2c-40.3,17.4-49.3,62-32.7,99.8
		C35.1,139.7,37.9,138.1,37.3,136.1z"/>
	<path class="st0" d="M64.8,39.4c13.3,10.2,38.1,8.1,45-8.9c0.7-1.7-1.6-3.4-3-2.1C100.9,34,96.6,39.3,88,40.5
		c-7.7,1.1-14.5-1.9-21.5-4.4C64.5,35.5,63.2,38.1,64.8,39.4z"/>
	<path class="st0" d="M110.3,33.4c21.7-5,41.7,1.5,56.3,17.9c1.5,1.7,4.7-0.1,3.5-2.3c-11.7-20.4-39.6-25.3-60.4-18.9
		C107.8,30.8,108.2,33.9,110.3,33.4z"/>
	<path class="st0" d="M32,135.1c11.8,57.1,83,78.2,128,45.6c45.7-33.1,54-98.9,7.9-135.1c-3-2.4-6.1,2.4-3.4,4.8
		c39.6,35.5,35.8,91.5-6.3,124c-45.7,35.2-103.9,9.8-122.9-40.3C34.6,132.2,31.6,133.2,32,135.1z"/>
	<path class="st0" d="M38.9,95.8c-1.6,6.4,0.3,15.5,9,17c2.6,0.5,5.6-0.1,7.6-1.8c2.4-2,2.7-5.2,1.9-7.9c-0.7-2.3-2.1-4.4-3.7-6.4
		c-1.1-1.4-2.3-2.7-3.6-3.9c-1.3-1.3-3-3.1-5-3.5c-1.1-0.2-1.9,0.5-1.6,1.5c0.6,1.3,2.1,2.3,3.2,3.3c1.1,0.9,2.1,1.9,3.1,2.9
		c1.5,1.6,2.9,3.3,3.8,5.2c1,2,1.9,4.6,0.4,6.7c-2.7,3.9-8.9,1.5-11.3-1.4c-2.6-3.3-2.6-7.6-2.1-11.5C40.8,95,39.1,94.9,38.9,95.8z"
		/>
	<path class="st0" d="M59.5,55.4c-5.6,4-9.3,10.6-5.7,16.6c3,4.9,9.6,6.1,15.2,3.8c6.6-2.8,13.6-10.1,10.4-16.8
		c-3.2-6.6-13.1-7.8-19.9-5.2c-1.2,0.5-0.6,2.3,0.7,1.9c5.7-1.4,13.5-1.9,16.7,3.5c3.6,5.9-3.5,12.7-9.3,15.1
		c-4.9,1.9-10.3,0.5-12.4-3.9c-2.5-5.2,0.9-10.4,5.3-13.9C61.5,55.9,60.4,54.8,59.5,55.4z"/>
	<path class="st0" d="M17.8,169.9C18.2,169.6,18.2,169.6,17.8,169.9c-0.8-0.2-1.6-0.4-2.3-0.6c-0.5-0.9,0.2-0.8-0.3-0.3
		c-0.2,0.2-0.2,0.7-0.4,1c-0.3,0.9-0.6,1.7-0.9,2.6c-0.6,1.8-1.3,3.6-1.4,5.5c-0.1,0.9,1,1.4,2.3,1.4c8.4-0.3,16.3-1.9,23.7-4.5
		c1.2-0.4,0.4-1.6-0.9-1.3c-7.4,2.1-14.8,3.2-22.9,3.2c0.6,0.5,1.2,0.9,1.8,1.4c0.1-2.1,1-4.1,1.6-6.1c0.3-1.1,1.4-2.8,0.4-3.9
		c-0.6-0.6-1.6-0.8-2.6-0.4c-0.5,0.2-0.7,0.6-0.9,0.9C14.3,170.1,16.8,170.9,17.8,169.9z"/>
	<path class="st0" d="M54.1,163.5c39.5-17.4,77.4-40,112.8-64.3c21.1-14.4,66.1-39.9,68.2-69.3c0.1-0.8-0.6-1.7-1.5-1.7
		c-18.1-0.9-34.2,5.6-48.9,15.7c-1.3,0.9,0.2,3.2,1.5,2.3c7.5-4.7,14.7-8.6,23.1-11.4c6.9-2.3,21.3-8.6,21.3,0.7
		c0,6.3-10,15.4-13.9,19.6c-14.5,15.4-32.2,28.3-49.5,40.4c-35.8,25-74,48.3-114,66.3C52.2,162.3,53,164,54.1,163.5z"/>
	<path class="st0" d="M26.4,159.9c2.2-2.1,4.4-4.1,6.5-6.2c1.9-1.9,4.3-3.8,5.7-6.2c0.5-0.9-0.4-2.4-1.5-1.7
		c-2.4,1.4-4.2,3.7-6.1,5.7c-2.1,2.2-4.1,4.4-6.2,6.6C23.9,159.2,25.3,161,26.4,159.9z"/>
</g>
</svg>
