<?xml version="1.0" encoding="utf-8"?>
<!-- Generator: Adobe Illustrator 22.0.0, SVG Export Plug-In . SVG Version: 6.00 Build 0)  -->
<svg version="1.1" id="Capa_1" xmlns="http://www.w3.org/2000/svg" xmlns:xlink="http://www.w3.org/1999/xlink" x="0px" y="0px"
	 viewBox="0 0 254.6 255.8" style="enable-background:new 0 0 254.6 255.8;" xml:space="preserve">
<style type="text/css">
	.st0{fill:#275C9E;}
</style>
<g>
	<path class="st0" d="M14.9,163C12.3,126.4,5.4,96.4,34,68.2c1.5-1.4,0-4-2-3.1c-34.2,16.1-29.1,68.5-21.3,98.6
		C11.4,166.3,15.1,165.7,14.9,163z"/>
	<path class="st0" d="M32,67.3C38.6,47.1,50.8,32.9,70,23.5c18.9-9.2,35.4-7.5,55.3-8.1c1.8,0,3.4-2.7,1.4-3.8
		C93.9-6.8,30.3,28.4,28.6,66.6C28.6,68.5,31.3,69.3,32,67.3z"/>
	<path class="st0" d="M122.4,12.6c11.2,3.4,22.6,1.4,34,1.3c6.4-0.1,13.1,0.1,19.1,2.6c8.9,3.7,12.7,11.6,18.5,18.6
		c1.3,1.6,4.1,0.3,3.7-1.8c-6.7-34.9-50.6-23.6-74.6-24.4C121.2,8.8,120.2,12,122.4,12.6z"/>
	<path class="st0" d="M196.7,31.9c12.3,20.6,29.1,38.3,38.7,60.5c14.9,34.6,4.4,62.9-9.5,95.5c-1.2,2.7,2.8,4.7,4.4,2.4
		c40-56.3,12.4-116.1-30.9-160.1C198.2,28.9,195.7,30.2,196.7,31.9z"/>
	<path class="st0" d="M224.1,185c-7.1,8.4-11.3,18.8-17.6,27.7c-3.2,4.4-6.9,9.1-11.9,11.6c-6.5,3.3-12,0.6-18.7-0.1
		c-2.7-0.3-3.7,3.2-1.7,4.8c9.9,8.1,23.6,2.8,31.5-5.5c9.6-10.2,15.2-24,21.8-36.2C228.7,185,225.8,183,224.1,185z"/>
	<path class="st0" d="M175.9,232.2c-15.4,0.5-30.5,6-45.7,8.1c-23.1,3.2-38.5,0.3-55.8-15.5c-2-1.8-4.6,1.1-3.7,3.2
		c15.1,36.8,79.5,17.8,106,8.6C178.7,235.8,178,232.1,175.9,232.2z"/>
	<path class="st0" d="M66.2,227.2c-18.6-6.2-26.4-17.8-33.7-35.5c-4.7-11.6-8.4-27.3-18.2-35.7c-2.2-1.9-5,1.1-4,3.4
		c3.3,8,7.9,15.3,11.2,23.3c3.4,8.3,6.4,16.9,10.7,24.8c7,12.8,17.8,23.5,32.9,24.2C67.7,231.8,68.8,228.1,66.2,227.2z"/>
	<path class="st0" d="M46.7,67.2c7.5-17.2,17-30.2,36.5-32.1c1.6-0.2,1.5-2.9-0.1-3c-20.5-0.8-31.9,17.1-39,34
		C43.3,67.9,46,68.9,46.7,67.2z"/>
	<path class="st0" d="M160,27.7c12.1,3.8,22.7,9.1,31.4,18.7c8.6,9.4,11.9,20.4,17.7,31.3c1,1.8,3.6,1,3.3-1.1
		c-2.9-24.8-27.8-48.8-51.7-52.2C158.9,24.1,158.2,27.1,160,27.7z"/>
	<path class="st0" d="M218.4,91.9c-0.2,3.4,1,6.6,4.7,7.3c1.3,0.2,2.3-1.1,2.1-2.3c-0.3-1.5-1-1.8-1.7-3c-0.4-0.7-0.4-1.2-0.5-2.1
		C222.9,89,218.5,89.3,218.4,91.9z"/>
	<path class="st0" d="M128.3,226c16.9-4.5,37.5-8.6,51-20.6c1.6-1.4-0.1-4.1-2-3.2c-16.6,7.5-32.1,14.8-49.6,20.4
		C125.8,223.3,126.2,226.6,128.3,226z"/>
</g>
</svg>
