<?xml version="1.0" encoding="utf-8"?>
<!-- Generator: Adobe Illustrator 22.0.0, SVG Export Plug-In . SVG Version: 6.00 Build 0)  -->
<svg version="1.1" id="Capa_1" xmlns="http://www.w3.org/2000/svg" xmlns:xlink="http://www.w3.org/1999/xlink" x="0px" y="0px"
	 viewBox="0 0 230.1 230.8" style="enable-background:new 0 0 230.1 230.8;" xml:space="preserve">
<style type="text/css">
	.st0{fill:#007CBC;}
</style>
<g>
	<g>
		<path class="st0" d="M203.1,64.8c0.4,1.3,0.4,2.7,1.1,4c0.3,0.7,1.3,0.3,1.2-0.4c-0.1-1.3-0.5-2.6-0.8-3.8
			C204.2,63.6,202.8,63.8,203.1,64.8z"/>
		<g>
			<path class="st0" d="M201.9,65.1c0.4,1.5,0.4,4.1,2,5c0.7,0.4,1.6,0.3,2.2-0.3c0.7-0.7,0.6-1.5,0.5-2.4c-0.1-1-0.4-1.9-0.6-2.8
				c-0.2-0.7-0.5-1.4-1.2-1.7C203.1,62.2,201.6,63.5,201.9,65.1c0.3,1.6,2.7,0.9,2.4-0.7c0,0.5-0.2,0.7-0.6,0.8
				c-0.2,0-0.4-0.1-0.4-0.4c0.1,0,0.3,1,0.3,1.2c0.1,0.3,0.2,0.6,0.2,0.9c0.1,0.4,0.1,0.9,0.2,1.2c0,0.6,0.4,0.6,1.2,0
				c-0.1-0.2-0.2-0.3-0.2-0.5c-0.1-0.3-0.2-0.6-0.2-0.8c-0.2-0.8-0.3-1.5-0.5-2.3C203.9,62.9,201.4,63.5,201.9,65.1z"/>
		</g>
	</g>
	<g>
		<path class="st0" d="M209.5,64.6c0.1,1.3,0.3,2.8,1.2,3.9c0.5,0.5,1.4,0.1,1.2-0.6c-0.2-1.2-0.8-2.2-0.9-3.3
			C211,63.6,209.5,63.7,209.5,64.6z"/>
		<g>
			<path class="st0" d="M208.3,64.6c0.1,1.7,0.4,3.6,1.6,4.8c1.4,1.4,3.6-0.1,3.3-1.9c-0.1-0.9-0.5-1.7-0.7-2.5
				c-0.2-0.8-0.2-1.5-1-2C210.1,62.1,208.4,63,208.3,64.6c-0.1,1.6,2.4,1.6,2.5,0c0,0.2-0.3,0.6-0.5,0.5c-0.3,0-0.3-0.8-0.4-0.2
				c0,0.2,0.1,0.4,0.1,0.6c0.1,0.7,0.3,1.5,0.6,2.2c0.2,0.4,0,0.1,0.2-0.1c0.2,0,0.5,0,0.7,0c0,0-0.1-0.1-0.1-0.1
				c0-0.2-0.3-0.5-0.4-0.8c-0.2-0.7-0.3-1.4-0.3-2.1C210.7,63,208.2,62.9,208.3,64.6z"/>
		</g>
	</g>
	<g>
		<path class="st0" d="M8.1,109c2.1-15.5,6.6-28.9,11.5-43.6c0.3-1-1-1.8-1.7-0.9C9.2,76.7,5.8,94.2,6.7,109
			C6.7,109.9,8,109.7,8.1,109z"/>
		<g>
			<path class="st0" d="M9.3,109.3c1.8-12.5,5.3-24.6,9.2-36.6c0.7-2.1,4.1-7.9,1.2-9.5c-2.6-1.5-4.3,2.8-5.3,4.5
				c-5,8.6-7.6,18.5-8.6,28.3c-0.3,2.8-0.4,5.7-0.4,8.6c0,1.4-0.4,3.9,0.3,5.2c1,1.6,2.5,1.3,3.5-0.1c1-1.3-1.2-2.5-2.2-1.3
				c1.6-2.2,0.8-7.1,1-10c0.3-3.6,0.8-7.1,1.5-10.6c1.5-7.1,4.1-13.7,7.7-20c1.7-3,0.1,0.2-0.1,0.9c-0.6,1.7-1.1,3.5-1.7,5.2
				c-1.3,4-2.5,7.9-3.7,12c-2.1,7.6-3.8,15.2-5,23C6.6,110.2,9,110.9,9.3,109.3z"/>
		</g>
	</g>
	<g>
		<path class="st0" d="M18.4,66.4c8.3-0.5,8.3-10.5,9.7-16.5c0.2-0.7-0.5-1.5-1.2-1.1c-2.7,1.3-3,4.4-3.4,7.1
			c-0.3,2.4-0.8,4.3-2.6,5.9c-1.1,1.1-2.5,1.9-3.4,3.2C17,65.7,17.7,66.4,18.4,66.4z"/>
		<g>
			<path class="st0" d="M18.4,67.6c4.6-0.5,7.3-3.3,8.8-7.5c0.8-2.3,1.2-4.8,1.6-7.2c0.3-1.6,1.3-4-0.3-5.2
				c-4.3-3.1-5.9,6.7-6.3,8.7c-0.4,2.1-1.2,3.6-2.8,5c-0.9,0.9-2.3,1.6-2.9,2.8c-0.7,1.6,0.1,2.8,1.6,3.3c1.5,0.4,2.2-2,0.7-2.4
				c0.5,0.1,2.6-2.1,3.1-2.5c0.9-0.9,1.7-2,2.1-3.3c0.5-1.4,0.7-2.8,0.9-4.3c0.1-0.9,0.2-1.7,0.5-2.6c0.2-0.7,0.5-1.3,1-1.8
				c0.4-0.7,0.5-0.7,0.3,0.2c0.1,2.2-0.9,5.4-1.5,7.5c-1,3.5-2.8,6.3-6.7,6.8C16.8,65.3,16.8,67.8,18.4,67.6z"/>
		</g>
	</g>
	<g>
		<path class="st0" d="M27,51.8c3.3-4,6.6-8,10-11.9c2.7-3,6-5.6,7.8-9.3c0.4-0.8-0.6-1.5-1.2-1.2c-3.9,1.7-6.7,5.6-9.4,8.8
			c-3.3,3.9-6.2,8-8.7,12.4C24.8,51.8,26.2,52.8,27,51.8z"/>
		<g>
			<path class="st0" d="M27.9,52.7C31,49,34,45.1,37.3,41.5c2.4-2.6,5.1-5,7.2-7.9c2.9-4.1,0.5-6.8-3.8-3.9
				c-5.5,3.7-10,10.3-13.6,15.8c-1,1.5-3.8,4.5-2.9,6.6c0.7,1.5,2.2,1.5,3.4,0.8c1.4-0.8,0.1-3-1.3-2.2c1.3-0.7,14.8-21.3,16.7-19.6
				c0.1,0-15.8,18.4-17,19.8C25.1,52.2,26.8,54,27.9,52.7z"/>
		</g>
	</g>
	<g>
		<path class="st0" d="M68.5,10.1C77.8,12,86.9,7.3,96,5.8c13.4-2.2,25.8-0.8,39.1,0.2c1.2,0.1,1.7-1.8,0.5-2.1
			c-23.3-6.8-44.3,2-67.2,4.4C67.3,8.3,67.5,9.9,68.5,10.1z"/>
		<g>
			<path class="st0" d="M68.2,11.3C75,12.4,81.2,10.8,87.8,9c8.3-2.3,16.5-3.3,25-3.2c4,0,8,0.3,12,0.6c2.9,0.2,7.8,1.5,10.6,0.7
				c2.3-0.7,2.8-3.1,0.8-4.4c-2.3-1.6-6.7-1.7-9.4-2.1c-3.6-0.5-7.3-0.7-11-0.6c-7.2,0.1-14.3,1.2-21.3,2.5
				c-8.1,1.5-16.2,3.2-24.4,4.2C67.8,7,64.6,8.6,67.6,11c1.2,1,3-0.8,1.8-1.8C70,9.7,74.2,8.7,75,8.6c2.7-0.4,5.3-0.9,8-1.4
				c5.2-1,10.5-2,15.7-2.9c5.7-0.9,11.4-1.7,17.1-1.8c2.7,0,5.3,0,8,0.3c1.1,0.1,8.7,2.2,9.6,1.7c-1,0.6-4.6-0.3-5.8-0.4
				c-2.8-0.2-5.6-0.4-8.3-0.5c-5.5-0.3-11.1-0.3-16.7,0.1c-11.2,1-22.5,7-33.8,5.2C67.3,8.7,66.6,11.1,68.2,11.3z"/>
		</g>
	</g>
	<g>
		<path class="st0" d="M160.4,14.7c8.1,6.5,17.3,11.3,25.5,17.6c7.6,5.9,12.9,12.8,18.4,20.7c0.5,0.7,1.7,0.1,1.5-0.7
			c-4.6-19.6-28.5-30.8-44.2-39.2C160.4,12.5,159.4,13.9,160.4,14.7z"/>
		<g>
			<path class="st0" d="M159.5,15.6c12.9,10.2,27.6,17.1,38,30.3c1.3,1.7,5.4,10.7,8.7,8.1c2.6-2-1.4-8.5-2.6-10.6
				c-5.6-9.8-15.3-16.7-24.8-22.3c-5-3-10.3-6.3-15.6-8.5c-2.6-1.1-5.3-0.5-3.9,2.8c0.6,1.5,2.8,0.2,2.2-1.3
				c0.6,1.3,3.5,2.2,4.7,2.8c1.9,1,3.7,2,5.6,3c3.7,2,7.4,4.2,10.9,6.5c7.6,5,15.1,11.1,19.3,19.3c0.5,1,1.9,5.3,2.3,5.4
				c-0.3,0-3.5-5-3.9-5.6c-3-3.9-6.1-7.6-9.8-10.9c-8.9-8.1-19.9-13.4-29.3-20.8C160,12.9,158.2,14.6,159.5,15.6z"/>
		</g>
	</g>
	<g>
		<path class="st0" d="M204.1,50.5c-2.4,7.1,4.5,12.5,8.9,16.5c0.6,0.5,1.7,0,1.7-0.8c0-3.2-2.6-4.2-4.5-6.3c-2.7-2.8-3-6-4.3-9.5
			C205.6,49.6,204.3,49.7,204.1,50.5z"/>
		<g>
			<path class="st0" d="M202.9,50.2c-1.4,4.9,0.6,9.1,3.9,12.7c1.4,1.6,6.5,8.1,8.8,4.5c2.5-3.8-4.8-8.1-6.2-10.7
				c-1-1.8-2.7-11.6-6.4-6.8c-1,1.3,1.2,2.5,2.2,1.3c-0.9,1.2,1.9,6.5,2.6,7.7c1.1,1.8,5.3,4.2,5.4,6.2c0,1.1-0.2,0.2-0.8-0.2
				c-0.6-0.4-1.1-1-1.6-1.5c-1-0.9-1.9-1.9-2.8-2.9c-2.4-2.8-3.7-5.9-2.7-9.6C205.7,49.3,203.3,48.6,202.9,50.2z"/>
		</g>
	</g>
	<g>
		<path class="st0" d="M211.7,64.6c3.6,9,7,17.5,8.3,27.2c1,7.5,0.7,15.3,2.7,22.6c0.4,1.3,2.4,1.4,2.5-0.1
			c1.4-16.4-2.4-37.3-11.5-51C212.9,62,211.2,63.4,211.7,64.6z"/>
		<g>
			<path class="st0" d="M210.5,64.9c2.6,6.6,5.3,13.2,7,20.1c1.8,7.4,1.8,15,2.7,22.5c0.3,2.3,0.2,8.9,3.7,9.1
				c3.5,0.2,2.8-5.4,2.8-7.4c0.2-11.6-1.7-23.6-5.8-34.5c-1.4-3.6-3.3-10.3-6.5-12.6c-2.1-1.4-3.9,0.1-3.9,2.4c0,1.6,2.5,1.6,2.5,0
				c0,0.8,2.2,3.4,2.6,4.3c1.1,2.1,2.1,4.3,2.9,6.5c1.3,3.4,2.3,6.9,3.2,10.4c1.9,8.1,2.8,16.5,2.5,24.9c-0.1,2.5-0.2,2.6-1,0
				c-0.8-2.6-0.8-5.7-1-8.4c-0.3-3.9-0.5-7.8-1.1-11.7c-1.4-9.2-4.8-17.8-8.2-26.3C212.3,62.8,209.9,63.4,210.5,64.9z"/>
		</g>
	</g>
	<g>
		<path class="st0" d="M222.2,113.6c1.5,3.6,3,7,3,11c0.1,3.5-1,6.9-1.2,10.4c0,1.1,1.5,1.9,2.2,0.8c3.8-7,3.5-17.6-2-23.6
			C223.3,111.2,221.7,112.3,222.2,113.6z"/>
		<g>
			<path class="st0" d="M221,113.9c2.2,5.3,3.4,9.8,2.5,15.6c-0.3,1.8-1.6,5.5-0.1,7.2c3.4,3.7,5.5-3.8,6-5.9
				c1.2-5.7,0.6-12.1-2.5-17.1c-1.6-2.5-6.1-4.9-5.9-0.1c0.1,1.6,2.6,1.6,2.5,0c0.8,0.7,1.5,1.5,1.9,2.4c0.6,1.1,1,2.2,1.3,3.4
				c0.5,1.6,0.7,3.3,0.8,5c0.1,1.7,0,3.4-0.4,5c-0.2,0.8-1,6.6-1.5,3.6c-0.5-3.2,1.1-6.7,0.7-10c-0.4-3.4-1.7-6.5-3-9.7
				C222.9,111.8,220.4,112.4,221,113.9z"/>
		</g>
	</g>
	<g>
		<path class="st0" d="M221.3,141.7c1.9-1.8,4.1-4.2,5.2-6.6c0.6-1.4-1.2-2.5-2.3-1.6c-2,1.7-3.6,4.6-4.8,6.9
			C219,141.5,220.5,142.5,221.3,141.7z"/>
		<g>
			<path class="st0" d="M222.2,142.6c1.2-1.2,2.4-2.4,3.5-3.8c0.9-1.1,2-2.5,2.2-3.9c0.3-2.3-2.4-3.7-4.2-2.5
				c-2.3,1.5-4.2,4.9-5.2,7.4c-0.9,2.2,1.5,4.4,3.5,3c1.3-0.9,0.1-3-1.3-2.2c0.7-0.4,1.2-2.1,1.7-2.8c0.5-0.8,1.7-3.1,2.6-3.2
				c0.7-0.1-0.1,1-0.3,1.4c-0.4,0.6-0.8,1.3-1.3,1.9c-0.9,1.1-1.9,2.1-2.9,3.1C219.2,142,221,143.7,222.2,142.6z"/>
		</g>
	</g>
	<g>
		<path class="st0" d="M220.5,137.9c-5.2,11.6-8.5,23.9-15,34.9c-5.3,9.1-12.2,16.3-20.1,23.1c-0.8,0.7,0.1,2.2,1,1.6
			c20-10.9,31-37.6,35.8-59C222.6,137.3,221.1,136.7,220.5,137.9z"/>
		<g>
			<path class="st0" d="M219.4,137.2c-7.1,16-11.5,33-23.3,46.5c-2.5,2.8-5.1,5.5-7.9,8.1c-1.2,1.1-4.5,3-4.3,5
				c0.5,4.7,6.5-0.1,7.9-1.1c10.3-7.3,17.5-18.3,22.7-29.7c2.7-5.8,4.9-11.8,6.7-17.9c0.9-3,4.7-10.4,0.5-12.1
				c-0.4-0.2-0.9,0.1-1.2,0.3c-0.3,0.2-0.5,0.4-0.8,0.6c-1.3,1,0.5,2.8,1.8,1.8c-1.4,1.1-1.6,5-2.1,6.7c-0.7,2.5-1.5,5-2.3,7.4
				c-1.8,5.4-4,10.8-6.6,15.9c-4.9,9.7-11.5,18.9-20.5,25.2c-0.8,0.5-2.3,1.1-2.9,1.9c0.3-0.5,2.5-1.8,2.9-2.3
				c2-1.8,3.9-3.7,5.7-5.7c3.8-4,7.2-8.3,10.1-13c7-11.3,10.5-24.3,15.8-36.4C222.2,137,220.1,135.8,219.4,137.2z"/>
		</g>
	</g>
	<g>
		<path class="st0" d="M108.6,226c27.7,5.1,63.1-7.4,80.3-30.6c0.8-1.1-0.7-2.3-1.6-1.5c-25.4,19.9-46.1,29.3-78.5,30.4
			C107.7,224.3,107.5,225.8,108.6,226z"/>
		<g>
			<path class="st0" d="M108.3,227.2c25.6,4.4,54.1-4.2,73.2-21.8c2-1.9,10-8.2,8.7-11.5c-1.9-4.7-9.7,3.6-11.3,4.8
				c-11.7,8.5-24.4,15.6-38.4,19.7c-8.2,2.4-16.7,3.7-25.2,4.4c-1.6,0.1-12.8,0.3-7.3,4.4c1.3,1,2.5-1.2,1.3-2.2
				c2.3,1.8,9.5,0,12.3-0.4c3.1-0.4,6.1-0.8,9.2-1.4c6.9-1.3,13.7-3.3,20.2-5.9c6.2-2.5,12.2-5.5,17.9-9c2-1.2,18.3-11.5,17.9-12.5
				c0.5,0.9-4.9,5.9-5.9,6.8c-2.6,2.5-5.4,4.8-8.4,6.9c-6.2,4.4-12.9,7.9-20,10.5c-13.8,5.1-28.9,7.2-43.4,4.7
				C107.4,224.6,106.7,227,108.3,227.2z"/>
		</g>
	</g>
	<g>
		<path class="st0" d="M7.5,104.9c-4.2,13.9,2.2,27.9-1.1,41.7c-0.3,1.3,1.4,2.5,2.2,1.2c2.9-4.9,2.7-11.1,2.1-16.6
			c-1-8.8-1.2-17.3-1.7-26.1C9,104.2,7.8,104.1,7.5,104.9z"/>
		<g>
			<path class="st0" d="M6.3,104.5c-2.9,10.9-0.2,21.6-0.1,32.5c0,3.1-1,6.2-0.9,9.2c0,0.8,0,1.5,0.4,2.1c1.2,1.7,2.8,1.3,4.1,0
				c2.5-2.7,2.7-8.4,2.6-11.8c0-5.5-1-11.1-1.3-16.6c-0.1-1.8,0.8-21-4.4-16c-1.2,1.1,0.6,2.9,1.8,1.8c-1.7,1.7-0.2,8.1-0.1,10.5
				c0.2,3.4,0.4,6.8,0.7,10.2c0.3,3.1,0.8,6.2,0.8,9.3c0,1.3-1.1,10-1.8,9.4c-0.3-0.3,0.7-7.4,0.7-8.1c0-3.2-0.3-6.4-0.6-9.6
				c-0.7-7.5-1.3-14.9,0.6-22.3C9.2,103.6,6.8,103,6.3,104.5z"/>
		</g>
	</g>
	<g>
		<path class="st0" d="M6.9,146.3c-0.9,2.2-0.2,5,0.5,7.2c0.6,2,1.6,5.2,3.8,5.9c0.7,0.2,1.5-0.2,1.5-1c0.1-2-1.5-3.7-2.2-5.5
			c-0.8-2.2-0.7-4.5-1.5-6.6C8.5,145.2,7.2,145.4,6.9,146.3z"/>
		<g>
			<path class="st0" d="M5.6,146c-1.2,3.6,0.1,8,1.8,11.2c0.9,1.9,4.3,5.3,6.2,2.3c0.7-1.2,0.2-2.8-0.3-3.9
				c-1.1-2.4-1.9-4.3-2.4-6.8c-0.3-1.4-0.4-3.5-1.9-4.2c-1.3-0.6-2.4,0.1-3.1,1.1c-0.9,1.3,1.2,2.6,2.2,1.3
				c-0.3,0.3,0.5,2.4,0.5,2.9c0.1,0.8,0.3,1.7,0.5,2.5c0.3,1.1,2.6,4.5,2.2,5.3c0.1,0.6-0.2,0.6-0.7-0.2c-0.4-0.5-0.7-0.9-0.9-1.5
				c-0.4-0.8-0.7-1.7-0.9-2.5c-0.7-2.2-1.3-4.5-0.6-6.8C8.6,145.1,6.1,144.4,5.6,146z"/>
		</g>
	</g>
	<g>
		<path class="st0" d="M10.2,158c1.9,2.7,4.8,4.1,7,6.6c2.7,3,4.4,6.9,6.6,10.3c3.9,6.1,8.6,11.6,14.5,15.7c0.7,0.5,1.6-0.5,1-1.2
			c-5.7-6.9-11-13.6-15.6-21.4c-3-5.1-6.8-9.6-12.6-11.3C10.3,156.5,9.7,157.4,10.2,158z"/>
		<g>
			<path class="st0" d="M9.3,158.9c1.7,2.1,3.9,3.5,5.8,5.4c2.2,2.1,3.7,4.6,5.2,7.2c2.6,4.6,5.5,8.9,9,12.8c1.8,2,6.3,7.7,9.3,7.5
				c1.8-0.1,2.4-1.5,1.8-3.1c-0.8-1.9-3.4-4.2-4.7-5.8c-2.1-2.7-4.2-5.4-6.1-8.2c-2.9-4.1-5.1-8.7-8.3-12.5c-2-2.4-6.5-6.9-10-6.8
				c-1.8,0.1-2.7,1.1-2.3,2.9c0.4,1.6,2.8,0.9,2.4-0.7c0.2,0.8,4.3,2.6,5.1,3.3c1.4,1.2,2.7,2.6,3.8,4.1c2.1,2.8,3.7,5.9,5.7,8.8
				c1.8,2.8,3.8,5.4,5.8,8.1c1.1,1.4,2.2,2.8,3.3,4.1c0.6,0.7,4.1,4.1,1.4,1.6c-5.2-4.9-9.6-9.9-13.2-16.1c-1.3-2.3-2.6-4.7-4.2-6.7
				c-2.4-2.9-5.6-4.8-8-7.7C10.1,155.9,8.3,157.7,9.3,158.9z"/>
		</g>
	</g>
	<g>
		<path class="st0" d="M49.4,202.3c4.8,6,12,10.1,18.7,13.4c8.8,4.3,19.6,5.1,27.8,10.5c1.6,1,3.2-1.3,1.7-2.5
			c-6.3-4.7-14.4-5.4-21.6-8.1c-9.4-3.6-16.9-9.7-25.6-14.5C49.7,200.6,48.8,201.5,49.4,202.3z"/>
		<g>
			<path class="st0" d="M48.5,203.2c7.7,9,19.1,14.3,30.2,17.6c3.2,0.9,6.4,1.8,9.5,3c2.5,0.9,5.2,3.3,7.8,3.7
				c2.1,0.3,3.9-1.3,3.3-3.5c-1-3.4-8.2-5.2-11.1-6.1c-6.7-2.1-13.2-3.7-19.4-7.1c-3-1.7-5.9-3.5-8.8-5.4c-2.4-1.5-6-4.8-8.9-5.5
				c-2.1-0.5-3.4,0.4-2.9,2.7c0.3,1.6,2.8,0.9,2.4-0.7c0.4,1.6,4,3,5.2,3.8c1.9,1.2,3.9,2.5,5.8,3.7c3.9,2.5,7.9,4.8,12.2,6.6
				c3.5,1.5,7.2,2.4,10.8,3.5c1.6,0.4,11.5,3.9,10.8,4.6c-0.3,0.3-8.7-3.4-9.7-3.8c-4.2-1.4-8.6-2.4-12.8-3.9
				c-8.4-3.1-16.9-8.1-22.8-15C49.2,200.2,47.5,202,48.5,203.2z"/>
		</g>
	</g>
	<g>
		<path class="st0" d="M95.3,224.6c0.9,2.8,3.7,4.6,6.6,4.9c1.3,0.2,2.7,0,4-0.4c2.2-0.7,3.9-2.8,6.3-2.5c0.7,0.1,1.3-0.7,0.9-1.3
			c-1.3-2.4-3.7-1.9-5.7-0.7c-4.2,2.5-7.2,2.1-10.9-1C95.8,222.9,95.1,223.8,95.3,224.6z"/>
		<g>
			<path class="st0" d="M94.1,224.9c1.7,4.1,5.7,6.4,10.2,5.8c1.1-0.1,2.2-0.4,3.2-0.9c1.7-0.8,3.1-1.4,4.9-2c1.3-0.4,2.2-1,2-2.6
				c-0.6-4.3-5.8-2.7-8.2-1.5c-2.4,1.2-4.7,1.5-7.1,0.1c-0.9-0.5-1.8-1.7-2.9-1.7c-1.5,0-2,1-2.1,2.4c-0.1,1.6,2.4,1.6,2.5,0
				c-0.1,1.6,3.6,2.6,4.8,2.8c2.7,0.4,4.3-0.9,6.7-1.7c1-0.8,2-0.9,3.2-0.3c-0.4,0-0.8,0.1-1.3,0.3c-0.8,0.6-2,1-2.9,1.5
				c-3.7,2-8.8,1.3-10.6-2.9C95.9,222.8,93.5,223.4,94.1,224.9z"/>
		</g>
	</g>
	<g>
		<path class="st0" d="M134.3,4.8c5.3,3.9,12.1,1.2,17.8,4.3c4.7,2.5,8,7.8,13.4,8.5c0.7,0.1,1.2-0.9,0.7-1.4
			c-3.5-3.7-8.4-7.8-12.8-10.1c-5.7-3-12.4-2-18.6-2.8C134,3.1,133.7,4.3,134.3,4.8z"/>
		<g>
			<path class="st0" d="M133.7,5.8c3.5,2.2,7,2.3,10.9,2.7c6.3,0.6,9.5,3.7,14.3,7.2c1.6,1.2,10.8,5.6,8.5-0.3c-1.2-3-6.6-6.2-9.2-8
				c-3.3-2.3-6.7-4-10.7-4.6c-2.3-0.4-17.3-3.3-14.3,2.5c0.7,1.4,2.9,0.2,2.2-1.3c0.7,1.3,6.2,0.8,7.4,0.8c3.5,0.2,6.9,0.6,10.1,2.1
				c2.8,1.4,5.4,3.4,7.8,5.4c1.5,1.2,6.8,5.5,1.2,2.3c-3.8-2.2-6.5-5.9-10.7-7.6c-5.3-2.1-11.2-0.5-16.2-3.6
				C133.6,2.8,132.3,5,133.7,5.8z"/>
		</g>
	</g>
	<g>
		<path class="st0" d="M57,19.1c1.8-2.5,3.8-4.8,6.5-6.4c2.6-1.5,5.3-1.6,8.1-2.4c1-0.3,1.5-2,0.2-2.4C65.4,6,57.3,12,55.5,18.2
			C55.2,19.2,56.4,19.9,57,19.1z"/>
		<g>
			<path class="st0" d="M58.1,19.7c2.3-3.1,4.9-5.8,8.7-7c1.9-0.6,5.1-0.4,6.4-2.1c3.1-3.8-3.7-4.5-5.9-4.1
				c-4.6,0.8-8.8,3.9-11.3,7.7c-0.8,1.3-2.3,3.6-1.7,5.2c0.6,1.4,2.1,1.5,3.3,0.8c1.3-0.9,0.1-3.1-1.3-2.2c1.1-0.7,1.6-2.4,2.5-3.5
				c1-1.3,2.3-2.5,3.6-3.4c1.4-0.9,3-1.7,4.6-2.1c0.7-0.2,1.5-0.3,2.2-0.3c1.2,0,1.7,0.1,0.4,0.7c-2.7,1.2-5.6,1.2-8.2,3
				c-2.3,1.6-4,3.8-5.7,6C55,19.7,57.1,21,58.1,19.7z"/>
		</g>
	</g>
	<g>
		<path class="st0" d="M41.7,32.5c4.1-1.7,7.7-5.2,10.8-8.3c2.9-3,6.3-6.2,7.9-10.1c0.4-1-0.9-1.8-1.6-1.2c-3.5,2.7-6.1,6.7-9.2,9.8
			c-2.9,2.9-6.2,5.5-8.7,8.8C40.4,32.1,41.1,32.8,41.7,32.5z"/>
		<g>
			<path class="st0" d="M42.3,33.6c6.2-2.8,11.7-8.5,15.9-13.7c1.2-1.5,4-4.5,3.4-6.7c-0.3-1.3-1.6-1.9-2.9-1.6
				c-2.4,0.6-4.5,3.8-6,5.6c-2.4,2.8-4.9,5.4-7.6,8c-1.1,1.1-9.2,8.3-3.4,8.5c1.6,0.1,1.6-2.4,0-2.5c1.6,0.1,3-2.2,4.3-3.4
				c1.5-1.4,3.1-2.8,4.5-4.3c2.4-2.4,4.8-7,7.8-8.6c0.7-0.4,0.8-1.2-0.1,0.8c-0.5,1-1.4,2-2.1,2.9c-1.4,1.7-2.9,3.2-4.4,4.7
				c-3.2,3.2-6.4,6.3-10.5,8.1C39.6,32.1,40.8,34.3,42.3,33.6z"/>
		</g>
	</g>
	<g>
		<path class="st0" d="M38.7,39.9c3.3-2.6,6.4-5.4,9.5-8.2c2.8-2.5,5.9-4.8,8.3-7.7c0.4-0.5-0.3-1.3-0.8-1c-3.2,2-5.8,4.8-8.6,7.3
			c-3.1,2.8-6.2,5.6-9.2,8.5C37.3,39.4,38.1,40.4,38.7,39.9z"/>
		<g>
			<path class="st0" d="M39.6,40.7c5.4-4.4,11.2-9,16.1-14c0.9-1,2.7-2.4,2-3.9c-0.5-1.1-1.6-1.2-2.6-0.9c-2.5,0.8-5.2,4.1-7,5.8
				c-2.7,2.5-5.4,4.9-8,7.3c-1.1,1-4,2.8-3.5,4.8c0.3,1.3,1.5,1.4,2.6,1.2c1.6-0.3,0.9-2.7-0.7-2.4c1.3-0.2,1.2,0,2.4-0.9
				c0.7-0.5,1.4-1.3,2-1.9c1.5-1.4,3.1-2.8,4.6-4.2c1.3-1.1,2.5-2.3,3.7-3.5c0.6-0.6,1.2-1.1,1.9-1.7c0.2-0.1,3.3-2.6,1.7-2.5
				c-0.7,0-3,3-3.6,3.5c-1.3,1.1-2.6,2.2-3.8,3.3c-3.2,2.7-6.3,5.5-9.5,8.2C36.6,40,38.4,41.7,39.6,40.7z"/>
		</g>
	</g>
	<g>
		<path class="st0" d="M59.1,19.7c0.3-0.8,1-1.1,1.6-1.6c0.6-0.4,0.2-1.3-0.4-1.4c-1.6-0.2-2.6,1.1-2.9,2.6
			C57.3,20.3,58.8,20.6,59.1,19.7z"/>
		<g>
			<path class="st0" d="M60.2,20.3c0.3-0.7,1-0.9,1.5-1.4c0.6-0.6,0.7-1.7,0.2-2.4c-0.9-1.5-3.2-1.1-4.3-0.1c-1,0.9-1.9,2.8-1.1,4.1
				C57.3,21.9,59.5,21.7,60.2,20.3c0.3-0.6,0.2-1.4-0.4-1.7c-0.6-0.3-1.4-0.2-1.7,0.4c-0.1,0.2,0.1,0,0.2-0.1c-0.2,0.1,0,0,0.1,0
				c0.1,0.1,0.2,0.3,0.3,0.4c0.1,0.1-0.1,0.3,0.1-0.1c0.2-0.5,0.3-0.9,0.8-1.2c0.1,0,0.6-0.2,0.6-0.1c0,0.1-0.3-0.2-0.4-0.3
				c0-0.2,0-0.4,0.1-0.5c0.1-0.1,0-0.1-0.1,0c-0.7,0.4-1.4,1-1.7,1.8c-0.3,0.6-0.2,1.3,0.4,1.7C59,21.1,59.9,20.9,60.2,20.3z"/>
		</g>
	</g>
	<g>
		<path class="st0" d="M70,12.5c5.2,0.2,10.9-0.3,15.8-2.3c0.7-0.3,0.3-1.3-0.4-1.2c-5.2,0.9-10,1.9-15.2,2C69.2,11,69,12.4,70,12.5
			z"/>
		<g>
			<path class="st0" d="M70,13.7c5.1,0.1,10.3-0.2,15.1-2c1.9-0.7,3.5-3.5,0.4-4c-2.2-0.3-5.3,0.9-7.5,1.2c-1.4,0.2-2.9,0.4-4.3,0.6
				c-1.2,0.1-2.8-0.1-3.9,0.3c-2.1,0.7-2.2,3.1-0.1,3.9c1.5,0.6,2.2-1.8,0.7-2.4c0.5,0.9,1.3,1.2,2.2,0.8c0.8-0.1,1.6-0.1,2.4-0.2
				c0.9-0.1,1.8-0.2,2.7-0.3c1.3-0.2,7-0.7,6.9-1.7c-0.1-0.9-2.3,0.2-3.1,0.4c-1.3,0.3-2.6,0.6-3.9,0.7c-2.5,0.3-5,0.3-7.5,0.3
				C68.4,11.2,68.4,13.7,70,13.7z"/>
		</g>
	</g>
	<g>
		<path class="st0" d="M111.4,6.1c5.5,0,10.8,0.5,16.3,1.1c0.7,0.1,1-1,0.3-1.2c-5.4-1.5-11.1-1.8-16.6-1.3
			C110.6,4.8,110.6,6.1,111.4,6.1z"/>
		<g>
			<path class="st0" d="M111.4,7.4c2.9,0,5.9,0.1,8.8,0.3c2.2,0.2,5.7,1.3,7.8,0.7c3-0.8,1.1-3.4-0.9-3.9c-2.4-0.6-5-1-7.4-1.1
				c-2.5-0.2-6-0.7-8.4,0.1c-1.8,0.6-2.7,2.8-0.6,3.7c1.5,0.7,2.7-1.5,1.3-2.2c0.2,0.9,0.8,1.2,1.7,0.8c0.4,0,0.8,0,1.2,0
				c1.2,0,2.4,0,3.6,0c1.5,0.1,3,0.2,4.4,0.4c0.9,0.1,3.5,1.2,3.5,0.1c0-1.1-5.8-1.1-6.9-1.2c-2.7-0.2-5.4-0.3-8.2-0.3
				C109.8,4.9,109.8,7.4,111.4,7.4z"/>
		</g>
	</g>
	<g>
		<path class="st0" d="M12.5,94c0.7-2,1.3-3.9,1.3-6c0-0.7-0.9-1.2-1.3-0.5c-1,1.9-1.4,3.9-1.8,6C10.5,94.7,12.2,95,12.5,94z"/>
		<g>
			<path class="st0" d="M13.7,94.3c0.4-1.3,0.8-2.5,1.1-3.9c0.2-1,0.5-2.4,0-3.4c-0.4-0.8-1.2-1.3-2.1-1.2c-1.2,0.2-1.6,1.4-2,2.3
				c-0.5,1.2-0.8,2.4-1,3.6c-0.2,0.9-0.5,2,0,2.9c0.9,1.5,3.2,1.4,3.9-0.2c0.7-1.4-1.4-2.7-2.2-1.3c0.2,0,0.3,0,0.5,0.1
				c0-0.1,0.1-0.3,0.1-0.4c0.2-0.3,0.2-0.9,0.3-1.3c0.1-0.4,0.2-0.9,0.3-1.3c0.1-0.4,0.6-1.2,0.6-1.6c0.3-0.4,0-0.5-0.7-0.3
				c0,0.3,0,0.5-0.1,0.8c-0.1,0.5-0.2,1-0.3,1.4c-0.2,1-0.6,2-0.9,2.9C10.8,95.2,13.2,95.8,13.7,94.3z"/>
		</g>
	</g>
	<g>
		<path class="st0" d="M15.7,81.6c0.7-2.3,1.5-4.5,2.4-6.6c0.9-2.1,2.3-4.2,3-6.4c0.3-0.9-0.8-1.3-1.3-0.7c-3,3.4-4.3,8.9-5.4,13.2
			C14.2,81.9,15.4,82.5,15.7,81.6z"/>
		<g>
			<path class="st0" d="M16.9,81.9c0.8-2.7,1.8-5.4,3.1-7.9c0.8-1.6,2.2-3.6,2.4-5.4c0.1-1.1-0.6-2.1-1.8-2.2
				c-1.5-0.1-2.3,1.3-3,2.4c-2.2,3.3-3.6,7.7-4.3,11.6c-0.4,2.3,2,4.1,3.5,1.8c0.9-1.3-1.2-2.6-2.2-1.3c0.9,0.1,1.4-0.2,1.3-1
				c0.1-0.5,0.3-1,0.4-1.5c0.3-1.1,0.6-2.1,0.9-3.2c0.3-0.9,0.7-1.9,1.1-2.8c0.4-0.9,1.3-1.9,1.5-2.8c-0.3-1.1-0.6-0.8-0.9,0.7
				c-0.3,0.5-0.5,1.1-0.8,1.6c-0.4,0.8-0.8,1.6-1.2,2.4c-1,2.2-1.8,4.6-2.6,6.9C14,82.8,16.4,83.4,16.9,81.9z"/>
		</g>
	</g>
	<g>
		<path class="st0" d="M24.8,66.1c2-1.9,4.5-4.7,4.9-7.6c0.1-0.7-0.9-1-1.2-0.5c-0.8,1.1-1.2,2.4-1.9,3.5c-0.8,1.2-1.7,2.4-2.7,3.4
			C23.2,65.7,24.1,66.8,24.8,66.1z"/>
		<g>
			<path class="st0" d="M25.7,67c2-1.9,4-4.1,4.9-6.7c0.3-1,0.7-2.2-0.1-3.1c-0.6-0.7-1.7-0.9-2.6-0.3c-1.1,0.7-1.5,2.5-2.2,3.6
				c-0.8,1.4-1.9,2.5-2.9,3.8c-1.3,1.8,0.6,4.1,2.6,3c1.4-0.8,0.1-3-1.3-2.2c0.6,0.6,1,0.6,1.3,0c0.2-0.3,0.5-0.6,0.7-0.8
				c0.4-0.5,0.8-1,1.2-1.6c0.4-0.6,0.8-1.3,1.1-2c0.2-0.3,0.3-0.7,0.5-1c0.4-0.4,0.4-0.6-0.1-0.7c-0.4-0.4-0.6-0.3-0.5,0.2
				c-0.1,0.4-0.2,0.8-0.4,1.1c-0.3,0.6-0.7,1.2-1.1,1.8c-0.8,1.2-1.8,2.2-2.9,3.2C22.8,66.4,24.5,68.1,25.7,67z"/>
		</g>
	</g>
	<g>
		<path class="st0" d="M11.2,126c-0.7,4.2-0.5,10.3,0.9,14.2c0.3,0.8,1.5,0.5,1.5-0.3c0.2-2.2-0.3-4.4-0.4-6.6
			c-0.2-2.5-0.1-5-0.5-7.4C12.5,125,11.3,125.2,11.2,126z"/>
		<g>
			<path class="st0" d="M10,125.7c-0.6,4.2-0.6,8.5,0.3,12.6c0.4,1.6,2.1,5.7,4.2,2.8c1.2-1.6,0.2-4.8,0.1-6.6
				c-0.2-2.5-0.2-5-0.4-7.5c-0.1-1.2-0.2-2.5-1.6-2.9c-1-0.3-1.9,0.3-2.4,1.2c-0.7,1.4,1.5,2.7,2.2,1.3c-0.8,0.1-1,0.6-0.6,1.4
				c0,0.7,0.1,1.4,0.1,2.1c0,1.1,0.1,2.1,0.1,3.2c0.1,1.1,0.2,2.2,0.3,3.3c0.1,0.7,0.1,1.5,0.1,2.2c0.6,0.5,0.8,0.5,0.6-0.1
				c-0.1-2-0.8-4-0.9-6.1c-0.1-2.1,0-4.3,0.3-6.4C12.6,124.8,10.2,124.1,10,125.7z"/>
		</g>
	</g>
	<g>
		<path class="st0" d="M183.6,195.5c8.9-6,17.9-15,21.8-25.4c0.3-0.7-0.8-1.3-1.2-0.7c-6.1,9.8-11.9,18.2-21.4,25
			C182.1,195,182.9,196,183.6,195.5z"/>
		<g>
			<path class="st0" d="M184.3,196.6c6-4.1,11.4-8.9,15.8-14.7c1.4-1.8,9.3-11.6,5.6-13.7c-1.1-0.6-1.7-0.1-2.6,0.6
				c-1.4,1.1-2.5,4-3.5,5.5c-1,1.5-2,3-3.1,4.5c-2.5,3.5-5.3,6.7-8.4,9.7c-2.1,2-5.7,3.5-6.8,6.2c-0.2,0.4,0.1,0.9,0.3,1.2
				c0.7,0.8,1,0.9,2,0.8c1.6-0.1,1.6-2.6,0-2.5c2.2-0.2,3.2-1.2,5.1-2.9c1.9-1.7,3.7-3.6,5.5-5.5c3.1-3.6,5.9-7.5,8.5-11.5
				c0.1-0.2,1.8-2.7,1.7-2.7c-0.7-0.7-2.7,3.6-2.8,3.8c-1.4,2.5-3.1,4.8-5,7.1c-3.9,4.7-8.6,8.7-13.6,12.1
				C181.7,195.3,182.9,197.5,184.3,196.6z"/>
		</g>
	</g>
	<g>
		<path class="st0" d="M210.1,161.1c0.7-1.5,1.5-3.1,1.9-4.8c0.2-0.6-0.7-1.2-1.1-0.6c-0.9,1.5-1.4,3.2-2.1,4.9
			C208.5,161.5,209.7,161.9,210.1,161.1z"/>
		<g>
			<path class="st0" d="M211.2,161.7c0.4-1,0.9-2,1.3-3c0.4-0.9,0.9-2.1,0.7-3.1c-0.2-0.8-0.9-1.4-1.7-1.4c-1-0.1-1.6,0.7-2,1.5
				c-0.5,0.9-0.9,1.9-1.2,2.9c-0.3,0.8-0.9,1.8-0.6,2.7C208,163.1,210.3,163.1,211.2,161.7c0.8-1.4-1.3-2.6-2.2-1.3
				c0.6,0.7,1,0.8,1.1,0.1c0-0.1,0.1-0.2,0.1-0.4c0.1-0.4,0.3-0.7,0.4-1.1c0.1-0.4,0.3-0.7,0.4-1.1c0.2-0.4,0.5-0.9,0.6-1.2
				c0.3-0.4,0-0.6-1-0.5c-0.1,0.2-0.1,0.4-0.2,0.6c-0.1,0.4-0.3,0.8-0.4,1.1c-0.3,0.8-0.7,1.6-1,2.4
				C208.4,161.9,210.5,163.2,211.2,161.7z"/>
		</g>
	</g>
	<g>
		<path class="st0" d="M206.2,164.5c-0.1,0.2-0.3,0.3-0.4,0.5c-0.7,0.9,0.6,1.9,1.3,1.2c0.2-0.1,0.3-0.3,0.5-0.4
			C208.8,165,207.2,163.4,206.2,164.5z"/>
		<g>
			<path class="st0" d="M205.4,163.7c-0.4,0.6-1,1.1-1,1.9c0,0.6,0.3,1.2,0.8,1.6c1.2,1,2.6,0.5,3.5-0.5c0.9-0.9,0.7-2.3-0.1-3.1
				C207.6,162.7,206.2,162.7,205.4,163.7c-0.4,0.5-0.5,1.3,0,1.8c0.4,0.4,1.3,0.5,1.8,0c0,0,0.1-0.1,0.1-0.1c0.1-0.1,0.1-0.1,0,0
				c0,0-0.4,0.1-0.2,0.1c0.2,0-0.3,0,0,0c-0.1,0-0.1,0-0.2-0.1c0.1,0.2,0-0.2,0,0c0.1,0.1,0-0.2,0,0c0-0.2,0-0.2,0-0.1
				c0,0.1,0,0.1,0-0.1c0,0,0-0.1,0.1-0.1c-0.1,0.1-0.1,0.1,0,0c0.1-0.1-0.2,0.1-0.2,0.1c-0.1,0-0.2,0.2-0.2,0.2c0,0,0.2,0,0.2-0.1
				c0.1,0,0.2,0,0.1,0c-0.1,0-0.1,0,0.1,0c0.2,0.1,0,0,0,0c0,0.1,0.1,0.2,0.1,0.3c0,0-0.1,0.3-0.1,0.2c0,0,0.3-0.4,0.3-0.4
				c0.4-0.5,0.5-1.2,0-1.8C206.7,163.2,205.8,163.1,205.4,163.7z"/>
		</g>
	</g>
	<g>
		<path class="st0" d="M213.4,150.9c1.2-2,2.4-4.2,3.2-6.5c0.3-0.7-0.7-1.2-1.2-0.6c-1.4,1.9-2.6,4.1-3.5,6.3
			C211.5,151,212.9,151.7,213.4,150.9z"/>
		<g>
			<path class="st0" d="M214.5,151.5c0.8-1.2,1.5-2.5,2.1-3.8c0.5-1,1.2-2.3,1.3-3.4c0.1-2.3-2.6-2.4-3.7-0.9
				c-0.8,1.1-1.5,2.3-2.2,3.5c-0.5,1-1.4,2.3-1.5,3.5c0,2,2.5,2.8,3.7,1.4c1.1-1.2-0.7-3-1.8-1.8c0.5,0.4,0.8,0.4,0.9-0.2
				c0.1-0.2,0.2-0.5,0.3-0.7c0.2-0.5,0.5-0.9,0.7-1.4c0.1-0.3,1.8-2.6,1.8-2.9c-0.6-1.7-1.4,0.8-1.4,0.9c-0.2,0.5-0.4,0.9-0.7,1.4
				c-0.5,1.1-1.1,2.1-1.8,3.1C211.5,151.6,213.6,152.9,214.5,151.5z"/>
		</g>
	</g>
	<g>
		<path class="st0" d="M36.8,189.5c2,3,5.6,4.3,7.9,6.9c2.6,2.8,4.2,6.5,7.4,8.7c0.8,0.5,1.6-0.3,1.3-1.1c-1.3-3.7-4.4-7.5-7.1-10.2
			c-2.4-2.3-5.6-4.2-8.7-5.5C36.8,187.9,36.4,188.9,36.8,189.5z"/>
		<g>
			<path class="st0" d="M35.7,190.1c1.5,2,3.4,3.4,5.5,4.9c2.7,2,4.4,4.6,6.4,7.2c1,1.4,3.2,4.4,5.2,4.3c1.4-0.1,2.1-1.3,1.9-2.6
				c-0.3-2.4-2.3-4.9-3.7-6.7c-1.9-2.5-4.1-4.8-6.7-6.6c-1.6-1.1-9.8-6.5-8.7-0.7c0.3,1.6,2.7,0.9,2.4-0.7c0.3,1.3,2.4,1.8,3.6,2.5
				c1.7,1,3.2,2.3,4.6,3.7c1.4,1.4,2.7,3,3.9,4.7c0.5,0.7,2.7,3.7,0.7,2c-2.2-1.8-3.4-4.9-5.4-6.9c-2.3-2.3-5.4-3.7-7.4-6.3
				C36.9,187.6,34.7,188.8,35.7,190.1z"/>
		</g>
	</g>
	<g>
		<path class="st0" d="M34.9,183.4c0.5,1.8,1.9,3.9,3.5,4.8c0.5,0.3,1.3,0,1.1-0.7c-0.5-1.8-2.1-3.7-3.6-4.6
			C35.5,182.5,34.7,182.8,34.9,183.4z"/>
		<g>
			<path class="st0" d="M33.7,183.7c0.6,1.8,1.6,3.7,3.2,4.9c0.7,0.6,1.5,1.1,2.4,0.8c0.9-0.2,1.4-1,1.4-1.9c0-1.9-1.8-4-3.2-5.1
				c-0.7-0.6-1.4-1.1-2.4-0.9c-0.9,0.2-1.6,1-1.5,1.9c0.2,1.6,2.7,1.6,2.5,0c-0.8,0.3-0.9,0.6-0.4,0.8c0.2,0.1,0.3,0.3,0.5,0.4
				c0.3,0.3,0.7,0.6,0.9,1c0.3,0.4,0.5,0.8,0.7,1.2c0.1,0.2,0.2,0.4,0.3,0.6c0.5-0.1,0.7-0.2,0.6-0.5c0-0.1-0.6-0.5-0.7-0.6
				c-0.3-0.3-0.6-0.6-0.8-1c-0.5-0.7-0.8-1.5-1.1-2.3C35.6,181.5,33.2,182.2,33.7,183.7z"/>
		</g>
	</g>
	<g>
		<path class="st0" d="M30.7,178c0.5,0.6,0.9,1.1,1.6,1.5c0.6,0.3,1.4-0.2,1-0.9c-0.4-0.8-0.9-1.3-1.5-1.8
			C31.1,176.1,30.1,177.3,30.7,178z"/>
		<g>
			<path class="st0" d="M29.8,178.9c0.8,1,2,2.2,3.4,1.9c0.7-0.2,1.2-0.7,1.4-1.4c0.2-0.7-0.1-1.5-0.6-2.1c-0.7-1-1.9-2.4-3.3-1.9
				c-1.3,0.4-2,2.1-1.2,3.2c0.4,0.6,1.1,0.8,1.7,0.4c0.5-0.3,0.8-1.2,0.4-1.7c-0.2-0.2,0,0,0,0.1c0,0.1,0,0.1-0.1,0.2
				c-0.1,0.1-0.1,0.1,0,0c0.1-0.1,0-0.1,0,0c-0.1,0-0.5,0.1-0.5,0c0,0,0,0-0.1,0c0,0,0.1,0.1,0.1,0.1c0.1,0.1,0.2,0.2,0.3,0.3
				c0.2,0.2,0.4,0.4,0.5,0.6c0,0,0.2,0.3,0.2,0.3c-0.1,0,0.1-0.5,0.2-0.6c0.1-0.1,0.1-0.1,0.2-0.1c0.2-0.1,0.5,0.2,0.2,0
				c-0.5-0.3-0.8-0.7-1.2-1.2c-0.4-0.5-1.3-0.4-1.8,0C29.3,177.7,29.4,178.4,29.8,178.9z"/>
		</g>
	</g>
	<g>
		<path class="st0" d="M43.5,190.1c0.6,0.5,1.1,0.7,1.9,0.9c0.6,0.1,1-0.7,0.6-1.2c-0.5-0.6-1-0.9-1.7-1.2
			C43.4,188.2,42.8,189.5,43.5,190.1z"/>
		<g>
			<path class="st0" d="M42.9,191.1c0.9,0.7,2.4,1.5,3.6,0.8c0.6-0.4,0.9-1.1,0.9-1.8c0-0.7-0.5-1.3-1-1.7c-1-0.8-2.4-1.7-3.6-0.8
				c-1,0.8-1.2,2.4-0.2,3.3c0.5,0.4,1.3,0.5,1.8,0c0.5-0.5,0.5-1.3,0-1.8c-0.2-0.2,0,0.1,0,0.1c0,0.2,0,0.2,0,0.1c0-0.1,0-0.1,0,0.1
				c0.2-0.3-0.2,0.2,0,0c-0.1,0.1-0.2,0.2-0.3,0.3c0,0-0.3,0-0.3,0c0,0,0.3,0.2,0.3,0.2c0.2,0.1,0.5,0.3,0.6,0.4
				c0,0,0.3,0.3,0.3,0.3c0,0-0.1-0.2-0.1-0.3c0-0.1,0.1-0.3,0.2-0.3c0,0,0.5-0.2,0.5-0.2c0,0-0.6-0.2-0.6-0.2
				c-0.3-0.1-0.5-0.3-0.8-0.5c-0.5-0.4-1.4-0.1-1.7,0.4C42,190.1,42.3,190.7,42.9,191.1z"/>
		</g>
	</g>
	<g>
		<path class="st0" d="M53.5,202.9c2,1,3.6,2.5,5.5,3.4c0.7,0.4,1.2-0.6,0.8-1.2c-1.2-1.9-3.8-3-5.8-3.7
			C53.1,201.1,52.6,202.5,53.5,202.9z"/>
		<g>
			<path class="st0" d="M52.9,204c1.2,0.6,2.3,1.5,3.5,2.2c0.9,0.6,2.1,1.6,3.3,1.4c0.9-0.1,1.5-0.9,1.6-1.8
				c0.1-1.1-0.7-1.9-1.4-2.6c-0.8-0.8-1.8-1.4-2.8-1.8c-0.9-0.4-2.1-1.1-3.1-1.2C51.6,200,51.2,202.8,52.9,204
				c1.3,0.9,2.6-1.2,1.3-2.2c-0.1,0.3-0.3,0.6-0.4,0.8c0.1,0,0.2,0.1,0.3,0.1c0.2,0.1,0.5,0.2,0.7,0.3c0.5,0.2,1,0.4,1.4,0.6
				c0.4,0.2,0.9,0.5,1.3,0.8c0.4,0.3,0.8,1,1.2,1.2c0.1,0.2,0.1,0.2,0.1,0c-0.1-0.2,0-0.3,0.3-0.4c0.3-0.1,0.4-0.3,0.1-0.3
				c-0.1-0.1-0.3-0.1-0.4-0.2c-0.5-0.3-1-0.6-1.5-0.9c-1-0.7-2-1.4-3.1-2C52.7,201.1,51.4,203.2,52.9,204z"/>
		</g>
	</g>
	<g>
		<path class="st0" d="M60.6,207.5c0.7,0.8,1.6,1.3,2.5,1.8c0.9,0.4,1.6-1,0.8-1.6c-0.8-0.6-1.6-1.1-2.6-1.4
			C60.8,206.2,60.2,206.9,60.6,207.5z"/>
		<g>
			<path class="st0" d="M59.8,208.4c0.5,0.6,1.1,1,1.7,1.4c0.6,0.4,1.3,0.8,2,0.9c1.5,0,2.4-1.5,2-2.8c-0.2-0.8-0.9-1.2-1.5-1.6
				c-0.6-0.4-1.4-0.8-2.1-1c-1.7-0.4-3.4,1.3-2.3,2.9c0.9,1.3,3.1,0.1,2.2-1.3c-0.1,0.2-0.1,0.4-0.2,0.6c-0.1,0-0.2,0.1-0.3,0.1
				c0,0.1,0.3,0.1,0.4,0.1c0.2,0.1,0.5,0.2,0.7,0.4c0.1,0.1,0.7,0.6,0.8,0.6c0,0-0.1-0.2-0.1-0.3c0.1-0.2,0.5-0.2,0.6-0.2
				c0,0-0.7-0.4-0.8-0.4c-0.5-0.3-1-0.7-1.4-1.1C60.5,205.4,58.7,207.2,59.8,208.4z"/>
		</g>
	</g>
	<g>
		<path class="st0" d="M111.9,223.5c2.4,0.1,4.8,0.2,7.2,0.1c1,0,0.9-1.7-0.1-1.7c-2.3-0.1-4.7,0-7,0.1
			C111.1,222,110.9,223.5,111.9,223.5z"/>
		<g>
			<path class="st0" d="M111.9,224.8c1.6,0.1,3.1,0.1,4.7,0.1c1.1,0,2.6,0.3,3.6-0.4c1.6-1.1,0.8-3.5-1-3.8c-1.4-0.2-3-0.1-4.5,0
				c-1.1,0-2.7-0.2-3.7,0.4c-1.6,0.9-1.3,3.4,0.5,3.7c1.6,0.3,2.2-2.1,0.7-2.4c0,0.8,0.3,1.1,0.9,0.9c0.3,0,0.5,0,0.8,0
				c0.5,0,1.1,0,1.6-0.1c0.6,0,1.3,0,1.9,0c0.5,0,1,0.2,1.1-0.3c0.2-0.7-0.6-0.4-1.1-0.4c-0.6,0-1.1,0-1.7,0c-1.3,0-2.6-0.1-3.9-0.1
				C110.3,222.2,110.3,224.7,111.9,224.8z"/>
		</g>
	</g>
	<g>
		<path class="st0" d="M122.8,223c0.1,0,0.3-0.1,0.4-0.1c0.6-0.1,0.8-1.1,0.1-1.3c-0.1,0-0.3-0.1-0.4-0.1
			C121.6,221.2,121.7,223.3,122.8,223z"/>
		<g>
			<path class="st0" d="M123.2,224.2c0.6-0.2,1.2-0.4,1.6-1c0.3-0.5,0.4-1.1,0.2-1.6c-0.3-1.1-1.9-1.6-2.9-1.3
				c-1,0.3-1.5,1.5-1.2,2.4C121.1,223.9,122.1,224.5,123.2,224.2c0.7-0.1,1-0.9,0.9-1.5c-0.2-0.7-0.9-1-1.5-0.9c0.1,0,0.1,0,0.2,0
				c-0.1,0-0.1,0,0,0c0.2,0,0.3,0.1,0.4,0.2c0,0,0.2,0.2,0.1,0.1c0,0.1,0.1,0.3,0,0.1c0-0.1,0,0.3,0,0.1c0-0.2,0,0.1,0,0.1
				c0.1-0.2-0.1,0.2,0,0.1c0-0.1,0,0,0,0c0,0.1-0.1,0.1-0.2,0.2c0,0-0.3,0.1-0.1,0c-0.2,0-0.2,0-0.1,0c0.1,0,0.1,0,0,0
				c-0.1,0-0.1,0,0,0c0.1,0,0.1,0,0.2,0.1c0.3,0,0,0-0.1-0.1c-0.2-0.2-0.3-0.6-0.1-0.8c0,0,0.2-0.1,0.2-0.1c0,0-0.4,0.1-0.4,0.1
				C120.9,222.2,121.6,224.6,123.2,224.2z"/>
		</g>
	</g>
	<g>
		<path class="st0" d="M127.5,222.7c1.7-0.3,3.7-0.4,5.3-1.2c0.6-0.3,0.5-1.5-0.3-1.5c-1.8-0.1-3.6,0.7-5.3,1.1
			C126.3,221.4,126.5,222.9,127.5,222.7z"/>
		<g>
			<path class="st0" d="M127.9,223.9c1.8-0.3,4.7-0.3,6.1-1.8c0.6-0.6,0.7-1.6,0.3-2.4c-0.5-0.9-1.3-1.1-2.3-1
				c-1.2,0.1-2.3,0.4-3.4,0.7c-0.9,0.3-2.1,0.4-2.7,1.2c-1.1,1.3-0.1,3.5,1.6,3.4c1.6-0.1,1.6-2.6,0-2.5c0.4,0.2,0.5,0.5,0.1,0.9
				c0.2-0.1,0.5-0.1,0.7-0.2c0.4-0.1,0.7-0.2,1.1-0.3c0.5-0.1,1-0.3,1.5-0.4c0.3-0.1,0.5-0.1,0.8-0.1c0.4,0.1,0.5,0,0.4-0.4
				c0.1-0.5,0-0.6-0.3-0.3c-0.2,0.1-0.5,0.2-0.7,0.2c-0.4,0.1-0.8,0.2-1.2,0.3c-0.9,0.2-1.8,0.3-2.7,0.4
				C125.6,221.8,126.3,224.2,127.9,223.9z"/>
		</g>
	</g>
	<g>
		<path class="st0" d="M46,51.6c2.5-3.6,4.6-7.6,7-11.2c2.4-3.5,7.9-10.1,12.8-7.4c7,3.9-3.2,11.2-5.9,13.4c-2.4,2-4.3,3.9-5.4,6.9
			c-0.4,1,1.1,1.5,1.5,0.6c2.5-6.1,9.4-7.9,12.4-13.6c1.5-3,2-8.3-1.7-9.8c-11-4.2-18.5,12.8-22.3,20.2C44.1,51.7,45.5,52.4,46,51.6
			z"/>
		<g>
			<path class="st0" d="M47.1,52.3c3.6-5.4,6.3-11.9,11.3-16.2c2.2-1.9,5.1-3.5,7.4-0.9c1.6,1.9,1.1,2.6-0.2,4.5
				c-1.4,1.9-3.3,3.4-5.2,4.9c-2.4,1.9-7.2,5.5-7.1,9c0.2,3.1,2.9,2,4.1,0.4c1.9-2.5,3.6-4.5,6-6.5c1.8-1.5,3.7-3,5.1-4.9
				c2-2.9,3.4-7.4,1.5-10.7c-4.3-7.6-14.4-0.8-18,3.6c-3.2,4-5.6,8.6-7.9,13.2c-1.2,2.3-0.9,5.6,2.5,4c1.5-0.7,0.2-2.8-1.3-2.2
				c2.4-1.1,4.8-8.1,6.6-10.8c2.6-3.9,7.8-10.4,13.4-8.2c5.2,2,2.5,8.2,0,11c-1.7,1.8-3.8,3.2-5.6,4.8c-1,0.9-2,1.8-2.8,2.8
				c-0.4,0.5-2.7,3.5-0.2,1.6c1.9-1.4,3.5-3.8,5.4-5.4c3.9-3.2,12.2-11.3,3.5-14.6C56,27.9,48.8,45.4,45,51
				C44.1,52.3,46.2,53.6,47.1,52.3z"/>
		</g>
	</g>
	<g>
		<path class="st0" d="M51.7,57.6c-1.5,2.1-4.1,5.2-6.9,3.4c-2.4-1.6,1.2-4.1-0.6-6.1c-0.4-0.4-1-0.4-1.4,0.1
			c-2,2.9-2.4,7.1,1.4,8.5c3.9,1.5,6.7-2.3,8.6-5.1C53.4,57.7,52.2,56.9,51.7,57.6z"/>
		<g>
			<path class="st0" d="M50.6,57c-0.8,1-1.8,2.4-3,3c-0.7,0.3-2.1,0.6-2.4-0.4c-0.1-0.4,0.2-0.9,0.3-1.3c0.5-1.5,0.7-3.3-0.7-4.4
				c-3.7-2.7-5.2,5.4-4.3,7.7c1.7,4.3,7,4.2,10,1.6c1.2-1,3.7-3.4,3.7-5.1c0-1.9-2.1-2.3-3.4-1.3c-1.3,1,0.5,2.8,1.8,1.8
				c-0.4-0.1-0.8-0.2-1.1-0.3c-0.1,0.1-0.2,0.3-0.3,0.4c-0.4,0.3-0.6,0.9-0.9,1.2c-0.5,0.5-0.9,1.1-1.5,1.5
				c-1.5,1.2-3.5,1.8-5.1,0.4c-1.2-1-1.2-2.5-0.9-3.9c0.1-0.3,0.2-0.7,0.4-1c0.1-0.2,0.4-1.1,0.4-0.7c0,0.6-0.4,1.2-0.5,1.8
				c-0.7,2.4,0.4,4.4,3,4.8c3,0.4,5.2-2.4,6.8-4.5C53.8,57,51.6,55.7,50.6,57z"/>
		</g>
	</g>
	<g>
		<path class="st0" d="M147.1,22.4c5.1,2.7,10.4,5.1,15.6,7.5c5.3,2.5,20.1,11.8,8.5,17.9c-0.7,0.4-0.4,1.6,0.4,1.4
			c6.2-1.6,7.3-8.8,3.9-13.7c-2.2-3.3-5.8-5.2-9.2-6.8c-6.1-2.9-12.3-5.6-18.5-8C146.6,20.2,146,21.9,147.1,22.4z"/>
		<g>
			<path class="st0" d="M146.4,23.5c6.1,3.1,12.6,5.6,18.5,9c3.3,1.9,10.1,5.9,9.3,10.6c-0.3,1.9-6.7,4.4-4,7c2.1,1.9,6-1.7,7-3.3
				c5.9-9.2-5-16.6-12-19.9c-3.3-1.6-6.7-3.1-10.1-4.5c-2.1-0.9-5.1-2.9-7.4-2.9c-2.4,0-3,2.2-1.5,3.9c1.1,1.2,2.8-0.6,1.8-1.8
				c1.7,1.9,5.4,2.7,7.6,3.7c2.5,1.1,5.1,2.2,7.6,3.4c4.2,1.9,9.1,3.9,11.6,8.1c1.2,2,1.9,4.9,1.1,7.2c-0.5,1.5-2.1,2.2-2.6,3.4
				c-0.5,1.4,0,0.7,0.8,0.3c1.6-0.9,2.6-3,2.8-4.7c0.3-4.4-4-7.9-7.1-10.2c-6.6-4.8-14.7-7.5-21.9-11.2
				C146.3,20.6,145,22.8,146.4,23.5z"/>
		</g>
	</g>
	<g>
		<path class="st0" d="M170.3,47.5c-3.7-0.6-4.8-4.5-7.4-6.6c-1.4-1.2-3.1-1.8-4.8-2.2c-2.6-0.6-5.4-0.4-8-1.1
			c-6.1-1.6-6.5-5.6-8.8-10.5c-0.4-0.9-1.6-0.4-1.5,0.5c0.5,6.6,4.3,11.4,10.7,12.5c5.6,0.9,9.5,0.7,13.8,5.2
			c1.9,1.9,3.2,3.4,5.9,3.7C171.1,49.3,171.3,47.7,170.3,47.5z"/>
		<g>
			<path class="st0" d="M170.6,46.3c-4.1-1.1-5.5-6-9.4-7.8c-4.6-2.1-10.9-0.4-14.8-4c-2.1-1.9-2.5-7.9-5.2-8.8
				c-1.6-0.5-2.5,0.6-2.8,2c-0.6,2.8,1.7,7.2,3.5,9.2c2.3,2.7,5.5,4,8.9,4.6c2.2,0.4,4.5,0.5,6.6,1.2c3.1,0.9,4.9,2.8,7.2,4.9
				c1.9,1.7,4.3,3.4,6.8,2.3c0.4-0.2,0.6-0.7,0.6-1.1c0.1-1.2,0-1.4-0.9-2.2c-1.2-1-3,0.8-1.8,1.8c-5.3-4.4-8.4-7.8-15.7-8.9
				c-4.1-0.6-7.9-1.3-10.5-5c-0.9-1.4-1.2-2.9-1.9-4.3c-0.5-1.1,0.8,2.4,0.8,2.3c2.3,4.8,6,6.4,11.1,7c5.3,0.7,8,1.4,11.5,5.5
				c1.6,1.9,2.9,3.1,5.2,3.7C171.5,49.2,172.2,46.7,170.6,46.3z"/>
		</g>
	</g>
	<g>
		<path class="st0" d="M198.3,101.7c1.4-4.4,4.4-5.3,9-2.9c1.2,1.6,2.1,3.5,2.5,5.5c0.6,2.4,0.6,4.9,0.3,7.3
			c-0.8,5.7-5.7,15.3-12.8,11.7c-1.1-0.6-1.8,1.1-0.9,1.8c9.4,7.9,16.9-10.7,16.4-17.7c-0.3-4.3-2.2-10.7-6.7-12.4
			c-4.5-1.7-7.9,2.1-9.6,5.9C195.9,102.2,197.7,102.8,198.3,101.7z"/>
		<g>
			<path class="st0" d="M199.5,102c2.1-5.2,7.2-3.1,8.7,1.2c1,2.9,1.1,6.1,0.5,9.1c-0.6,3-2,6.5-4.3,8.6c-2.6,2.4-3.8,1.1-6.8,1.2
				c-0.6,0-1.1-0.2-1.7,0.1c-0.9,0.5-1.3,1.6-1.1,2.6c0.6,3.2,6,3.9,8.5,3.1c3.9-1.3,6.5-5.6,8-9.1c3.3-7.3,4.7-21.1-4.7-24.9
				c-4.4-1.8-10.3,1.7-11.3,6.4c-0.6,2.7,1.8,4.1,3.8,2.2c1.2-1.1-0.6-2.8-1.8-1.8c1.1-1,2.8-3.8,4-4.2c2.8-1,5.6,0,7.3,2.2
				c1.7,2.3,2.7,5.7,2.8,8.6c0.2,3.8-1.1,7.8-2.7,11.1c-2.1,4.2-5,8.1-10,6.7c-2.3-0.6,1.4,0.1,2.1,0.1c1.6-0.1,3-0.8,4.3-1.7
				c6.4-4.8,8.1-15.6,4.9-22.5c-2.9-6.5-10.4-6.2-13,0.3C196.5,102.8,198.9,103.5,199.5,102z"/>
		</g>
	</g>
	<g>
		<path class="st0" d="M195.8,116.4c-0.3-1.7-0.3-3.4,0.1-5.1c0.3-1.4,1.1-2.7,1.3-4.1c0.1-0.7-0.7-1.1-1.2-0.6
			c-2.5,2.2-2.4,7.2-1.8,10.2C194.4,117.8,196,117.5,195.8,116.4z"/>
		<g>
			<path class="st0" d="M197.1,116.4c-0.3-2.3-0.2-4.4,0.6-6.5c0.4-1.2,1.3-2.9,0.3-4.1c-2-2.5-4.3,1.4-4.8,3.1
				c-0.8,2.4-1,5.9-0.1,8.3C193.9,119.5,196.9,118.7,197.1,116.4c0.1-1.6-2.4-1.6-2.5,0c0.7-0.1,0.9-0.4,0.7-0.9
				c-0.1-0.4-0.1-0.8-0.1-1.2c0-0.7-0.1-1.4,0-2.2c0-0.6,0.1-1.2,0.2-1.8c0.2-0.7,0.7-1.4,0.8-2.1c0.6-0.5,0.5-0.7-0.3-0.7
				c-0.1,0.5-0.3,0.9-0.5,1.4c-0.2,0.7-0.5,1.4-0.7,2.1c-0.4,1.8-0.4,3.6-0.1,5.4C194.8,118,197.3,118,197.1,116.4z"/>
		</g>
	</g>
	<g>
		<path class="st0" d="M118,206.7c6.9-0.3,12.2,3.4,19.2,1.8c4.7-1.1,10.6-3.1,14.2-6.4c4-3.7,4.6-10-0.8-12.5
			c-0.9-0.4-1.3,1-0.5,1.4c7.9,4-2.5,10.9-6.3,12.5c-3.1,1.3-6.3,2.7-9.6,3c-5.9,0.5-10.9-3.2-16.5-1.6
			C116.6,205.3,116.9,206.8,118,206.7z"/>
		<g>
			<path class="st0" d="M118,208c6,0,11.7,2.8,17.8,2c5.2-0.6,11.2-2.8,15.3-6c2.8-2.2,5-5.5,4.6-9.3c-0.3-2.7-2.7-6.6-5.8-6.2
				c-0.6,0.1-1,0.3-1.2,0.9c-0.4,1.2-0.2,1.5,0.5,2.5c0.8,1.2,2.3,1.1,2.5,2.7c0.2,1.3-1.6,3-2.4,3.8c-3.8,3.7-10.1,6.4-15.3,6.8
				c-4.7,0.4-12.2-4-16.7-1.4c-2,1.1-2.1,3.1,0,4.1c1.5,0.6,2.7-1.5,1.3-2.2c2.2,1,5.9,0.6,8.4,1.2c1.6,0.4,3.2,0.8,4.9,0.9
				c4.3,0.3,8.6-1.3,12.5-3.1c3.6-1.6,9.2-4.8,9.9-9.2c0.2-1.1-0.5-4.9-2.2-4.7c-0.8,0.1,0.4,2.1,0.5,2.3c0.6,2.1,1.2,3.3,0.1,5.5
				c-1,2.2-3.1,3.7-5.2,4.9c-4.2,2.5-10.3,4.5-15.2,4.2c-4.8-0.3-9.3-2.1-14.2-2.1C116.4,205.5,116.4,208,118,208z"/>
		</g>
	</g>
	<g>
		<path class="st0" d="M145.6,188.6c-5.1,2.7-10.6,4.6-16.1,6.3c-3.2,1-6.7,1.6-9.5,3.4c-3.4,2.1-6.2,6.6-1,8.4
			c1,0.4,1.9-1.2,0.9-1.8c-5.3-2.9,5.9-6.5,6.6-6.8c1.8-0.5,3.7-1,5.5-1.6c5-1.7,9.5-4.1,14.1-6.6
			C146.9,189.5,146.3,188.2,145.6,188.6z"/>
		<g>
			<path class="st0" d="M144.9,187.5c-5.5,2.8-11.4,4.9-17.4,6.6c-3.9,1.1-8.3,2.1-11,5.4c-1.3,1.6-2.3,3.8-1.3,5.8
				c0.8,1.6,3.6,3.5,5.4,2.2c2.1-1.6-0.3-3,0-4.6c0.5-2.3,4.9-3.2,7.1-3.8c5.3-1.6,10.3-3.5,15.2-6.1c2.1-1.1,5.7-2.1,4.4-5
				c-0.2-0.4-0.7-0.6-1.1-0.6c-0.2,0-0.5,0-0.7-0.1c-1.6-0.1-1.6,2.4,0,2.5c-3.8-0.3-8.5,3.5-12.2,4.8c-2.7,1-5.6,1.6-8.3,2.6
				c-2.4,0.8-6.6,2.1-7.6,4.7c-0.4,1.1-0.2,1.7,0.3,2.7c1.4,2.9,0.8-4.9,0.1-2.9c0.8-2.5,4.9-3.7,7-4.4c7.2-2.4,14.4-4.3,21.2-7.8
				C147.6,188.9,146.4,186.8,144.9,187.5z"/>
		</g>
	</g>
	<g>
		<path class="st0" d="M178,178.2c2.7,0.8,6.1-0.1,7.3-3c0.3-0.8-0.6-1.3-1.2-0.8c-1.8,1.3-3.4,2.4-5.7,2.2
			C177.5,176.6,177.1,178,178,178.2z"/>
		<g>
			<path class="st0" d="M177.7,179.4c2.2,0.6,4.7,0.3,6.6-1c1.4-1,3.6-3.9,1.2-5.2c-1.1-0.6-1.9,0-2.8,0.6c-1.3,0.9-2.5,1.4-4.1,1.5
				c-1,0-1.9,0.4-2.3,1.5c-0.3,1,0.1,2,1,2.5c1.4,0.7,2.7-1.5,1.3-2.2c-0.1,0.2-0.2,0.5-0.3,0.7c0.2,0,0.3,0,0.5,0
				c0.3,0.1,0.8,0,1.1-0.1c0.6-0.1,1.1-0.2,1.6-0.4c0.6-0.2,1.1-0.5,1.6-0.8c0.3-0.2,0.5-0.3,0.8-0.5c0.4-0.3,1-0.4,0.4-0.8
				c-0.5-0.4-0.4-0.1-0.7,0.3c-0.2,0.2-0.3,0.4-0.5,0.6c-0.4,0.4-0.9,0.7-1.5,0.9c-1.1,0.4-2.3,0.3-3.4,0.1
				C176.8,176.6,176.1,179.1,177.7,179.4z"/>
		</g>
	</g>
	<g>
		<path class="st0" d="M48.3,180.8c2.3,6.1,9.4,16.2,16.7,15.9c2.9-0.1,5.1-2,5.3-4.9c0.3-3.6-2.3-6.2-4.8-8.2
			c-0.6-0.5-1.3,0.4-0.8,0.9c1.9,2.1,4.5,4.7,3.6,7.9c-1.2,4.2-6.8,1.5-9-0.2c-4.2-3.3-6.9-7.5-9.6-12
			C49.2,179.2,48,179.8,48.3,180.8z"/>
		<g>
			<path class="st0" d="M47.1,181.1c2.6,6.6,8.1,15,15.6,16.6c8.5,1.7,11.1-7.4,6-12.9c-1-1-4.1-4.3-5.3-1.3c-0.4,1,0.3,1.6,0.8,2.3
				c1.5,2.4,2.6,1.9,1.6,5.2c-0.9,3.1-1.5,2.6-4.1,1.2c-2.5-1.4-4.5-3.6-6.3-5.8c-1.5-1.9-2.9-5.4-4.7-7c-1.8-1.5-3.4-0.8-3.6,1.4
				c-0.2,1.6,2.3,1.6,2.5,0c-0.8,6.8,19.1,22.4,20.1,10.7c0.2-2-0.8-3.8-1.9-5.4c-0.2-0.3-1.1-1.7-1.5-1.8c-1.5-0.2,0.1,1.5,0.2,1.7
				c0.7,1.2,2,2.1,2.4,3.5c0.7,2.6-1.2,5.2-3.8,5.8c-3.5,0.9-7.8-3.3-9.8-5.6c-2.4-2.7-4.4-5.9-5.7-9.3
				C49,179,46.5,179.6,47.1,181.1z"/>
		</g>
	</g>
	<g>
		<path class="st0" d="M49.7,179.2c-1.6-3.4,3.6-2.1,4.4-1.6c0.7,0.4,1.4,0.9,2.1,1.4c1.6,1.1,3.2,2.4,5.2,3c0.8,0.2,1.5-0.7,1-1.4
			c-1.5-1.9-3.8-3.1-5.8-4.4c-1.6-1-3.4-2-5.3-1.8c-2.6,0.3-4.2,3.4-2.7,5.6C48.9,180.8,50,180,49.7,179.2z"/>
		<g>
			<path class="st0" d="M50.9,178.8c-0.7-1.8,3.4,0.4,4,0.7c1.8,1.3,4.1,3.5,6.5,3.7c1.7,0.1,2.8-1.4,2.2-3c-0.8-2-3.7-3.5-5.4-4.5
				c-3.4-2.2-9.6-4.7-11.3,1c-0.4,1.4-0.2,3.9,1.4,4.6c1.5,0.6,2.8-0.8,2.7-2.2c-0.1-1.6-2.6-1.6-2.5,0c0.5-0.7,0.9-1.5,1-2.3
				c0.3-0.3,0.6-0.6,1-0.9c1.6-0.9,3.2,0.1,4.6,0.9c1.4,0.8,2.9,1.7,4.2,2.7c0.6,0.4,1.1,0.9,1.6,1.4c-0.2-0.2-0.3-0.4-0.5-0.6
				c-0.7-0.5-1.5-0.9-2.2-1.4c-1.2-0.8-2.5-1.9-3.8-2.5c-2.6-1.2-7.5-0.9-5.9,3.2C49,181,51.5,180.3,50.9,178.8z"/>
		</g>
	</g>
	<g>
		<path class="st0" d="M221.9,133.6c2.1-3.6,1.6-7.1,0.6-11.1c-1.7-6.8-2.3-12.8-2.3-19.8c0-0.7-1.2-1.2-1.4-0.3
			c-0.9,4.1-0.8,8.2-0.3,12.3c0.8,6,4.1,12,1.7,18C219.8,133.7,221.3,134.5,221.9,133.6z"/>
		<g>
			<path class="st0" d="M223,134.2c3-6.3,0.5-11.8-0.6-18.3c-0.4-2.5-0.7-5.1-0.8-7.6c-0.1-1.6,0.4-4.1-0.2-5.6
				c-0.4-1.1-0.6-1.6-1.8-2c-0.4-0.1-0.9,0-1.2,0.3c-1.8,1.9-1.5,6-1.5,8.4c0,4.5,1.1,8.7,2.1,13c0.8,3.2,0.7,5.9,0.3,9.1
				c-0.1,0.9-0.6,1.6-0.1,2.5c0.8,1.4,2.1,1.3,3.3,0.6c1.4-0.8,0.2-2.9-1.3-2.2c2.3-1.3,0.8-8.1,0.3-10c-0.5-2.2-1.2-4.3-1.6-6.6
				c-0.6-3.1-0.2-6.2-0.5-9.3c-0.1-0.8,0.1-3.1-0.5-1.2c-0.3,1,0.1,2.6,0.2,3.6c0.1,1.9,0.3,3.8,0.6,5.6c0.8,6,3.9,12.4,1.1,18.2
				C220.1,134.4,222.3,135.7,223,134.2z"/>
		</g>
	</g>
	<g>
		<path class="st0" d="M219.4,96.1c-0.2-1.9-0.4-3.8-0.8-5.7c-0.2-0.8-1.3-0.6-1.2,0.2c0.1,1.9,0.4,3.8,0.6,5.7
			C218.1,97.3,219.5,97,219.4,96.1z"/>
		<g>
			<path class="st0" d="M220.6,96.1c-0.1-1.2-0.3-2.5-0.4-3.7c-0.1-1-0.1-2.4-0.8-3.2c-0.6-0.6-1.4-0.7-2.1-0.4
				c-0.9,0.4-1.1,1.3-1,2.2c0.1,1.2,0.2,2.5,0.4,3.7c0.1,0.9,0,2.1,0.7,2.8C218.6,98.9,220.6,97.7,220.6,96.1c0-1.6-2.5-1.6-2.5,0
				c0.9,0.2,1.2,0,1-0.6c0-0.2-0.1-0.4-0.1-0.7c-0.1-0.4-0.1-0.9-0.2-1.3c-0.1-0.5-0.1-1-0.2-1.5c0-0.3,0.1-1.1-0.1-1.3
				c-1-0.3-1.4-0.2-1.2,0.3c0,0.2,0.1,0.4,0.1,0.7c0.1,0.5,0.1,0.9,0.2,1.4c0.1,1,0.2,2,0.4,3.1C218.3,97.7,220.8,97.7,220.6,96.1z"
				/>
		</g>
	</g>
	<g>
		<path class="st0" d="M72.6,214.2c2.9,0.3,5.8,0.6,8.6,1.4c2.5,0.7,4.9,1.9,7.5,2.5c0.9,0.2,1.5-0.8,0.7-1.4
			c-4.2-3.4-11.4-4.6-16.6-4.4C71.6,212.3,71.4,214,72.6,214.2z"/>
		<g>
			<path class="st0" d="M72.6,215.4c3.6,0.4,7,0.8,10.4,2c1.8,0.6,4.8,2.6,6.7,1.7c3.7-1.7-1.4-4.8-2.9-5.5
				c-3.9-1.8-8.9-2.9-13.2-2.6c-1.2,0.1-2.6,0.2-3,1.6c-0.4,1.2,0.2,2.2,1.3,2.7c1.5,0.6,2.7-1.5,1.3-2.2c2.2,1,5.4,0.6,7.9,1.2
				c1,0.2,2,0.5,2.9,0.8c0.2,0.1,3.8,2.1,4,2c0.6-0.2-3-1.7-3.3-1.8c-1.1-0.4-2.1-0.8-3.2-1.1c-2.9-0.8-6-1.1-8.9-1.4
				C71,212.7,71,215.2,72.6,215.4z"/>
		</g>
	</g>
	<g>
		<path class="st0" d="M80.3,212.1c1.5-0.2,2.7,0.3,4.1,0.4c0.6,0,1.2-0.8,0.7-1.3c-1.4-1.3-3.3-1.4-5.1-1
			C78.8,210.5,79.1,212.3,80.3,212.1z"/>
		<g>
			<path class="st0" d="M80.3,213.4c1.8-0.1,4.7,1.3,5.9-0.6c1.3-2-1.2-3.5-2.9-3.9c-1.5-0.3-4.1-0.4-5,1.1
				C77.4,211.6,78.6,213.4,80.3,213.4c1.6,0,1.6-2.5,0-2.5c-0.2,0-0.1,0.1,0.1,0.2c0.1,0.1,0.1,0.2,0,0.3c-0.2,0.2-0.2,0.2,0.2,0.1
				c0.2,0,0.4-0.1,0.6-0.1c0.7-0.1,1.5,0,2.2,0.2c0.1,0.1,0.3,0.1,0.4,0.2c0.3,0.3,0.6,0.2,0.7-0.5c0-0.1-1.2-0.2-1.4-0.2
				c-0.9-0.2-1.8-0.3-2.7-0.2C78.7,211,78.7,213.5,80.3,213.4z"/>
		</g>
	</g>
	<g>
		<path class="st0" d="M15.8,110.9c0.2-5,1.3-9.7,1.7-14.6c0.1-1-1.2-1.1-1.5-0.4c-2.2,4.5-2.5,10.1-2.1,15.1
			C14,112.1,15.8,112,15.8,110.9z"/>
		<g>
			<path class="st0" d="M17.1,110.9c0.2-3.3,0.7-6.5,1.1-9.8c0.2-1.7,1.2-4.5,0.3-6c-2-3.1-4.3,1.7-4.7,3.2c-0.7,2.3-1.1,4.6-1.2,7
				c-0.1,1.9-0.4,4.3,0.2,6.1c0.7,2.3,3.6,2.1,4.3-0.1c0.5-1.5-1.9-2.2-2.4-0.7c0.5-0.3,0.7-0.8,0.4-1.5c0-0.5,0-1,0-1.4
				c0-1,0-1.9,0.1-2.9c0.1-1.3,0.3-2.7,0.6-4c0.2-0.8,0.8-2,0.8-2.8c-0.1-2.2-0.8,3.4-0.7,2.5c-0.2,1.1-0.3,2.2-0.5,3.4
				c-0.3,2.4-0.6,4.7-0.7,7.1C14.5,112.5,17,112.5,17.1,110.9z"/>
		</g>
	</g>
	<g>
		<path class="st0" d="M144.8,17.7c-6.5-0.3-12.5,8-7.6,13.7c0.5,0.5,1.5,0.1,1.3-0.6c-0.6-2.6-1.2-5.1,0.2-7.5
			c1.3-2.3,3.7-3.4,6.2-3.7C145.9,19.5,145.9,17.8,144.8,17.7z"/>
		<g>
			<path class="st0" d="M144.8,16.5c-4.1,0-7.8,2.4-9.6,6.1c-1.3,2.7-1.8,8.7,1.8,10.2c1.2,0.5,2.4-0.2,2.7-1.4
				c0.3-1.3-0.6-3-0.6-4.3c0-2,0.8-3.8,2.4-4.9c1.4-1,4.4-0.7,5.2-2.5c0.6-1.4-0.3-2.6-1.5-3c-1.5-0.5-2.2,1.9-0.7,2.4
				c0.3-0.5,0.2-0.7-0.3-0.5c-0.4,0-0.7,0.1-1.1,0.2c-0.5,0.1-1,0.3-1.5,0.6c-1,0.5-2,1.1-2.8,2c-1.8,1.9-2.4,4.5-2,7.1
				c0,0.3,0.2,2.6,0.5,1.6c0.2-0.7-0.3-1.2-0.5-1.9c-0.4-1.6,0.1-3.3,0.9-4.7c1.5-2.6,4.2-4.3,7.2-4.3
				C146.5,19,146.5,16.5,144.8,16.5z"/>
		</g>
	</g>
	<g>
		<path class="st0" d="M60.4,29c2-0.3,3.9-0.4,5.8,0.2c1.6,0.5,2.9,1.7,4.6,2.1c0.7,0.2,1.4-0.4,1.1-1.2c-0.9-1.9-3.4-2.8-5.3-3.2
			c-2.3-0.5-4.5-0.4-6.7,0.3C58.8,27.6,59.4,29.2,60.4,29z"/>
		<g>
			<path class="st0" d="M60.7,30.2c2.8-0.4,5,0,7.5,1.4c1.1,0.6,2.5,1.4,3.7,0.8c3.2-1.4-0.3-4.8-2-5.6c-3-1.4-7.4-2.2-10.5-0.7
				c-2.2,1.1-1.2,3.9,1,4.1c1.6,0.2,1.6-2.3,0-2.5c0.4,0.6,0.9,0.6,1.4,0.3c0.7-0.1,1.4-0.2,2.2-0.2c0.9,0,1.9,0.2,2.8,0.4
				c0.8,0.2,1.7,0.5,2.4,1c0.8,0.5,1.6,1.1,0.3,0.1c-2.8-1.9-6.2-2.1-9.4-1.6C58.4,28.1,59.1,30.5,60.7,30.2z"/>
		</g>
	</g>
	<g>
		<path class="st0" d="M40.3,65.7c1.1,1.4,3,2.2,4.7,1.3c0.6-0.3,0.5-1.4-0.2-1.4c-1.2,0-2.2,0-3.1-1C40.9,63.7,39.6,64.8,40.3,65.7
			z"/>
		<g>
			<path class="st0" d="M39.4,66.6c1.3,1.4,3.2,2.4,5.1,1.9c0.9-0.2,1.7-0.7,2-1.6c0.3-0.8,0-1.7-0.7-2.2c-0.7-0.6-1.6-0.2-2.5-0.5
				c-0.8-0.2-1.2-1.1-2.1-1.2c-1.8-0.3-3.1,1.8-2.1,3.3c0.9,1.3,3.1,0.1,2.2-1.3c0,0-0.1,0.3-0.1,0.3c-0.3,0-0.5-0.1-0.4,0.1
				c0.1,0.3,0.7,0.6,1,0.8c0.7,0.4,1.5,0.5,2.3,0.5c0.1,0,0.5,0,0.5,0c-0.2-0.2-0.4-0.4-0.6-0.6c0.1-0.1,0.2-0.2,0.2-0.3
				c0.1,0.1-1,0.2-1.1,0.2c-0.9-0.1-1.6-0.7-2.1-1.3C40.1,63.6,38.4,65.4,39.4,66.6z"/>
		</g>
	</g>
	<g>
		<path class="st0" d="M22.7,142.4c-2.3-8.5-4.1-16,3.8-21.9c0.6-0.5,0.1-1.5-0.6-1.4c-10.3,2.2-7.2,17-4.6,23.8
			C21.7,143.6,23,143.2,22.7,142.4z"/>
		<g>
			<path class="st0" d="M23.9,142.1c-1.2-4.3-2.6-9.1-1.6-13.6c0.6-2.6,2.1-4.4,3.9-6.2c0.6-0.7,1.9-1.3,1.8-2.4
				c-0.3-4.9-7.4,0.3-8.6,2.1c-2.9,4.5-2.2,10.7-1.1,15.7c0.4,1.7,0.8,5.2,2.3,6.3c1.4,1.1,2.7,0.4,3.2-1.2c0.5-1.5-2-2.2-2.4-0.7
				c0.7,0,0.9-0.2,0.6-0.7c-0.1-0.4-0.3-0.8-0.4-1.2c-0.1-0.8-0.6-1.9-0.8-2.7c-0.5-1.9-0.8-3.8-0.9-5.7c-0.1-2.1-0.1-4.4,0.6-6.5
				c0.3-1,0.8-1.9,1.5-2.7c0.4-0.6,1-1.1,1.6-1.4c1.6-0.5,2-0.7,1.1-0.7c0,0.1-1.9,1.5-2.3,2c-0.6,0.7-1.1,1.5-1.5,2.3
				c-0.8,1.5-1.3,3.2-1.4,4.9c-0.5,4.4,0.8,8.8,1.9,13C21.9,144.3,24.4,143.6,23.9,142.1z"/>
		</g>
	</g>
	<g>
		<path class="st0" d="M23.4,147.8c2,6.7,10.6,11.5,16.9,7.5c1-0.6,0.3-2.2-0.8-1.7c-5.8,2.2-12.4,0.1-14.6-6.2
			C24.6,146.5,23.2,146.9,23.4,147.8z"/>
		<g>
			<path class="st0" d="M22.2,148.1c1.5,4.5,5.1,8.1,9.7,9.4c2.4,0.7,10.8,0.9,10.1-3.4c-0.2-1.5-1.5-1.9-2.9-1.8
				c-3.4,0.4-5.9,1.4-9.2-0.5c-1.4-0.8-2.5-2-3.3-3.5c-0.4-0.8-0.7-2.1-1.6-2.5c-1.3-0.7-2.7,0.3-2.9,1.6c-0.2,1.6,2.2,2.3,2.4,0.7
				c-0.3,1.8-0.9-1-0.1,1.5c0.2,0.5,0.7,1.2,1.1,1.6c0.8,1,1.7,1.9,2.8,2.6c2.3,1.4,5.1,2,7.7,1.8c0.5,0,1.1-0.1,1.6-0.2
				c0.3-0.1,1.7-0.7,1.2-0.7c-0.7,0-2.6,0.8-3.4,0.8c-1,0-2-0.1-3-0.4c-3.7-1.1-6.7-4-7.9-7.6C24.1,146,21.7,146.6,22.2,148.1z"/>
		</g>
	</g>
	<g>
		<path class="st0" d="M132.9,212.2c9.3-0.5,22.9-3.9,24.9-15c0.1-0.8-1-1.2-1.4-0.5c-2.4,4.1-4.9,7.6-9.2,9.9
			c-4.5,2.4-9.7,3.2-14.7,3.9C131.4,210.5,131.8,212.3,132.9,212.2z"/>
		<g>
			<path class="st0" d="M132.9,213.4c6.5-0.4,13.4-1.7,18.9-5.4c2.3-1.6,10.3-9.3,6.6-12.4c-1.5-1.2-2.6,0.1-3.4,1.1
				c-1.7,2.1-2.8,4.4-4.8,6.3c-2.7,2.4-6.1,3.8-9.5,4.7c-2.2,0.6-8.5,0.2-9.7,2.4c-0.9,1.5,0.3,2.8,1.7,3.3c1.5,0.5,2.2-1.9,0.7-2.4
				c4.2,1.5,11.7-1.6,15.4-3.8c1.9-1.1,9.2-6.8,7.8-9.1c0.8,1.3-3.1,5.5-3.8,6.2c-1.6,1.5-3.6,2.7-5.6,3.6c-4.4,2-9.3,2.8-14,3.1
				C131.3,211,131.3,213.5,132.9,213.4z"/>
		</g>
	</g>
	<g>
		<path class="st0" d="M143,187.9c1.7-0.4,3.3-0.4,5.1-0.3c1.4,0.1,2.8,0.5,4.2,0.4c0.7,0,0.8-1.1,0.3-1.5c-2.7-2-6.9-1.2-9.9-0.4
			C141.7,186.4,141.9,188.1,143,187.9z"/>
		<g>
			<path class="st0" d="M143.4,189.1c2.3-0.4,4.4-0.3,6.7,0c1.2,0.2,2.7,0.5,3.6-0.5c2.2-2.3-1.8-4.1-3.5-4.4
				c-1.4-0.2-2.8-0.2-4.3,0c-1.3,0.2-3,0.3-4.1,1.1c-1.8,1.2-0.9,3.9,1.3,3.9c1.6,0,1.6-2.5,0-2.5c0.2,0.6,0.6,0.7,1.1,0.5
				c0.4-0.1,0.7-0.2,1.1-0.3c0.7-0.1,1.3-0.2,2-0.3c0.7-0.1,1.4-0.1,2.1,0c0.4,0.1,1.9,0.8,2.2,0.7c0.3-0.6,0-0.8-0.6-0.6
				c-0.4,0-0.7-0.1-1.1-0.1c-0.8-0.1-1.6-0.2-2.5-0.3c-1.6-0.1-3.1,0.1-4.7,0.4C141.1,187,141.8,189.4,143.4,189.1z"/>
		</g>
	</g>
	<g>
		<path class="st0" d="M56.9,154.7c-1.3,1.8-1.1,4.3,0.5,5.8c1.3,1.3,4.2,2,5.3,0.2c0.3-0.4,0.1-1.1-0.4-1.3c-0.9-0.3-1.8,0-2.7-0.4
			c-1.3-0.6-1.6-2.2-1.3-3.5C58.6,154.6,57.5,153.9,56.9,154.7z"/>
		<g>
			<path class="st0" d="M55.8,154.1c-1.6,2.4-1.3,5.6,0.9,7.5c1.7,1.5,4.8,2.2,6.6,0.5c0.9-0.9,1.2-2.2,0.4-3.2
				c-0.5-0.6-1.2-0.7-1.9-0.8c-0.7-0.1-1.7,0.1-2.1-0.6c-0.6-1.1,0.3-2.3-0.4-3.3c-0.8-1.2-2.3-1.2-3.3-0.3
				c-1.1,1.2,0.6,2.9,1.8,1.8c-0.5-0.4-0.8-0.3-0.8,0.1c0,0.2-0.1,0.4-0.1,0.6c0,0.3,0,0.6,0.1,0.9c0.1,0.7,0.4,1.3,0.8,1.9
				c0.5,0.6,1.1,1,1.8,1.2c0.4,0.1,0.9,0.1,1.3,0.1c0.2,0,0.4,0,0.6,0c0.2-0.5,0.2-0.6-0.1-0.3c-0.6,0.1-0.9,0.4-1.6,0.2
				c-0.6-0.1-1.2-0.4-1.6-0.8c-1.3-1.2-1.2-3-0.3-4.3C58.9,154,56.7,152.7,55.8,154.1z"/>
		</g>
	</g>
	<g>
		<path class="st0" d="M91.3,18.6c1-1.5,2.3-2.7,4-3.2c1.6-0.5,3.1,0.1,4.8,0.2c0.7,0,1.2-0.8,0.7-1.4c-3.1-3.8-9.9-0.4-11.2,3.5
			C89.3,18.7,90.7,19.5,91.3,18.6z"/>
		<g>
			<path class="st0" d="M92.4,19.2c1.8-2.7,3.9-2.8,6.9-2.5c1.3,0.1,2.9-0.3,2.9-1.9c0.1-2.9-4.1-3.8-6.2-3.4
				c-2.8,0.4-5.7,2.3-7.1,4.9c-0.6,1.1-0.9,2.4,0.1,3.4c1,0.9,2.2,0.7,3.1-0.1c1.2-1.1-0.6-2.9-1.8-1.8c0.3-0.3,0.6-0.4,0.9-0.7
				c0.3-0.4,0.6-0.8,0.9-1.1c0.6-0.6,1.4-1.1,2.2-1.5c1.1-0.5,4.3-1.4,5.1,0.2c-0.7-1.4-4.3-0.6-5.3-0.2c-1.7,0.7-3,2-4,3.5
				C89.3,19.3,91.5,20.5,92.4,19.2z"/>
		</g>
	</g>
</g>
</svg>
