<?xml version="1.0" encoding="utf-8"?>
<!-- Generator: Adobe Illustrator 22.0.0, SVG Export Plug-In . SVG Version: 6.00 Build 0)  -->
<svg version="1.1" id="Capa_1" xmlns="http://www.w3.org/2000/svg" xmlns:xlink="http://www.w3.org/1999/xlink" x="0px" y="0px"
	 viewBox="0 0 238.1 240.8" style="enable-background:new 0 0 238.1 240.8;" xml:space="preserve">
<style type="text/css">
	.st0{fill:#1DD05D;}
</style>
<g>
	<g>
		<path class="st0" d="M204.1,69.8c0.4,1.3,0.4,2.7,1.1,4c0.3,0.7,1.3,0.3,1.2-0.4c-0.1-1.3-0.5-2.6-0.8-3.8
			C205.2,68.6,203.8,68.8,204.1,69.8z"/>
		<g>
			<path class="st0" d="M202.9,70.1c0.4,1.5,0.4,4.1,2,5c0.7,0.4,1.6,0.3,2.2-0.3c0.7-0.7,0.6-1.5,0.5-2.4c-0.1-1-0.4-1.9-0.6-2.8
				c-0.2-0.7-0.5-1.4-1.2-1.7C204.1,67.2,202.6,68.5,202.9,70.1c0.3,1.6,2.7,0.9,2.4-0.7c0,0.5-0.2,0.7-0.6,0.8
				c-0.2,0-0.4-0.1-0.4-0.4c0.1,0,0.3,1,0.3,1.2c0.1,0.3,0.2,0.6,0.2,0.9c0.1,0.4,0.1,0.9,0.2,1.2c0,0.6,0.4,0.6,1.2,0
				c-0.1-0.2-0.2-0.3-0.2-0.5c-0.1-0.3-0.2-0.6-0.2-0.8c-0.2-0.8-0.3-1.5-0.5-2.3C204.9,67.9,202.4,68.5,202.9,70.1z"/>
		</g>
	</g>
	<g>
		<path class="st0" d="M210.5,69.6c0.1,1.3,0.3,2.8,1.2,3.9c0.5,0.5,1.4,0.1,1.2-0.6c-0.2-1.2-0.8-2.2-0.9-3.3
			C212,68.6,210.5,68.7,210.5,69.6z"/>
		<g>
			<path class="st0" d="M209.3,69.6c0.1,1.7,0.4,3.6,1.6,4.8c1.4,1.4,3.6-0.1,3.3-1.9c-0.1-0.9-0.5-1.7-0.7-2.5
				c-0.2-0.8-0.2-1.5-1-2C211.1,67.1,209.4,68,209.3,69.6c-0.1,1.6,2.4,1.6,2.5,0c0,0.2-0.3,0.6-0.5,0.5c-0.3,0-0.3-0.8-0.4-0.2
				c0,0.2,0.1,0.4,0.1,0.6c0.1,0.7,0.3,1.5,0.6,2.2c0.2,0.4,0,0.1,0.2-0.1c0.2,0,0.5,0,0.7,0c0,0-0.1-0.1-0.1-0.1
				c0-0.2-0.3-0.5-0.4-0.8c-0.2-0.7-0.3-1.4-0.3-2.1C211.7,68,209.2,67.9,209.3,69.6z"/>
		</g>
	</g>
	<g>
		<path class="st0" d="M9.1,114c2.1-15.5,6.6-28.9,11.5-43.6c0.3-1-1-1.8-1.7-0.9C10.2,81.7,6.8,99.2,7.7,114
			C7.7,114.9,9,114.7,9.1,114z"/>
		<g>
			<path class="st0" d="M10.3,114.3c1.8-12.5,5.3-24.6,9.2-36.6c0.7-2.1,4.1-7.9,1.2-9.5c-2.6-1.5-4.3,2.8-5.3,4.5
				c-5,8.6-7.6,18.5-8.6,28.3c-0.3,2.8-0.4,5.7-0.4,8.6c0,1.4-0.4,3.9,0.3,5.2c1,1.6,2.5,1.3,3.5-0.1c1-1.3-1.2-2.5-2.2-1.3
				c1.6-2.2,0.8-7.1,1-10c0.3-3.6,0.8-7.1,1.5-10.6c1.5-7.1,4.1-13.7,7.7-20c1.7-3,0.1,0.2-0.1,0.9c-0.6,1.7-1.1,3.5-1.7,5.2
				c-1.3,4-2.5,7.9-3.7,12c-2.1,7.6-3.8,15.2-5,23C7.6,115.2,10,115.9,10.3,114.3z"/>
		</g>
	</g>
	<g>
		<path class="st0" d="M19.4,71.4c8.3-0.5,8.3-10.5,9.7-16.5c0.2-0.7-0.5-1.5-1.2-1.1c-2.7,1.3-3,4.4-3.4,7.1
			c-0.3,2.4-0.8,4.3-2.6,5.9c-1.1,1.1-2.5,1.9-3.4,3.2C18,70.7,18.7,71.4,19.4,71.4z"/>
		<g>
			<path class="st0" d="M19.4,72.6c4.6-0.5,7.3-3.3,8.8-7.5c0.8-2.3,1.2-4.8,1.6-7.2c0.3-1.6,1.3-4-0.3-5.2
				c-4.3-3.1-5.9,6.7-6.3,8.7c-0.4,2.1-1.2,3.6-2.8,5c-0.9,0.9-2.3,1.6-2.9,2.8c-0.7,1.6,0.1,2.8,1.6,3.3c1.5,0.4,2.2-2,0.7-2.4
				c0.5,0.1,2.6-2.1,3.1-2.5c0.9-0.9,1.7-2,2.1-3.3c0.5-1.4,0.7-2.8,0.9-4.3c0.1-0.9,0.2-1.7,0.5-2.6c0.2-0.7,0.5-1.3,1-1.8
				c0.4-0.7,0.5-0.7,0.3,0.2c0.1,2.2-0.9,5.4-1.5,7.5c-1,3.5-2.8,6.3-6.7,6.8C17.8,70.3,17.8,72.8,19.4,72.6z"/>
		</g>
	</g>
	<g>
		<path class="st0" d="M28,56.8c3.3-4,6.6-8,10-11.9c2.7-3,6-5.6,7.8-9.3c0.4-0.8-0.6-1.5-1.2-1.2c-3.9,1.7-6.7,5.6-9.4,8.8
			c-3.3,3.9-6.2,8-8.7,12.4C25.8,56.8,27.2,57.8,28,56.8z"/>
		<g>
			<path class="st0" d="M28.9,57.7C32,54,35,50.1,38.3,46.5c2.4-2.6,5.1-5,7.2-7.9c2.9-4.1,0.5-6.8-3.8-3.9
				c-5.5,3.7-10,10.3-13.6,15.8c-1,1.5-3.8,4.5-2.9,6.6c0.7,1.5,2.2,1.5,3.4,0.8c1.4-0.8,0.1-3-1.3-2.2c1.3-0.7,14.8-21.3,16.7-19.6
				c0.1,0-15.8,18.4-17,19.8C26.1,57.2,27.8,59,28.9,57.7z"/>
		</g>
	</g>
	<g>
		<path class="st0" d="M69.5,15.1c9.3,1.9,18.4-2.8,27.5-4.3c13.4-2.2,25.8-0.8,39.1,0.2c1.2,0.1,1.7-1.8,0.5-2.1
			c-23.3-6.8-44.3,2-67.2,4.4C68.3,13.3,68.5,14.9,69.5,15.1z"/>
		<g>
			<path class="st0" d="M69.2,16.3c6.8,1.1,13.1-0.5,19.6-2.3c8.3-2.3,16.5-3.3,25-3.2c4,0,8,0.3,12,0.6c2.9,0.2,7.8,1.5,10.6,0.7
				c2.3-0.7,2.8-3.1,0.8-4.4c-2.3-1.6-6.7-1.7-9.4-2.1c-3.6-0.5-7.3-0.7-11-0.6c-7.2,0.1-14.3,1.2-21.3,2.5
				c-8.1,1.5-16.2,3.2-24.4,4.2c-2.4,0.3-5.7,1.9-2.6,4.3c1.2,1,3-0.8,1.8-1.8c0.6,0.5,4.8-0.5,5.7-0.7c2.7-0.4,5.3-0.9,8-1.4
				c5.2-1,10.5-2,15.7-2.9c5.7-0.9,11.4-1.7,17.1-1.8c2.7,0,5.3,0,8,0.3c1.1,0.1,8.7,2.2,9.6,1.7c-1,0.6-4.6-0.3-5.8-0.4
				c-2.8-0.2-5.6-0.4-8.3-0.5c-5.5-0.3-11.1-0.3-16.7,0.1c-11.2,1-22.5,7-33.8,5.2C68.3,13.7,67.6,16.1,69.2,16.3z"/>
		</g>
	</g>
	<g>
		<path class="st0" d="M161.4,19.7c8.1,6.5,17.3,11.3,25.5,17.6c7.6,5.9,12.9,12.8,18.4,20.7c0.5,0.7,1.7,0.1,1.5-0.7
			c-4.6-19.6-28.5-30.8-44.2-39.2C161.4,17.5,160.4,18.9,161.4,19.7z"/>
		<g>
			<path class="st0" d="M160.5,20.6c12.9,10.2,27.6,17.1,38,30.3c1.3,1.7,5.4,10.7,8.7,8.1c2.6-2-1.4-8.5-2.6-10.6
				c-5.6-9.8-15.3-16.7-24.8-22.3c-5-3-10.3-6.3-15.6-8.5c-2.6-1.1-5.3-0.5-3.9,2.8c0.6,1.5,2.8,0.2,2.2-1.3
				c0.6,1.3,3.5,2.2,4.7,2.8c1.9,1,3.7,2,5.6,3c3.7,2,7.4,4.2,10.9,6.5c7.6,5,15.1,11.1,19.3,19.3c0.5,1,1.9,5.3,2.3,5.4
				c-0.3,0-3.5-5-3.9-5.6c-3-3.9-6.1-7.6-9.8-10.9c-8.9-8.1-19.9-13.4-29.3-20.8C161,17.9,159.2,19.6,160.5,20.6z"/>
		</g>
	</g>
	<g>
		<path class="st0" d="M205.1,55.5c-2.4,7.1,4.5,12.5,8.9,16.5c0.6,0.5,1.7,0,1.7-0.8c0-3.2-2.6-4.2-4.5-6.3c-2.7-2.8-3-6-4.3-9.5
			C206.6,54.6,205.3,54.7,205.1,55.5z"/>
		<g>
			<path class="st0" d="M203.9,55.2c-1.4,4.9,0.6,9.1,3.9,12.7c1.4,1.6,6.5,8.1,8.8,4.5c2.5-3.8-4.8-8.1-6.2-10.7
				c-1-1.8-2.7-11.6-6.4-6.8c-1,1.3,1.2,2.5,2.2,1.3c-0.9,1.2,1.9,6.5,2.6,7.7c1.1,1.8,5.3,4.2,5.4,6.2c0,1.1-0.2,0.2-0.8-0.2
				c-0.6-0.4-1.1-1-1.6-1.5c-1-0.9-1.9-1.9-2.8-2.9c-2.4-2.8-3.7-5.9-2.7-9.6C206.7,54.3,204.3,53.6,203.9,55.2z"/>
		</g>
	</g>
	<g>
		<path class="st0" d="M212.7,69.6c3.6,9,7,17.5,8.3,27.2c1,7.5,0.7,15.3,2.7,22.6c0.4,1.3,2.4,1.4,2.5-0.1
			c1.4-16.4-2.4-37.3-11.5-51C213.9,67,212.2,68.4,212.7,69.6z"/>
		<g>
			<path class="st0" d="M211.5,69.9c2.6,6.6,5.3,13.2,7,20.1c1.8,7.4,1.8,15,2.7,22.5c0.3,2.3,0.2,8.9,3.7,9.1
				c3.5,0.2,2.8-5.4,2.8-7.4c0.2-11.6-1.7-23.6-5.8-34.5c-1.4-3.6-3.3-10.3-6.5-12.6c-2.1-1.4-3.9,0.1-3.9,2.4c0,1.6,2.5,1.6,2.5,0
				c0,0.8,2.2,3.4,2.6,4.3c1.1,2.1,2.1,4.3,2.9,6.5c1.3,3.4,2.3,6.9,3.2,10.4c1.9,8.1,2.8,16.5,2.5,24.9c-0.1,2.5-0.2,2.6-1,0
				c-0.8-2.6-0.8-5.7-1-8.4c-0.3-3.9-0.5-7.8-1.1-11.7c-1.4-9.2-4.8-17.8-8.2-26.3C213.3,67.8,210.9,68.4,211.5,69.9z"/>
		</g>
	</g>
	<g>
		<path class="st0" d="M223.2,118.6c1.5,3.6,3,7,3,11c0.1,3.5-1,6.9-1.2,10.4c0,1.1,1.5,1.9,2.2,0.8c3.8-7,3.5-17.6-2-23.6
			C224.3,116.2,222.7,117.3,223.2,118.6z"/>
		<g>
			<path class="st0" d="M222,118.9c2.2,5.3,3.4,9.8,2.5,15.6c-0.3,1.8-1.6,5.5-0.1,7.2c3.4,3.7,5.5-3.8,6-5.9
				c1.2-5.7,0.6-12.1-2.5-17.1c-1.6-2.5-6.1-4.9-5.9-0.1c0.1,1.6,2.6,1.6,2.5,0c0.8,0.7,1.5,1.5,1.9,2.4c0.6,1.1,1,2.2,1.3,3.4
				c0.5,1.6,0.7,3.3,0.8,5c0.1,1.7,0,3.4-0.4,5c-0.2,0.8-1,6.6-1.5,3.6c-0.5-3.2,1.1-6.7,0.7-10c-0.4-3.4-1.7-6.5-3-9.7
				C223.9,116.8,221.4,117.4,222,118.9z"/>
		</g>
	</g>
	<g>
		<path class="st0" d="M222.3,146.7c1.9-1.8,4.1-4.2,5.2-6.6c0.6-1.4-1.2-2.5-2.3-1.6c-2,1.7-3.6,4.6-4.8,6.9
			C220,146.5,221.5,147.5,222.3,146.7z"/>
		<g>
			<path class="st0" d="M223.2,147.6c1.2-1.2,2.4-2.4,3.5-3.8c0.9-1.1,2-2.5,2.2-3.9c0.3-2.3-2.4-3.7-4.2-2.5
				c-2.3,1.5-4.2,4.9-5.2,7.4c-0.9,2.2,1.5,4.4,3.5,3c1.3-0.9,0.1-3-1.3-2.2c0.7-0.4,1.2-2.1,1.7-2.8c0.5-0.8,1.7-3.1,2.6-3.2
				c0.7-0.1-0.1,1-0.3,1.4c-0.4,0.6-0.8,1.3-1.3,1.9c-0.9,1.1-1.9,2.1-2.9,3.1C220.2,147,222,148.7,223.2,147.6z"/>
		</g>
	</g>
	<g>
		<path class="st0" d="M221.5,142.9c-5.2,11.6-8.5,23.9-15,34.9c-5.3,9.1-12.2,16.3-20.1,23.1c-0.8,0.7,0.1,2.2,1,1.6
			c20-10.9,31-37.6,35.8-59C223.6,142.3,222.1,141.7,221.5,142.9z"/>
		<g>
			<path class="st0" d="M220.4,142.2c-7.1,16-11.5,33-23.3,46.5c-2.5,2.8-5.1,5.5-7.9,8.1c-1.2,1.1-4.5,3-4.3,5
				c0.5,4.7,6.5-0.1,7.9-1.1c10.3-7.3,17.5-18.3,22.7-29.7c2.7-5.8,4.9-11.8,6.7-17.9c0.9-3,4.7-10.4,0.5-12.1
				c-0.4-0.2-0.9,0.1-1.2,0.3c-0.3,0.2-0.5,0.4-0.8,0.6c-1.3,1,0.5,2.8,1.8,1.8c-1.4,1.1-1.6,5-2.1,6.7c-0.7,2.5-1.5,5-2.3,7.4
				c-1.8,5.4-4,10.8-6.6,15.9c-4.9,9.7-11.5,18.9-20.5,25.2c-0.8,0.5-2.3,1.1-2.9,1.9c0.3-0.5,2.5-1.8,2.9-2.3
				c2-1.8,3.9-3.7,5.7-5.7c3.8-4,7.2-8.3,10.1-13c7-11.3,10.5-24.3,15.8-36.4C223.2,142,221.1,140.8,220.4,142.2z"/>
		</g>
	</g>
	<g>
		<path class="st0" d="M109.6,231c27.7,5.1,63.1-7.4,80.3-30.6c0.8-1.1-0.7-2.3-1.6-1.5c-25.4,19.9-46.1,29.3-78.5,30.4
			C108.7,229.3,108.5,230.8,109.6,231z"/>
		<g>
			<path class="st0" d="M109.3,232.2c25.6,4.4,54.1-4.2,73.2-21.8c2-1.9,10-8.2,8.7-11.5c-1.9-4.7-9.7,3.6-11.3,4.8
				c-11.7,8.5-24.4,15.6-38.4,19.7c-8.2,2.4-16.7,3.7-25.2,4.4c-1.6,0.1-12.8,0.3-7.3,4.4c1.3,1,2.5-1.2,1.3-2.2
				c2.3,1.8,9.5,0,12.3-0.4c3.1-0.4,6.1-0.8,9.2-1.4c6.9-1.3,13.7-3.3,20.2-5.9c6.2-2.5,12.2-5.5,17.9-9c2-1.2,18.3-11.5,17.9-12.5
				c0.5,0.9-4.9,5.9-5.9,6.8c-2.6,2.5-5.4,4.8-8.4,6.9c-6.2,4.4-12.9,7.9-20,10.5c-13.8,5.1-28.9,7.2-43.4,4.7
				C108.4,229.6,107.7,232,109.3,232.2z"/>
		</g>
	</g>
	<g>
		<path class="st0" d="M8.5,109.9c-4.2,13.9,2.2,27.9-1.1,41.7c-0.3,1.3,1.4,2.5,2.2,1.2c2.9-4.9,2.7-11.1,2.1-16.6
			c-1-8.8-1.2-17.3-1.7-26.1C10,109.2,8.8,109.1,8.5,109.9z"/>
		<g>
			<path class="st0" d="M7.3,109.5c-2.9,10.9-0.2,21.6-0.1,32.5c0,3.1-1,6.2-0.9,9.2c0,0.8,0,1.5,0.4,2.1c1.2,1.7,2.8,1.3,4.1,0
				c2.5-2.7,2.7-8.4,2.6-11.8c0-5.5-1-11.1-1.3-16.6c-0.1-1.8,0.8-21-4.4-16c-1.2,1.1,0.6,2.9,1.8,1.8c-1.7,1.7-0.2,8.1-0.1,10.5
				c0.2,3.4,0.4,6.8,0.7,10.2c0.3,3.1,0.8,6.2,0.8,9.3c0,1.3-1.1,10-1.8,9.4c-0.3-0.3,0.7-7.4,0.7-8.1c0-3.2-0.3-6.4-0.6-9.6
				c-0.7-7.5-1.3-14.9,0.6-22.3C10.2,108.6,7.8,108,7.3,109.5z"/>
		</g>
	</g>
	<g>
		<path class="st0" d="M7.9,151.3c-0.9,2.2-0.2,5,0.5,7.2c0.6,2,1.6,5.2,3.8,5.9c0.7,0.2,1.5-0.2,1.5-1c0.1-2-1.5-3.7-2.2-5.5
			c-0.8-2.2-0.7-4.5-1.5-6.6C9.5,150.2,8.2,150.4,7.9,151.3z"/>
		<g>
			<path class="st0" d="M6.6,151c-1.2,3.6,0.1,8,1.8,11.2c0.9,1.9,4.3,5.3,6.2,2.3c0.7-1.2,0.2-2.8-0.3-3.9
				c-1.1-2.4-1.9-4.3-2.4-6.8c-0.3-1.4-0.4-3.5-1.9-4.2c-1.3-0.6-2.4,0.1-3.1,1.1c-0.9,1.3,1.2,2.6,2.2,1.3
				c-0.3,0.3,0.5,2.4,0.5,2.9c0.1,0.8,0.3,1.7,0.5,2.5c0.3,1.1,2.6,4.5,2.2,5.3c0.1,0.6-0.2,0.6-0.7-0.2c-0.4-0.5-0.7-0.9-0.9-1.5
				c-0.4-0.8-0.7-1.7-0.9-2.5c-0.7-2.2-1.3-4.5-0.6-6.8C9.6,150.1,7.1,149.4,6.6,151z"/>
		</g>
	</g>
	<g>
		<path class="st0" d="M11.2,163c1.9,2.7,4.8,4.1,7,6.6c2.7,3,4.4,6.9,6.6,10.3c3.9,6.1,8.6,11.6,14.5,15.7c0.7,0.5,1.6-0.5,1-1.2
			c-5.7-6.9-11-13.6-15.6-21.4c-3-5.1-6.8-9.6-12.6-11.3C11.3,161.5,10.7,162.4,11.2,163z"/>
		<g>
			<path class="st0" d="M10.3,163.9c1.7,2.1,3.9,3.5,5.8,5.4c2.2,2.1,3.7,4.6,5.2,7.2c2.6,4.6,5.5,8.9,9,12.8c1.8,2,6.3,7.7,9.3,7.5
				c1.8-0.1,2.4-1.5,1.8-3.1c-0.8-1.9-3.4-4.2-4.7-5.8c-2.1-2.7-4.2-5.4-6.1-8.2c-2.9-4.1-5.1-8.7-8.3-12.5c-2-2.4-6.5-6.9-10-6.8
				c-1.8,0.1-2.7,1.1-2.3,2.9c0.4,1.6,2.8,0.9,2.4-0.7c0.2,0.8,4.3,2.6,5.1,3.3c1.4,1.2,2.7,2.6,3.8,4.1c2.1,2.8,3.7,5.9,5.7,8.8
				c1.8,2.8,3.8,5.4,5.8,8.1c1.1,1.4,2.2,2.8,3.3,4.1c0.6,0.7,4.1,4.1,1.4,1.6c-5.2-4.9-9.6-9.9-13.2-16.1c-1.3-2.3-2.6-4.7-4.2-6.7
				c-2.4-2.9-5.6-4.8-8-7.7C11.1,160.9,9.3,162.7,10.3,163.9z"/>
		</g>
	</g>
	<g>
		<path class="st0" d="M50.4,207.3c4.8,6,12,10.1,18.7,13.4c8.8,4.3,19.6,5.1,27.8,10.5c1.6,1,3.2-1.3,1.7-2.5
			c-6.3-4.7-14.4-5.4-21.6-8.1c-9.4-3.6-16.9-9.7-25.6-14.5C50.7,205.6,49.8,206.5,50.4,207.3z"/>
		<g>
			<path class="st0" d="M49.5,208.2c7.7,9,19.1,14.3,30.2,17.6c3.2,0.9,6.4,1.8,9.5,3c2.5,0.9,5.2,3.3,7.8,3.7
				c2.1,0.3,3.9-1.3,3.3-3.5c-1-3.4-8.2-5.2-11.1-6.1c-6.7-2.1-13.2-3.7-19.4-7.1c-3-1.7-5.9-3.5-8.8-5.4c-2.4-1.5-6-4.8-8.9-5.5
				c-2.1-0.5-3.4,0.4-2.9,2.7c0.3,1.6,2.8,0.9,2.4-0.7c0.4,1.6,4,3,5.2,3.8c1.9,1.2,3.9,2.5,5.8,3.7c3.9,2.5,7.9,4.8,12.2,6.6
				c3.5,1.5,7.2,2.4,10.8,3.5c1.6,0.4,11.5,3.9,10.8,4.6c-0.3,0.3-8.7-3.4-9.7-3.8c-4.2-1.4-8.6-2.4-12.8-3.9
				c-8.4-3.1-16.9-8.1-22.8-15C50.2,205.2,48.5,207,49.5,208.2z"/>
		</g>
	</g>
	<g>
		<path class="st0" d="M96.3,229.6c0.9,2.8,3.7,4.6,6.6,4.9c1.3,0.2,2.7,0,4-0.4c2.2-0.7,3.9-2.8,6.3-2.5c0.7,0.1,1.3-0.7,0.9-1.3
			c-1.3-2.4-3.7-1.9-5.7-0.7c-4.2,2.5-7.2,2.1-10.9-1C96.8,227.9,96.1,228.8,96.3,229.6z"/>
		<g>
			<path class="st0" d="M95.1,229.9c1.7,4.1,5.7,6.4,10.2,5.8c1.1-0.1,2.2-0.4,3.2-0.9c1.7-0.8,3.1-1.4,4.9-2c1.3-0.4,2.2-1,2-2.6
				c-0.6-4.3-5.8-2.7-8.2-1.5c-2.4,1.2-4.7,1.5-7.1,0.1c-0.9-0.5-1.8-1.7-2.9-1.7c-1.5,0-2,1-2.1,2.4c-0.1,1.6,2.4,1.6,2.5,0
				c-0.1,1.6,3.6,2.6,4.8,2.8c2.7,0.4,4.3-0.9,6.7-1.7c1-0.8,2-0.9,3.2-0.3c-0.4,0-0.8,0.1-1.3,0.3c-0.8,0.6-2,1-2.9,1.5
				c-3.7,2-8.8,1.3-10.6-2.9C96.9,227.8,94.5,228.4,95.1,229.9z"/>
		</g>
	</g>
	<g>
		<path class="st0" d="M135.3,9.8c5.3,3.9,12.1,1.2,17.8,4.3c4.7,2.5,8,7.8,13.4,8.5c0.7,0.1,1.2-0.9,0.7-1.4
			c-3.5-3.7-8.4-7.8-12.8-10.1c-5.7-3-12.4-2-18.6-2.8C135,8.1,134.7,9.3,135.3,9.8z"/>
		<g>
			<path class="st0" d="M134.7,10.8c3.5,2.2,7,2.3,10.9,2.7c6.3,0.6,9.5,3.7,14.3,7.2c1.6,1.2,10.8,5.6,8.5-0.3
				c-1.2-3-6.6-6.2-9.2-8c-3.3-2.3-6.7-4-10.7-4.6c-2.3-0.4-17.3-3.3-14.3,2.5c0.7,1.4,2.9,0.2,2.2-1.3c0.7,1.3,6.2,0.8,7.4,0.8
				c3.5,0.2,6.9,0.6,10.1,2.1c2.8,1.4,5.4,3.4,7.8,5.4c1.5,1.2,6.8,5.5,1.2,2.3c-3.8-2.2-6.5-5.9-10.7-7.6
				c-5.3-2.1-11.2-0.5-16.2-3.6C134.6,7.8,133.3,10,134.7,10.8z"/>
		</g>
	</g>
	<g>
		<path class="st0" d="M58,24.1c1.8-2.5,3.8-4.8,6.5-6.4c2.6-1.5,5.3-1.6,8.1-2.4c1-0.3,1.5-2,0.2-2.4C66.4,11,58.3,17,56.5,23.2
			C56.2,24.2,57.4,24.9,58,24.1z"/>
		<g>
			<path class="st0" d="M59.1,24.7c2.3-3.1,4.9-5.8,8.7-7c1.9-0.6,5.1-0.4,6.4-2.1c3.1-3.8-3.7-4.5-5.9-4.1
				c-4.6,0.8-8.8,3.9-11.3,7.7c-0.8,1.3-2.3,3.6-1.7,5.2c0.6,1.4,2.1,1.5,3.3,0.8c1.3-0.9,0.1-3.1-1.3-2.2c1.1-0.7,1.6-2.4,2.5-3.5
				c1-1.3,2.3-2.5,3.6-3.4c1.4-0.9,3-1.7,4.6-2.1c0.7-0.2,1.5-0.3,2.2-0.3c1.2,0,1.7,0.1,0.4,0.7c-2.7,1.2-5.6,1.2-8.2,3
				c-2.3,1.6-4,3.8-5.7,6C56,24.7,58.1,26,59.1,24.7z"/>
		</g>
	</g>
	<g>
		<path class="st0" d="M42.7,37.5c4.1-1.7,7.7-5.2,10.8-8.3c2.9-3,6.3-6.2,7.9-10.1c0.4-1-0.9-1.8-1.6-1.2c-3.5,2.7-6.1,6.7-9.2,9.8
			c-2.9,2.9-6.2,5.5-8.7,8.8C41.4,37.1,42.1,37.8,42.7,37.5z"/>
		<g>
			<path class="st0" d="M43.3,38.6c6.2-2.8,11.7-8.5,15.9-13.7c1.2-1.5,4-4.5,3.4-6.7c-0.3-1.3-1.6-1.9-2.9-1.6
				c-2.4,0.6-4.5,3.8-6,5.6c-2.4,2.8-4.9,5.4-7.6,8c-1.1,1.1-9.2,8.3-3.4,8.5c1.6,0.1,1.6-2.4,0-2.5c1.6,0.1,3-2.2,4.3-3.4
				c1.5-1.4,3.1-2.8,4.5-4.3c2.4-2.4,4.8-7,7.8-8.6c0.7-0.4,0.8-1.2-0.1,0.8c-0.5,1-1.4,2-2.1,2.9c-1.4,1.7-2.9,3.2-4.4,4.7
				c-3.2,3.2-6.4,6.3-10.5,8.1C40.6,37.1,41.8,39.3,43.3,38.6z"/>
		</g>
	</g>
	<g>
		<path class="st0" d="M39.7,44.9c3.3-2.6,6.4-5.4,9.5-8.2c2.8-2.5,5.9-4.8,8.3-7.7c0.4-0.5-0.3-1.3-0.8-1c-3.2,2-5.8,4.8-8.6,7.3
			c-3.1,2.8-6.2,5.6-9.2,8.5C38.3,44.4,39.1,45.4,39.7,44.9z"/>
		<g>
			<path class="st0" d="M40.6,45.7c5.4-4.4,11.2-9,16.1-14c0.9-1,2.7-2.4,2-3.9c-0.5-1.1-1.6-1.2-2.6-0.9c-2.5,0.8-5.2,4.1-7,5.8
				c-2.7,2.5-5.4,4.9-8,7.3c-1.1,1-4,2.8-3.5,4.8c0.3,1.3,1.5,1.4,2.6,1.2c1.6-0.3,0.9-2.7-0.7-2.4c1.3-0.2,1.2,0,2.4-0.9
				c0.7-0.5,1.4-1.3,2-1.9c1.5-1.4,3.1-2.8,4.6-4.2c1.3-1.1,2.5-2.3,3.7-3.5c0.6-0.6,1.2-1.1,1.9-1.7c0.2-0.1,3.3-2.6,1.7-2.5
				c-0.7,0-3,3-3.6,3.5c-1.3,1.1-2.6,2.2-3.8,3.3c-3.2,2.7-6.3,5.5-9.5,8.2C37.6,45,39.4,46.7,40.6,45.7z"/>
		</g>
	</g>
	<g>
		<path class="st0" d="M60.1,24.7c0.3-0.8,1-1.1,1.6-1.6c0.6-0.4,0.2-1.3-0.4-1.4c-1.6-0.2-2.6,1.1-2.9,2.6
			C58.3,25.3,59.8,25.6,60.1,24.7z"/>
		<g>
			<path class="st0" d="M61.2,25.3c0.3-0.7,1-0.9,1.5-1.4c0.6-0.6,0.7-1.7,0.2-2.4c-0.9-1.5-3.2-1.1-4.3-0.1c-1,0.9-1.9,2.8-1.1,4.1
				C58.3,26.9,60.5,26.7,61.2,25.3c0.3-0.6,0.2-1.4-0.4-1.7c-0.6-0.3-1.4-0.2-1.7,0.4c-0.1,0.2,0.1,0,0.2-0.1c-0.2,0.1,0,0,0.1,0
				c0.1,0.1,0.2,0.3,0.3,0.4c0.1,0.1-0.1,0.3,0.1-0.1c0.2-0.5,0.3-0.9,0.8-1.2c0.1,0,0.6-0.2,0.6-0.1c0,0.1-0.3-0.2-0.4-0.3
				c0-0.2,0-0.4,0.1-0.5c0.1-0.1,0-0.1-0.1,0c-0.7,0.4-1.4,1-1.7,1.8c-0.3,0.6-0.2,1.3,0.4,1.7C60,26.1,60.9,25.9,61.2,25.3z"/>
		</g>
	</g>
	<g>
		<path class="st0" d="M71,17.5c5.2,0.2,10.9-0.3,15.8-2.3c0.7-0.3,0.3-1.3-0.4-1.2c-5.2,0.9-10,1.9-15.2,2C70.2,16,70,17.4,71,17.5
			z"/>
		<g>
			<path class="st0" d="M71,18.7c5.1,0.1,10.3-0.2,15.1-2c1.9-0.7,3.5-3.5,0.4-4c-2.2-0.3-5.3,0.9-7.5,1.2c-1.4,0.2-2.9,0.4-4.3,0.6
				c-1.2,0.1-2.8-0.1-3.9,0.3c-2.1,0.7-2.2,3.1-0.1,3.9c1.5,0.6,2.2-1.8,0.7-2.4c0.5,0.9,1.3,1.2,2.2,0.8c0.8-0.1,1.6-0.1,2.4-0.2
				c0.9-0.1,1.8-0.2,2.7-0.3c1.3-0.2,7-0.7,6.9-1.7c-0.1-0.9-2.3,0.2-3.1,0.4c-1.3,0.3-2.6,0.6-3.9,0.7c-2.5,0.3-5,0.3-7.5,0.3
				C69.4,16.2,69.4,18.7,71,18.7z"/>
		</g>
	</g>
	<g>
		<path class="st0" d="M112.4,11.1c5.5,0,10.8,0.5,16.3,1.1c0.7,0.1,1-1,0.3-1.2c-5.4-1.5-11.1-1.8-16.6-1.3
			C111.6,9.8,111.6,11.1,112.4,11.1z"/>
		<g>
			<path class="st0" d="M112.4,12.4c2.9,0,5.9,0.1,8.8,0.3c2.2,0.2,5.7,1.3,7.8,0.7c3-0.8,1.1-3.4-0.9-3.9c-2.4-0.6-5-1-7.4-1.1
				c-2.5-0.2-6-0.7-8.4,0.1c-1.8,0.6-2.7,2.8-0.6,3.7c1.5,0.7,2.7-1.5,1.3-2.2c0.2,0.9,0.8,1.2,1.7,0.8c0.4,0,0.8,0,1.2,0
				c1.2,0,2.4,0,3.6,0c1.5,0.1,3,0.2,4.4,0.4c0.9,0.1,3.5,1.2,3.5,0.1c0-1.1-5.8-1.1-6.9-1.2c-2.7-0.2-5.4-0.3-8.2-0.3
				C110.8,9.9,110.8,12.4,112.4,12.4z"/>
		</g>
	</g>
	<g>
		<path class="st0" d="M13.5,99c0.7-2,1.3-3.9,1.3-6c0-0.7-0.9-1.2-1.3-0.5c-1,1.9-1.4,3.9-1.8,6C11.5,99.7,13.2,100,13.5,99z"/>
		<g>
			<path class="st0" d="M14.7,99.3c0.4-1.3,0.8-2.5,1.1-3.9c0.2-1,0.5-2.4,0-3.4c-0.4-0.8-1.2-1.3-2.1-1.2c-1.2,0.2-1.6,1.4-2,2.3
				c-0.5,1.2-0.8,2.4-1,3.6c-0.2,0.9-0.5,2,0,2.9c0.9,1.5,3.2,1.4,3.9-0.2c0.7-1.4-1.4-2.7-2.2-1.3c0.2,0,0.3,0,0.5,0.1
				c0-0.1,0.1-0.3,0.1-0.4c0.2-0.3,0.2-0.9,0.3-1.3c0.1-0.4,0.2-0.9,0.3-1.3c0.1-0.4,0.6-1.2,0.6-1.6c0.3-0.4,0-0.5-0.7-0.3
				c0,0.3,0,0.5-0.1,0.8c-0.1,0.5-0.2,1-0.3,1.4c-0.2,1-0.6,2-0.9,2.9C11.8,100.2,14.2,100.8,14.7,99.3z"/>
		</g>
	</g>
	<g>
		<path class="st0" d="M16.7,86.6c0.7-2.3,1.5-4.5,2.4-6.6c0.9-2.1,2.3-4.2,3-6.4c0.3-0.9-0.8-1.3-1.3-0.7c-3,3.4-4.3,8.9-5.4,13.2
			C15.2,86.9,16.4,87.5,16.7,86.6z"/>
		<g>
			<path class="st0" d="M17.9,86.9c0.8-2.7,1.8-5.4,3.1-7.9c0.8-1.6,2.2-3.6,2.4-5.4c0.1-1.1-0.6-2.1-1.8-2.2
				c-1.5-0.1-2.3,1.3-3,2.4c-2.2,3.3-3.6,7.7-4.3,11.6c-0.4,2.3,2,4.1,3.5,1.8c0.9-1.3-1.2-2.6-2.2-1.3c0.9,0.1,1.4-0.2,1.3-1
				c0.1-0.5,0.3-1,0.4-1.5c0.3-1.1,0.6-2.1,0.9-3.2c0.3-0.9,0.7-1.9,1.1-2.8c0.4-0.9,1.3-1.9,1.5-2.8c-0.3-1.1-0.6-0.8-0.9,0.7
				c-0.3,0.5-0.5,1.1-0.8,1.6c-0.4,0.8-0.8,1.6-1.2,2.4c-1,2.2-1.8,4.6-2.6,6.9C15,87.8,17.4,88.4,17.9,86.9z"/>
		</g>
	</g>
	<g>
		<path class="st0" d="M25.8,71.1c2-1.9,4.5-4.7,4.9-7.6c0.1-0.7-0.9-1-1.2-0.5c-0.8,1.1-1.2,2.4-1.9,3.5c-0.8,1.2-1.7,2.4-2.7,3.4
			C24.2,70.7,25.1,71.8,25.8,71.1z"/>
		<g>
			<path class="st0" d="M26.7,72c2-1.9,4-4.1,4.9-6.7c0.3-1,0.7-2.2-0.1-3.1c-0.6-0.7-1.7-0.9-2.6-0.3c-1.1,0.7-1.5,2.5-2.2,3.6
				c-0.8,1.4-1.9,2.5-2.9,3.8c-1.3,1.8,0.6,4.1,2.6,3c1.4-0.8,0.1-3-1.3-2.2c0.6,0.6,1,0.6,1.3,0c0.2-0.3,0.5-0.6,0.7-0.8
				c0.4-0.5,0.8-1,1.2-1.6c0.4-0.6,0.8-1.3,1.1-2c0.2-0.3,0.3-0.7,0.5-1c0.4-0.4,0.4-0.6-0.1-0.7c-0.4-0.4-0.6-0.3-0.5,0.2
				c-0.1,0.4-0.2,0.8-0.4,1.1c-0.3,0.6-0.7,1.2-1.1,1.8c-0.8,1.2-1.8,2.2-2.9,3.2C23.8,71.4,25.5,73.1,26.7,72z"/>
		</g>
	</g>
	<g>
		<path class="st0" d="M12.2,131c-0.7,4.2-0.5,10.3,0.9,14.2c0.3,0.8,1.5,0.5,1.5-0.3c0.2-2.2-0.3-4.4-0.4-6.6
			c-0.2-2.5-0.1-5-0.5-7.4C13.5,130,12.3,130.2,12.2,131z"/>
		<g>
			<path class="st0" d="M11,130.7c-0.6,4.2-0.6,8.5,0.3,12.6c0.4,1.6,2.1,5.7,4.2,2.8c1.2-1.6,0.2-4.8,0.1-6.6
				c-0.2-2.5-0.2-5-0.4-7.5c-0.1-1.2-0.2-2.5-1.6-2.9c-1-0.3-1.9,0.3-2.4,1.2c-0.7,1.4,1.5,2.7,2.2,1.3c-0.8,0.1-1,0.6-0.6,1.4
				c0,0.7,0.1,1.4,0.1,2.1c0,1.1,0.1,2.1,0.1,3.2c0.1,1.1,0.2,2.2,0.3,3.3c0.1,0.7,0.1,1.5,0.1,2.2c0.6,0.5,0.8,0.5,0.6-0.1
				c-0.1-2-0.8-4-0.9-6.1c-0.1-2.1,0-4.3,0.3-6.4C13.6,129.8,11.2,129.1,11,130.7z"/>
		</g>
	</g>
	<g>
		<path class="st0" d="M184.6,200.5c8.9-6,17.9-15,21.8-25.4c0.3-0.7-0.8-1.3-1.2-0.7c-6.1,9.8-11.9,18.2-21.4,25
			C183.1,200,183.9,201,184.6,200.5z"/>
		<g>
			<path class="st0" d="M185.3,201.6c6-4.1,11.4-8.9,15.8-14.7c1.4-1.8,9.3-11.6,5.6-13.7c-1.1-0.6-1.7-0.1-2.6,0.6
				c-1.4,1.1-2.5,4-3.5,5.5c-1,1.5-2,3-3.1,4.5c-2.5,3.5-5.3,6.7-8.4,9.7c-2.1,2-5.7,3.5-6.8,6.2c-0.2,0.4,0.1,0.9,0.3,1.2
				c0.7,0.8,1,0.9,2,0.8c1.6-0.1,1.6-2.6,0-2.5c2.2-0.2,3.2-1.2,5.1-2.9c1.9-1.7,3.7-3.6,5.5-5.5c3.1-3.6,5.9-7.5,8.5-11.5
				c0.1-0.2,1.8-2.7,1.7-2.7c-0.7-0.7-2.7,3.6-2.8,3.8c-1.4,2.5-3.1,4.8-5,7.1c-3.9,4.7-8.6,8.7-13.6,12.1
				C182.7,200.3,183.9,202.5,185.3,201.6z"/>
		</g>
	</g>
	<g>
		<path class="st0" d="M211.1,166.1c0.7-1.5,1.5-3.1,1.9-4.8c0.2-0.6-0.7-1.2-1.1-0.6c-0.9,1.5-1.4,3.2-2.1,4.9
			C209.5,166.5,210.7,166.9,211.1,166.1z"/>
		<g>
			<path class="st0" d="M212.2,166.7c0.4-1,0.9-2,1.3-3c0.4-0.9,0.9-2.1,0.7-3.1c-0.2-0.8-0.9-1.4-1.7-1.4c-1-0.1-1.6,0.7-2,1.5
				c-0.5,0.9-0.9,1.9-1.2,2.9c-0.3,0.8-0.9,1.8-0.6,2.7C209,168.1,211.3,168.1,212.2,166.7c0.8-1.4-1.3-2.6-2.2-1.3
				c0.6,0.7,1,0.8,1.1,0.1c0-0.1,0.1-0.2,0.1-0.4c0.1-0.4,0.3-0.7,0.4-1.1c0.1-0.4,0.3-0.7,0.4-1.1c0.2-0.4,0.5-0.9,0.6-1.2
				c0.3-0.4,0-0.6-1-0.5c-0.1,0.2-0.1,0.4-0.2,0.6c-0.1,0.4-0.3,0.8-0.4,1.1c-0.3,0.8-0.7,1.6-1,2.4
				C209.4,166.9,211.5,168.2,212.2,166.7z"/>
		</g>
	</g>
	<g>
		<path class="st0" d="M207.2,169.5c-0.1,0.2-0.3,0.3-0.4,0.5c-0.7,0.9,0.6,1.9,1.3,1.2c0.2-0.1,0.3-0.3,0.5-0.4
			C209.8,170,208.2,168.4,207.2,169.5z"/>
		<g>
			<path class="st0" d="M206.4,168.7c-0.4,0.6-1,1.1-1,1.9c0,0.6,0.3,1.2,0.8,1.6c1.2,1,2.6,0.5,3.5-0.5c0.9-0.9,0.7-2.3-0.1-3.1
				C208.6,167.7,207.2,167.7,206.4,168.7c-0.4,0.5-0.5,1.3,0,1.8c0.4,0.4,1.3,0.5,1.8,0c0,0,0.1-0.1,0.1-0.1c0.1-0.1,0.1-0.1,0,0
				c0,0-0.4,0.1-0.2,0.1c0.2,0-0.3,0,0,0c-0.1,0-0.1,0-0.2-0.1c0.1,0.2,0-0.2,0,0c0.1,0.1,0-0.2,0,0c0-0.2,0-0.2,0-0.1
				c0,0.1,0,0.1,0-0.1c0,0,0-0.1,0.1-0.1c-0.1,0.1-0.1,0.1,0,0c0.1-0.1-0.2,0.1-0.2,0.1c-0.1,0-0.2,0.2-0.2,0.2c0,0,0.2,0,0.2-0.1
				c0.1,0,0.2,0,0.1,0c-0.1,0-0.1,0,0.1,0c0.2,0.1,0,0,0,0c0,0.1,0.1,0.2,0.1,0.3c0,0-0.1,0.3-0.1,0.2c0,0,0.3-0.4,0.3-0.4
				c0.4-0.5,0.5-1.2,0-1.8C207.7,168.2,206.8,168.1,206.4,168.7z"/>
		</g>
	</g>
	<g>
		<path class="st0" d="M214.4,155.9c1.2-2,2.4-4.2,3.2-6.5c0.3-0.7-0.7-1.2-1.2-0.6c-1.4,1.9-2.6,4.1-3.5,6.3
			C212.5,156,213.9,156.7,214.4,155.9z"/>
		<g>
			<path class="st0" d="M215.5,156.5c0.8-1.2,1.5-2.5,2.1-3.8c0.5-1,1.2-2.3,1.3-3.4c0.1-2.3-2.6-2.4-3.7-0.9
				c-0.8,1.1-1.5,2.3-2.2,3.5c-0.5,1-1.4,2.3-1.5,3.5c0,2,2.5,2.8,3.7,1.4c1.1-1.2-0.7-3-1.8-1.8c0.5,0.4,0.8,0.4,0.9-0.2
				c0.1-0.2,0.2-0.5,0.3-0.7c0.2-0.5,0.5-0.9,0.7-1.4c0.1-0.3,1.8-2.6,1.8-2.9c-0.6-1.7-1.4,0.8-1.4,0.9c-0.2,0.5-0.4,0.9-0.7,1.4
				c-0.5,1.1-1.1,2.1-1.8,3.1C212.5,156.6,214.6,157.9,215.5,156.5z"/>
		</g>
	</g>
	<g>
		<path class="st0" d="M37.8,194.5c2,3,5.6,4.3,7.9,6.9c2.6,2.8,4.2,6.5,7.4,8.7c0.8,0.5,1.6-0.3,1.3-1.1c-1.3-3.7-4.4-7.5-7.1-10.2
			c-2.4-2.3-5.6-4.2-8.7-5.5C37.8,192.9,37.4,193.9,37.8,194.5z"/>
		<g>
			<path class="st0" d="M36.7,195.1c1.5,2,3.4,3.4,5.5,4.9c2.7,2,4.4,4.6,6.4,7.2c1,1.4,3.2,4.4,5.2,4.3c1.4-0.1,2.1-1.3,1.9-2.6
				c-0.3-2.4-2.3-4.9-3.7-6.7c-1.9-2.5-4.1-4.8-6.7-6.6c-1.6-1.1-9.8-6.5-8.7-0.7c0.3,1.6,2.7,0.9,2.4-0.7c0.3,1.3,2.4,1.8,3.6,2.5
				c1.7,1,3.2,2.3,4.6,3.7c1.4,1.4,2.7,3,3.9,4.7c0.5,0.7,2.7,3.7,0.7,2c-2.2-1.8-3.4-4.9-5.4-6.9c-2.3-2.3-5.4-3.7-7.4-6.3
				C37.9,192.6,35.7,193.8,36.7,195.1z"/>
		</g>
	</g>
	<g>
		<path class="st0" d="M35.9,188.4c0.5,1.8,1.9,3.9,3.5,4.8c0.5,0.3,1.3,0,1.1-0.7c-0.5-1.8-2.1-3.7-3.6-4.6
			C36.5,187.5,35.7,187.8,35.9,188.4z"/>
		<g>
			<path class="st0" d="M34.7,188.7c0.6,1.8,1.6,3.7,3.2,4.9c0.7,0.6,1.5,1.1,2.4,0.8c0.9-0.2,1.4-1,1.4-1.9c0-1.9-1.8-4-3.2-5.1
				c-0.7-0.6-1.4-1.1-2.4-0.9c-0.9,0.2-1.6,1-1.5,1.9c0.2,1.6,2.7,1.6,2.5,0c-0.8,0.3-0.9,0.6-0.4,0.8c0.2,0.1,0.3,0.3,0.5,0.4
				c0.3,0.3,0.7,0.6,0.9,1c0.3,0.4,0.5,0.8,0.7,1.2c0.1,0.2,0.2,0.4,0.3,0.6c0.5-0.1,0.7-0.2,0.6-0.5c0-0.1-0.6-0.5-0.7-0.6
				c-0.3-0.3-0.6-0.6-0.8-1c-0.5-0.7-0.8-1.5-1.1-2.3C36.6,186.5,34.2,187.2,34.7,188.7z"/>
		</g>
	</g>
	<g>
		<path class="st0" d="M31.7,183c0.5,0.6,0.9,1.1,1.6,1.5c0.6,0.3,1.4-0.2,1-0.9c-0.4-0.8-0.9-1.3-1.5-1.8
			C32.1,181.1,31.1,182.3,31.7,183z"/>
		<g>
			<path class="st0" d="M30.8,183.9c0.8,1,2,2.2,3.4,1.9c0.7-0.2,1.2-0.7,1.4-1.4c0.2-0.7-0.1-1.5-0.6-2.1c-0.7-1-1.9-2.4-3.3-1.9
				c-1.3,0.4-2,2.1-1.2,3.2c0.4,0.6,1.1,0.8,1.7,0.4c0.5-0.3,0.8-1.2,0.4-1.7c-0.2-0.2,0,0,0,0.1c0,0.1,0,0.1-0.1,0.2
				c-0.1,0.1-0.1,0.1,0,0c0.1-0.1,0-0.1,0,0c-0.1,0-0.5,0.1-0.5,0c0,0,0,0-0.1,0c0,0,0.1,0.1,0.1,0.1c0.1,0.1,0.2,0.2,0.3,0.3
				c0.2,0.2,0.4,0.4,0.5,0.6c0,0,0.2,0.3,0.2,0.3c-0.1,0,0.1-0.5,0.2-0.6c0.1-0.1,0.1-0.1,0.2-0.1c0.2-0.1,0.5,0.2,0.2,0
				c-0.5-0.3-0.8-0.7-1.2-1.2c-0.4-0.5-1.3-0.4-1.8,0C30.3,182.7,30.4,183.4,30.8,183.9z"/>
		</g>
	</g>
	<g>
		<path class="st0" d="M44.5,195.1c0.6,0.5,1.1,0.7,1.9,0.9c0.6,0.1,1-0.7,0.6-1.2c-0.5-0.6-1-0.9-1.7-1.2
			C44.4,193.2,43.8,194.5,44.5,195.1z"/>
		<g>
			<path class="st0" d="M43.9,196.1c0.9,0.7,2.4,1.5,3.6,0.8c0.6-0.4,0.9-1.1,0.9-1.8c0-0.7-0.5-1.3-1-1.7c-1-0.8-2.4-1.7-3.6-0.8
				c-1,0.8-1.2,2.4-0.2,3.3c0.5,0.4,1.3,0.5,1.8,0c0.5-0.5,0.5-1.3,0-1.8c-0.2-0.2,0,0.1,0,0.1c0,0.2,0,0.2,0,0.1c0-0.1,0-0.1,0,0.1
				c0.2-0.3-0.2,0.2,0,0c-0.1,0.1-0.2,0.2-0.3,0.3c0,0-0.3,0-0.3,0c0,0,0.3,0.2,0.3,0.2c0.2,0.1,0.5,0.3,0.6,0.4
				c0,0,0.3,0.3,0.3,0.3c0,0-0.1-0.2-0.1-0.3c0-0.1,0.1-0.3,0.2-0.3c0,0,0.5-0.2,0.5-0.2c0,0-0.6-0.2-0.6-0.2
				c-0.3-0.1-0.5-0.3-0.8-0.5c-0.5-0.4-1.4-0.1-1.7,0.4C43,195.1,43.3,195.7,43.9,196.1z"/>
		</g>
	</g>
	<g>
		<path class="st0" d="M54.5,207.9c2,1,3.6,2.5,5.5,3.4c0.7,0.4,1.2-0.6,0.8-1.2c-1.2-1.9-3.8-3-5.8-3.7
			C54.1,206.1,53.6,207.5,54.5,207.9z"/>
		<g>
			<path class="st0" d="M53.9,209c1.2,0.6,2.3,1.5,3.5,2.2c0.9,0.6,2.1,1.6,3.3,1.4c0.9-0.1,1.5-0.9,1.6-1.8
				c0.1-1.1-0.7-1.9-1.4-2.6c-0.8-0.8-1.8-1.4-2.8-1.8c-0.9-0.4-2.1-1.1-3.1-1.2C52.6,205,52.2,207.8,53.9,209
				c1.3,0.9,2.6-1.2,1.3-2.2c-0.1,0.3-0.3,0.6-0.4,0.8c0.1,0,0.2,0.1,0.3,0.1c0.2,0.1,0.5,0.2,0.7,0.3c0.5,0.2,1,0.4,1.4,0.6
				c0.4,0.2,0.9,0.5,1.3,0.8c0.4,0.3,0.8,1,1.2,1.2c0.1,0.2,0.1,0.2,0.1,0c-0.1-0.2,0-0.3,0.3-0.4c0.3-0.1,0.4-0.3,0.1-0.3
				c-0.1-0.1-0.3-0.1-0.4-0.2c-0.5-0.3-1-0.6-1.5-0.9c-1-0.7-2-1.4-3.1-2C53.7,206.1,52.4,208.2,53.9,209z"/>
		</g>
	</g>
	<g>
		<path class="st0" d="M61.6,212.5c0.7,0.8,1.6,1.3,2.5,1.8c0.9,0.4,1.6-1,0.8-1.6c-0.8-0.6-1.6-1.1-2.6-1.4
			C61.8,211.2,61.2,211.9,61.6,212.5z"/>
		<g>
			<path class="st0" d="M60.8,213.4c0.5,0.6,1.1,1,1.7,1.4c0.6,0.4,1.3,0.8,2,0.9c1.5,0,2.4-1.5,2-2.8c-0.2-0.8-0.9-1.2-1.5-1.6
				c-0.6-0.4-1.4-0.8-2.1-1c-1.7-0.4-3.4,1.3-2.3,2.9c0.9,1.3,3.1,0.1,2.2-1.3c-0.1,0.2-0.1,0.4-0.2,0.6c-0.1,0-0.2,0.1-0.3,0.1
				c0,0.1,0.3,0.1,0.4,0.1c0.2,0.1,0.5,0.2,0.7,0.4c0.1,0.1,0.7,0.6,0.8,0.6c0,0-0.1-0.2-0.1-0.3c0.1-0.2,0.5-0.2,0.6-0.2
				c0,0-0.7-0.4-0.8-0.4c-0.5-0.3-1-0.7-1.4-1.1C61.5,210.4,59.7,212.2,60.8,213.4z"/>
		</g>
	</g>
	<g>
		<path class="st0" d="M112.9,228.5c2.4,0.1,4.8,0.2,7.2,0.1c1,0,0.9-1.7-0.1-1.7c-2.3-0.1-4.7,0-7,0.1
			C112.1,227,111.9,228.5,112.9,228.5z"/>
		<g>
			<path class="st0" d="M112.9,229.8c1.6,0.1,3.1,0.1,4.7,0.1c1.1,0,2.6,0.3,3.6-0.4c1.6-1.1,0.8-3.5-1-3.8c-1.4-0.2-3-0.1-4.5,0
				c-1.1,0-2.7-0.2-3.7,0.4c-1.6,0.9-1.3,3.4,0.5,3.7c1.6,0.3,2.2-2.1,0.7-2.4c0,0.8,0.3,1.1,0.9,0.9c0.3,0,0.5,0,0.8,0
				c0.5,0,1.1,0,1.6-0.1c0.6,0,1.3,0,1.9,0c0.5,0,1,0.2,1.1-0.3c0.2-0.7-0.6-0.4-1.1-0.4c-0.6,0-1.1,0-1.7,0c-1.3,0-2.6-0.1-3.9-0.1
				C111.3,227.2,111.3,229.7,112.9,229.8z"/>
		</g>
	</g>
	<g>
		<path class="st0" d="M123.8,228c0.1,0,0.3-0.1,0.4-0.1c0.6-0.1,0.8-1.1,0.1-1.3c-0.1,0-0.3-0.1-0.4-0.1
			C122.6,226.2,122.7,228.3,123.8,228z"/>
		<g>
			<path class="st0" d="M124.2,229.2c0.6-0.2,1.2-0.4,1.6-1c0.3-0.5,0.4-1.1,0.2-1.6c-0.3-1.1-1.9-1.6-2.9-1.3
				c-1,0.3-1.5,1.5-1.2,2.4C122.1,228.9,123.1,229.5,124.2,229.2c0.7-0.1,1-0.9,0.9-1.5c-0.2-0.7-0.9-1-1.5-0.9c0.1,0,0.1,0,0.2,0
				c-0.1,0-0.1,0,0,0c0.2,0,0.3,0.1,0.4,0.2c0,0,0.2,0.2,0.1,0.1c0,0.1,0.1,0.3,0,0.1c0-0.1,0,0.3,0,0.1c0-0.2,0,0.1,0,0.1
				c0.1-0.2-0.1,0.2,0,0.1c0-0.1,0,0,0,0c0,0.1-0.1,0.1-0.2,0.2c0,0-0.3,0.1-0.1,0c-0.2,0-0.2,0-0.1,0c0.1,0,0.1,0,0,0
				c-0.1,0-0.1,0,0,0c0.1,0,0.1,0,0.2,0.1c0.3,0,0,0-0.1-0.1c-0.2-0.2-0.3-0.6-0.1-0.8c0,0,0.2-0.1,0.2-0.1c0,0-0.4,0.1-0.4,0.1
				C121.9,227.2,122.6,229.6,124.2,229.2z"/>
		</g>
	</g>
	<g>
		<path class="st0" d="M128.5,227.7c1.7-0.3,3.7-0.4,5.3-1.2c0.6-0.3,0.5-1.5-0.3-1.5c-1.8-0.1-3.6,0.7-5.3,1.1
			C127.3,226.4,127.5,227.9,128.5,227.7z"/>
		<g>
			<path class="st0" d="M128.9,228.9c1.8-0.3,4.7-0.3,6.1-1.8c0.6-0.6,0.7-1.6,0.3-2.4c-0.5-0.9-1.3-1.1-2.3-1
				c-1.2,0.1-2.3,0.4-3.4,0.7c-0.9,0.3-2.1,0.4-2.7,1.2c-1.1,1.3-0.1,3.5,1.6,3.4c1.6-0.1,1.6-2.6,0-2.5c0.4,0.2,0.5,0.5,0.1,0.9
				c0.2-0.1,0.5-0.1,0.7-0.2c0.4-0.1,0.7-0.2,1.1-0.3c0.5-0.1,1-0.3,1.5-0.4c0.3-0.1,0.5-0.1,0.8-0.1c0.4,0.1,0.5,0,0.4-0.4
				c0.1-0.5,0-0.6-0.3-0.3c-0.2,0.1-0.5,0.2-0.7,0.2c-0.4,0.1-0.8,0.2-1.2,0.3c-0.9,0.2-1.8,0.3-2.7,0.4
				C126.6,226.8,127.3,229.2,128.9,228.9z"/>
		</g>
	</g>
	<g>
		<path class="st0" d="M47,56.6c2.5-3.6,4.6-7.6,7-11.2c2.4-3.5,7.9-10.1,12.8-7.4c7,3.9-3.2,11.2-5.9,13.4c-2.4,2-4.3,3.9-5.4,6.9
			c-0.4,1,1.1,1.5,1.5,0.6c2.5-6.1,9.4-7.9,12.4-13.6c1.5-3,2-8.3-1.7-9.8c-11-4.2-18.5,12.8-22.3,20.2C45.1,56.7,46.5,57.4,47,56.6
			z"/>
		<g>
			<path class="st0" d="M48.1,57.3c3.6-5.4,6.3-11.9,11.3-16.2c2.2-1.9,5.1-3.5,7.4-0.9c1.6,1.9,1.1,2.6-0.2,4.5
				c-1.4,1.9-3.3,3.4-5.2,4.9c-2.4,1.9-7.2,5.5-7.1,9c0.2,3.1,2.9,2,4.1,0.4c1.9-2.5,3.6-4.5,6-6.5c1.8-1.5,3.7-3,5.1-4.9
				c2-2.9,3.4-7.4,1.5-10.7c-4.3-7.6-14.4-0.8-18,3.6c-3.2,4-5.6,8.6-7.9,13.2c-1.2,2.3-0.9,5.6,2.5,4c1.5-0.7,0.2-2.8-1.3-2.2
				c2.4-1.1,4.8-8.1,6.6-10.8c2.6-3.9,7.8-10.4,13.4-8.2c5.2,2,2.5,8.2,0,11c-1.7,1.8-3.8,3.2-5.6,4.8c-1,0.9-2,1.8-2.8,2.8
				c-0.4,0.5-2.7,3.5-0.2,1.6c1.9-1.4,3.5-3.8,5.4-5.4c3.9-3.2,12.2-11.3,3.5-14.6C57,32.9,49.8,50.4,46,56
				C45.1,57.3,47.2,58.6,48.1,57.3z"/>
		</g>
	</g>
	<g>
		<path class="st0" d="M52.7,62.6c-1.5,2.1-4.1,5.2-6.9,3.4c-2.4-1.6,1.2-4.1-0.6-6.1c-0.4-0.4-1-0.4-1.4,0.1
			c-2,2.9-2.4,7.1,1.4,8.5c3.9,1.5,6.7-2.3,8.6-5.1C54.4,62.7,53.2,61.9,52.7,62.6z"/>
		<g>
			<path class="st0" d="M51.6,62c-0.8,1-1.8,2.4-3,3c-0.7,0.3-2.1,0.6-2.4-0.4c-0.1-0.4,0.2-0.9,0.3-1.3c0.5-1.5,0.7-3.3-0.7-4.4
				c-3.7-2.7-5.2,5.4-4.3,7.7c1.7,4.3,7,4.2,10,1.6c1.2-1,3.7-3.4,3.7-5.1c0-1.9-2.1-2.3-3.4-1.3c-1.3,1,0.5,2.8,1.8,1.8
				c-0.4-0.1-0.8-0.2-1.1-0.3c-0.1,0.1-0.2,0.3-0.3,0.4c-0.4,0.3-0.6,0.9-0.9,1.2c-0.5,0.5-0.9,1.1-1.5,1.5
				c-1.5,1.2-3.5,1.8-5.1,0.4c-1.2-1-1.2-2.5-0.9-3.9c0.1-0.3,0.2-0.7,0.4-1c0.1-0.2,0.4-1.1,0.4-0.7c0,0.6-0.4,1.2-0.5,1.8
				c-0.7,2.4,0.4,4.4,3,4.8c3,0.4,5.2-2.4,6.8-4.5C54.8,62,52.6,60.7,51.6,62z"/>
		</g>
	</g>
	<g>
		<path class="st0" d="M148.1,27.4c5.1,2.7,10.4,5.1,15.6,7.5c5.3,2.5,20.1,11.8,8.5,17.9c-0.7,0.4-0.4,1.6,0.4,1.4
			c6.2-1.6,7.3-8.8,3.9-13.7c-2.2-3.3-5.8-5.2-9.2-6.8c-6.1-2.9-12.3-5.6-18.5-8C147.6,25.2,147,26.9,148.1,27.4z"/>
		<g>
			<path class="st0" d="M147.4,28.5c6.1,3.1,12.6,5.6,18.5,9c3.3,1.9,10.1,5.9,9.3,10.6c-0.3,1.9-6.7,4.4-4,7c2.1,1.9,6-1.7,7-3.3
				c5.9-9.2-5-16.6-12-19.9c-3.3-1.6-6.7-3.1-10.1-4.5c-2.1-0.9-5.1-2.9-7.4-2.9c-2.4,0-3,2.2-1.5,3.9c1.1,1.2,2.8-0.6,1.8-1.8
				c1.7,1.9,5.4,2.7,7.6,3.7c2.5,1.1,5.1,2.2,7.6,3.4c4.2,1.9,9.1,3.9,11.6,8.1c1.2,2,1.9,4.9,1.1,7.2c-0.5,1.5-2.1,2.2-2.6,3.4
				c-0.5,1.4,0,0.7,0.8,0.3c1.6-0.9,2.6-3,2.8-4.7c0.3-4.4-4-7.9-7.1-10.2c-6.6-4.8-14.7-7.5-21.9-11.2
				C147.3,25.6,146,27.8,147.4,28.5z"/>
		</g>
	</g>
	<g>
		<path class="st0" d="M171.3,52.5c-3.7-0.6-4.8-4.5-7.4-6.6c-1.4-1.2-3.1-1.8-4.8-2.2c-2.6-0.6-5.4-0.4-8-1.1
			c-6.1-1.6-6.5-5.6-8.8-10.5c-0.4-0.9-1.6-0.4-1.5,0.5c0.5,6.6,4.3,11.4,10.7,12.5c5.6,0.9,9.5,0.7,13.8,5.2
			c1.9,1.9,3.2,3.4,5.9,3.7C172.1,54.3,172.3,52.7,171.3,52.5z"/>
		<g>
			<path class="st0" d="M171.6,51.3c-4.1-1.1-5.5-6-9.4-7.8c-4.6-2.1-10.9-0.4-14.8-4c-2.1-1.9-2.5-7.9-5.2-8.8
				c-1.6-0.5-2.5,0.6-2.8,2c-0.6,2.8,1.7,7.2,3.5,9.2c2.3,2.7,5.5,4,8.9,4.6c2.2,0.4,4.5,0.5,6.6,1.2c3.1,0.9,4.9,2.8,7.2,4.9
				c1.9,1.7,4.3,3.4,6.8,2.3c0.4-0.2,0.6-0.7,0.6-1.1c0.1-1.2,0-1.4-0.9-2.2c-1.2-1-3,0.8-1.8,1.8c-5.3-4.4-8.4-7.8-15.7-8.9
				c-4.1-0.6-7.9-1.3-10.5-5c-0.9-1.4-1.2-2.9-1.9-4.3c-0.5-1.1,0.8,2.4,0.8,2.3c2.3,4.8,6,6.4,11.1,7c5.3,0.7,8,1.4,11.5,5.5
				c1.6,1.9,2.9,3.1,5.2,3.7C172.5,54.2,173.2,51.7,171.6,51.3z"/>
		</g>
	</g>
	<g>
		<path class="st0" d="M199.3,106.7c1.4-4.4,4.4-5.3,9-2.9c1.2,1.6,2.1,3.5,2.5,5.5c0.6,2.4,0.6,4.9,0.3,7.3
			c-0.8,5.7-5.7,15.3-12.8,11.7c-1.1-0.6-1.8,1.1-0.9,1.8c9.4,7.9,16.9-10.7,16.4-17.7c-0.3-4.3-2.2-10.7-6.7-12.4
			c-4.5-1.7-7.9,2.1-9.6,5.9C196.9,107.2,198.7,107.8,199.3,106.7z"/>
		<g>
			<path class="st0" d="M200.5,107c2.1-5.2,7.2-3.1,8.7,1.2c1,2.9,1.1,6.1,0.5,9.1c-0.6,3-2,6.5-4.3,8.6c-2.6,2.4-3.8,1.1-6.8,1.2
				c-0.6,0-1.1-0.2-1.7,0.1c-0.9,0.5-1.3,1.6-1.1,2.6c0.6,3.2,6,3.9,8.5,3.1c3.9-1.3,6.5-5.6,8-9.1c3.3-7.3,4.7-21.1-4.7-24.9
				c-4.4-1.8-10.3,1.7-11.3,6.4c-0.6,2.7,1.8,4.1,3.8,2.2c1.2-1.1-0.6-2.8-1.8-1.8c1.1-1,2.8-3.8,4-4.2c2.8-1,5.6,0,7.3,2.2
				c1.7,2.3,2.7,5.7,2.8,8.6c0.2,3.8-1.1,7.8-2.7,11.1c-2.1,4.2-5,8.1-10,6.7c-2.3-0.6,1.4,0.1,2.1,0.1c1.6-0.1,3-0.8,4.3-1.7
				c6.4-4.8,8.1-15.6,4.9-22.5c-2.9-6.5-10.4-6.2-13,0.3C197.5,107.8,199.9,108.5,200.5,107z"/>
		</g>
	</g>
	<g>
		<path class="st0" d="M196.8,121.4c-0.3-1.7-0.3-3.4,0.1-5.1c0.3-1.4,1.1-2.7,1.3-4.1c0.1-0.7-0.7-1.1-1.2-0.6
			c-2.5,2.2-2.4,7.2-1.8,10.2C195.4,122.8,197,122.5,196.8,121.4z"/>
		<g>
			<path class="st0" d="M198.1,121.4c-0.3-2.3-0.2-4.4,0.6-6.5c0.4-1.2,1.3-2.9,0.3-4.1c-2-2.5-4.3,1.4-4.8,3.1
				c-0.8,2.4-1,5.9-0.1,8.3C194.9,124.5,197.9,123.7,198.1,121.4c0.1-1.6-2.4-1.6-2.5,0c0.7-0.1,0.9-0.4,0.7-0.9
				c-0.1-0.4-0.1-0.8-0.1-1.2c0-0.7-0.1-1.4,0-2.2c0-0.6,0.1-1.2,0.2-1.8c0.2-0.7,0.7-1.4,0.8-2.1c0.6-0.5,0.5-0.7-0.3-0.7
				c-0.1,0.5-0.3,0.9-0.5,1.4c-0.2,0.7-0.5,1.4-0.7,2.1c-0.4,1.8-0.4,3.6-0.1,5.4C195.8,123,198.3,123,198.1,121.4z"/>
		</g>
	</g>
	<g>
		<path class="st0" d="M119,211.7c6.9-0.3,12.2,3.4,19.2,1.8c4.7-1.1,10.6-3.1,14.2-6.4c4-3.7,4.6-10-0.8-12.5
			c-0.9-0.4-1.3,1-0.5,1.4c7.9,4-2.5,10.9-6.3,12.5c-3.1,1.3-6.3,2.7-9.6,3c-5.9,0.5-10.9-3.2-16.5-1.6
			C117.6,210.3,117.9,211.8,119,211.7z"/>
		<g>
			<path class="st0" d="M119,213c6,0,11.7,2.8,17.8,2c5.2-0.6,11.2-2.8,15.3-6c2.8-2.2,5-5.5,4.6-9.3c-0.3-2.7-2.7-6.6-5.8-6.2
				c-0.6,0.1-1,0.3-1.2,0.9c-0.4,1.2-0.2,1.5,0.5,2.5c0.8,1.2,2.3,1.1,2.5,2.7c0.2,1.3-1.6,3-2.4,3.8c-3.8,3.7-10.1,6.4-15.3,6.8
				c-4.7,0.4-12.2-4-16.7-1.4c-2,1.1-2.1,3.1,0,4.1c1.5,0.6,2.7-1.5,1.3-2.2c2.2,1,5.9,0.6,8.4,1.2c1.6,0.4,3.2,0.8,4.9,0.9
				c4.3,0.3,8.6-1.3,12.5-3.1c3.6-1.6,9.2-4.8,9.9-9.2c0.2-1.1-0.5-4.9-2.2-4.7c-0.8,0.1,0.4,2.1,0.5,2.3c0.6,2.1,1.2,3.3,0.1,5.5
				c-1,2.2-3.1,3.7-5.2,4.9c-4.2,2.5-10.3,4.5-15.2,4.2c-4.8-0.3-9.3-2.1-14.2-2.1C117.4,210.5,117.4,213,119,213z"/>
		</g>
	</g>
	<g>
		<path class="st0" d="M146.6,193.6c-5.1,2.7-10.6,4.6-16.1,6.3c-3.2,1-6.7,1.6-9.5,3.4c-3.4,2.1-6.2,6.6-1,8.4
			c1,0.4,1.9-1.2,0.9-1.8c-5.3-2.9,5.9-6.5,6.6-6.8c1.8-0.5,3.7-1,5.5-1.6c5-1.7,9.5-4.1,14.1-6.6
			C147.9,194.5,147.3,193.2,146.6,193.6z"/>
		<g>
			<path class="st0" d="M145.9,192.5c-5.5,2.8-11.4,4.9-17.4,6.6c-3.9,1.1-8.3,2.1-11,5.4c-1.3,1.6-2.3,3.8-1.3,5.8
				c0.8,1.6,3.6,3.5,5.4,2.2c2.1-1.6-0.3-3,0-4.6c0.5-2.3,4.9-3.2,7.1-3.8c5.3-1.6,10.3-3.5,15.2-6.1c2.1-1.1,5.7-2.1,4.4-5
				c-0.2-0.4-0.7-0.6-1.1-0.6c-0.2,0-0.5,0-0.7-0.1c-1.6-0.1-1.6,2.4,0,2.5c-3.8-0.3-8.5,3.5-12.2,4.8c-2.7,1-5.6,1.6-8.3,2.6
				c-2.4,0.8-6.6,2.1-7.6,4.7c-0.4,1.1-0.2,1.7,0.3,2.7c1.4,2.9,0.8-4.9,0.1-2.9c0.8-2.5,4.9-3.7,7-4.4c7.2-2.4,14.4-4.3,21.2-7.8
				C148.6,193.9,147.4,191.8,145.9,192.5z"/>
		</g>
	</g>
	<g>
		<path class="st0" d="M179,183.2c2.7,0.8,6.1-0.1,7.3-3c0.3-0.8-0.6-1.3-1.2-0.8c-1.8,1.3-3.4,2.4-5.7,2.2
			C178.5,181.6,178.1,183,179,183.2z"/>
		<g>
			<path class="st0" d="M178.7,184.4c2.2,0.6,4.7,0.3,6.6-1c1.4-1,3.6-3.9,1.2-5.2c-1.1-0.6-1.9,0-2.8,0.6c-1.3,0.9-2.5,1.4-4.1,1.5
				c-1,0-1.9,0.4-2.3,1.5c-0.3,1,0.1,2,1,2.5c1.4,0.7,2.7-1.5,1.3-2.2c-0.1,0.2-0.2,0.5-0.3,0.7c0.2,0,0.3,0,0.5,0
				c0.3,0.1,0.8,0,1.1-0.1c0.6-0.1,1.1-0.2,1.6-0.4c0.6-0.2,1.1-0.5,1.6-0.8c0.3-0.2,0.5-0.3,0.8-0.5c0.4-0.3,1-0.4,0.4-0.8
				c-0.5-0.4-0.4-0.1-0.7,0.3c-0.2,0.2-0.3,0.4-0.5,0.6c-0.4,0.4-0.9,0.7-1.5,0.9c-1.1,0.4-2.3,0.3-3.4,0.1
				C177.8,181.6,177.1,184.1,178.7,184.4z"/>
		</g>
	</g>
	<g>
		<path class="st0" d="M49.3,185.8c2.3,6.1,9.4,16.2,16.7,15.9c2.9-0.1,5.1-2,5.3-4.9c0.3-3.6-2.3-6.2-4.8-8.2
			c-0.6-0.5-1.3,0.4-0.8,0.9c1.9,2.1,4.5,4.7,3.6,7.9c-1.2,4.2-6.8,1.5-9-0.2c-4.2-3.3-6.9-7.5-9.6-12
			C50.2,184.2,49,184.8,49.3,185.8z"/>
		<g>
			<path class="st0" d="M48.1,186.1c2.6,6.6,8.1,15,15.6,16.6c8.5,1.7,11.1-7.4,6-12.9c-1-1-4.1-4.3-5.3-1.3c-0.4,1,0.3,1.6,0.8,2.3
				c1.5,2.4,2.6,1.9,1.6,5.2c-0.9,3.1-1.5,2.6-4.1,1.2c-2.5-1.4-4.5-3.6-6.3-5.8c-1.5-1.9-2.9-5.4-4.7-7c-1.8-1.5-3.4-0.8-3.6,1.4
				c-0.2,1.6,2.3,1.6,2.5,0c-0.8,6.8,19.1,22.4,20.1,10.7c0.2-2-0.8-3.8-1.9-5.4c-0.2-0.3-1.1-1.7-1.5-1.8c-1.5-0.2,0.1,1.5,0.2,1.7
				c0.7,1.2,2,2.1,2.4,3.5c0.7,2.6-1.2,5.2-3.8,5.8c-3.5,0.9-7.8-3.3-9.8-5.6c-2.4-2.7-4.4-5.9-5.7-9.3
				C50,184,47.5,184.6,48.1,186.1z"/>
		</g>
	</g>
	<g>
		<path class="st0" d="M50.7,184.2c-1.6-3.4,3.6-2.1,4.4-1.6c0.7,0.4,1.4,0.9,2.1,1.4c1.6,1.1,3.2,2.4,5.2,3c0.8,0.2,1.5-0.7,1-1.4
			c-1.5-1.9-3.8-3.1-5.8-4.4c-1.6-1-3.4-2-5.3-1.8c-2.6,0.3-4.2,3.4-2.7,5.6C49.9,185.8,51,185,50.7,184.2z"/>
		<g>
			<path class="st0" d="M51.9,183.8c-0.7-1.8,3.4,0.4,4,0.7c1.8,1.3,4.1,3.5,6.5,3.7c1.7,0.1,2.8-1.4,2.2-3c-0.8-2-3.7-3.5-5.4-4.5
				c-3.4-2.2-9.6-4.7-11.3,1c-0.4,1.4-0.2,3.9,1.4,4.6c1.5,0.6,2.8-0.8,2.7-2.2c-0.1-1.6-2.6-1.6-2.5,0c0.5-0.7,0.9-1.5,1-2.3
				c0.3-0.3,0.6-0.6,1-0.9c1.6-0.9,3.2,0.1,4.6,0.9c1.4,0.8,2.9,1.7,4.2,2.7c0.6,0.4,1.1,0.9,1.6,1.4c-0.2-0.2-0.3-0.4-0.5-0.6
				c-0.7-0.5-1.5-0.9-2.2-1.4c-1.2-0.8-2.5-1.9-3.8-2.5c-2.6-1.2-7.5-0.9-5.9,3.2C50,186,52.5,185.3,51.9,183.8z"/>
		</g>
	</g>
	<g>
		<path class="st0" d="M222.9,138.6c2.1-3.6,1.6-7.1,0.6-11.1c-1.7-6.8-2.3-12.8-2.3-19.8c0-0.7-1.2-1.2-1.4-0.3
			c-0.9,4.1-0.8,8.2-0.3,12.3c0.8,6,4.1,12,1.7,18C220.8,138.7,222.3,139.5,222.9,138.6z"/>
		<g>
			<path class="st0" d="M224,139.2c3-6.3,0.5-11.8-0.6-18.3c-0.4-2.5-0.7-5.1-0.8-7.6c-0.1-1.6,0.4-4.1-0.2-5.6
				c-0.4-1.1-0.6-1.6-1.8-2c-0.4-0.1-0.9,0-1.2,0.3c-1.8,1.9-1.5,6-1.5,8.4c0,4.5,1.1,8.7,2.1,13c0.8,3.2,0.7,5.9,0.3,9.1
				c-0.1,0.9-0.6,1.6-0.1,2.5c0.8,1.4,2.1,1.3,3.3,0.6c1.4-0.8,0.2-2.9-1.3-2.2c2.3-1.3,0.8-8.1,0.3-10c-0.5-2.2-1.2-4.3-1.6-6.6
				c-0.6-3.1-0.2-6.2-0.5-9.3c-0.1-0.8,0.1-3.1-0.5-1.2c-0.3,1,0.1,2.6,0.2,3.6c0.1,1.9,0.3,3.8,0.6,5.6c0.8,6,3.9,12.4,1.1,18.2
				C221.1,139.4,223.3,140.7,224,139.2z"/>
		</g>
	</g>
	<g>
		<path class="st0" d="M220.4,101.1c-0.2-1.9-0.4-3.8-0.8-5.7c-0.2-0.8-1.3-0.6-1.2,0.2c0.1,1.9,0.4,3.8,0.6,5.7
			C219.1,102.3,220.5,102,220.4,101.1z"/>
		<g>
			<path class="st0" d="M221.6,101.1c-0.1-1.2-0.3-2.5-0.4-3.7c-0.1-1-0.1-2.4-0.8-3.2c-0.6-0.6-1.4-0.7-2.1-0.4
				c-0.9,0.4-1.1,1.3-1,2.2c0.1,1.2,0.2,2.5,0.4,3.7c0.1,0.9,0,2.1,0.7,2.8C219.6,103.9,221.6,102.7,221.6,101.1
				c0-1.6-2.5-1.6-2.5,0c0.9,0.2,1.2,0,1-0.6c0-0.2-0.1-0.4-0.1-0.7c-0.1-0.4-0.1-0.9-0.2-1.3c-0.1-0.5-0.1-1-0.2-1.5
				c0-0.3,0.1-1.1-0.1-1.3c-1-0.3-1.4-0.2-1.2,0.3c0,0.2,0.1,0.4,0.1,0.7c0.1,0.5,0.1,0.9,0.2,1.4c0.1,1,0.2,2,0.4,3.1
				C219.3,102.7,221.8,102.7,221.6,101.1z"/>
		</g>
	</g>
	<g>
		<path class="st0" d="M73.6,219.2c2.9,0.3,5.8,0.6,8.6,1.4c2.5,0.7,4.9,1.9,7.5,2.5c0.9,0.2,1.5-0.8,0.7-1.4
			c-4.2-3.4-11.4-4.6-16.6-4.4C72.6,217.3,72.4,219,73.6,219.2z"/>
		<g>
			<path class="st0" d="M73.6,220.4c3.6,0.4,7,0.8,10.4,2c1.8,0.6,4.8,2.6,6.7,1.7c3.7-1.7-1.4-4.8-2.9-5.5
				c-3.9-1.8-8.9-2.9-13.2-2.6c-1.2,0.1-2.6,0.2-3,1.6c-0.4,1.2,0.2,2.2,1.3,2.7c1.5,0.6,2.7-1.5,1.3-2.2c2.2,1,5.4,0.6,7.9,1.2
				c1,0.2,2,0.5,2.9,0.8c0.2,0.1,3.8,2.1,4,2c0.6-0.2-3-1.7-3.3-1.8c-1.1-0.4-2.1-0.8-3.2-1.1c-2.9-0.8-6-1.1-8.9-1.4
				C72,217.7,72,220.2,73.6,220.4z"/>
		</g>
	</g>
	<g>
		<path class="st0" d="M81.3,217.1c1.5-0.2,2.7,0.3,4.1,0.4c0.6,0,1.2-0.8,0.7-1.3c-1.4-1.3-3.3-1.4-5.1-1
			C79.8,215.5,80.1,217.3,81.3,217.1z"/>
		<g>
			<path class="st0" d="M81.3,218.4c1.8-0.1,4.7,1.3,5.9-0.6c1.3-2-1.2-3.5-2.9-3.9c-1.5-0.3-4.1-0.4-5,1.1
				C78.4,216.6,79.6,218.4,81.3,218.4c1.6,0,1.6-2.5,0-2.5c-0.2,0-0.1,0.1,0.1,0.2c0.1,0.1,0.1,0.2,0,0.3c-0.2,0.2-0.2,0.2,0.2,0.1
				c0.2,0,0.4-0.1,0.6-0.1c0.7-0.1,1.5,0,2.2,0.2c0.1,0.1,0.3,0.1,0.4,0.2c0.3,0.3,0.6,0.2,0.7-0.5c0-0.1-1.2-0.2-1.4-0.2
				c-0.9-0.2-1.8-0.3-2.7-0.2C79.7,216,79.7,218.5,81.3,218.4z"/>
		</g>
	</g>
	<g>
		<path class="st0" d="M16.8,115.9c0.2-5,1.3-9.7,1.7-14.6c0.1-1-1.2-1.1-1.5-0.4c-2.2,4.5-2.5,10.1-2.1,15.1
			C15,117.1,16.8,117,16.8,115.9z"/>
		<g>
			<path class="st0" d="M18.1,115.9c0.2-3.3,0.7-6.5,1.1-9.8c0.2-1.7,1.2-4.5,0.3-6c-2-3.1-4.3,1.7-4.7,3.2c-0.7,2.3-1.1,4.6-1.2,7
				c-0.1,1.9-0.4,4.3,0.2,6.1c0.7,2.3,3.6,2.1,4.3-0.1c0.5-1.5-1.9-2.2-2.4-0.7c0.5-0.3,0.7-0.8,0.4-1.5c0-0.5,0-1,0-1.4
				c0-1,0-1.9,0.1-2.9c0.1-1.3,0.3-2.7,0.6-4c0.2-0.8,0.8-2,0.8-2.8c-0.1-2.2-0.8,3.4-0.7,2.5c-0.2,1.1-0.3,2.2-0.5,3.4
				c-0.3,2.4-0.6,4.7-0.7,7.1C15.5,117.5,18,117.5,18.1,115.9z"/>
		</g>
	</g>
	<g>
		<path class="st0" d="M145.8,22.7c-6.5-0.3-12.5,8-7.6,13.7c0.5,0.5,1.5,0.1,1.3-0.6c-0.6-2.6-1.2-5.1,0.2-7.5
			c1.3-2.3,3.7-3.4,6.2-3.7C146.9,24.5,146.9,22.8,145.8,22.7z"/>
		<g>
			<path class="st0" d="M145.8,21.5c-4.1,0-7.8,2.4-9.6,6.1c-1.3,2.7-1.8,8.7,1.8,10.2c1.2,0.5,2.4-0.2,2.7-1.4
				c0.3-1.3-0.6-3-0.6-4.3c0-2,0.8-3.8,2.4-4.9c1.4-1,4.4-0.7,5.2-2.5c0.6-1.4-0.3-2.6-1.5-3c-1.5-0.5-2.2,1.9-0.7,2.4
				c0.3-0.5,0.2-0.7-0.3-0.5c-0.4,0-0.7,0.1-1.1,0.2c-0.5,0.1-1,0.3-1.5,0.6c-1,0.5-2,1.1-2.8,2c-1.8,1.9-2.4,4.5-2,7.1
				c0,0.3,0.2,2.6,0.5,1.6c0.2-0.7-0.3-1.2-0.5-1.9c-0.4-1.6,0.1-3.3,0.9-4.7c1.5-2.6,4.2-4.3,7.2-4.3
				C147.5,24,147.5,21.5,145.8,21.5z"/>
		</g>
	</g>
	<g>
		<path class="st0" d="M61.4,34c2-0.3,3.9-0.4,5.8,0.2c1.6,0.5,2.9,1.7,4.6,2.1c0.7,0.2,1.4-0.4,1.1-1.2c-0.9-1.9-3.4-2.8-5.3-3.2
			c-2.3-0.5-4.5-0.4-6.7,0.3C59.8,32.6,60.4,34.2,61.4,34z"/>
		<g>
			<path class="st0" d="M61.7,35.2c2.8-0.4,5,0,7.5,1.4c1.1,0.6,2.5,1.4,3.7,0.8c3.2-1.4-0.3-4.8-2-5.6c-3-1.4-7.4-2.2-10.5-0.7
				c-2.2,1.1-1.2,3.9,1,4.1c1.6,0.2,1.6-2.3,0-2.5c0.4,0.6,0.9,0.6,1.4,0.3c0.7-0.1,1.4-0.2,2.2-0.2c0.9,0,1.9,0.2,2.8,0.4
				c0.8,0.2,1.7,0.5,2.4,1c0.8,0.5,1.6,1.1,0.3,0.1c-2.8-1.9-6.2-2.1-9.4-1.6C59.4,33.1,60.1,35.5,61.7,35.2z"/>
		</g>
	</g>
	<g>
		<path class="st0" d="M41.3,70.7c1.1,1.4,3,2.2,4.7,1.3c0.6-0.3,0.5-1.4-0.2-1.4c-1.2,0-2.2,0-3.1-1C41.9,68.7,40.6,69.8,41.3,70.7
			z"/>
		<g>
			<path class="st0" d="M40.4,71.6c1.3,1.4,3.2,2.4,5.1,1.9c0.9-0.2,1.7-0.7,2-1.6c0.3-0.8,0-1.7-0.7-2.2c-0.7-0.6-1.6-0.2-2.5-0.5
				c-0.8-0.2-1.2-1.1-2.1-1.2c-1.8-0.3-3.1,1.8-2.1,3.3c0.9,1.3,3.1,0.1,2.2-1.3c0,0-0.1,0.3-0.1,0.3c-0.3,0-0.5-0.1-0.4,0.1
				c0.1,0.3,0.7,0.6,1,0.8c0.7,0.4,1.5,0.5,2.3,0.5c0.1,0,0.5,0,0.5,0c-0.2-0.2-0.4-0.4-0.6-0.6c0.1-0.1,0.2-0.2,0.2-0.3
				c0.1,0.1-1,0.2-1.1,0.2c-0.9-0.1-1.6-0.7-2.1-1.3C41.1,68.6,39.4,70.4,40.4,71.6z"/>
		</g>
	</g>
	<g>
		<path class="st0" d="M23.7,147.4c-2.3-8.5-4.1-16,3.8-21.9c0.6-0.5,0.1-1.5-0.6-1.4c-10.3,2.2-7.2,17-4.6,23.8
			C22.7,148.6,24,148.2,23.7,147.4z"/>
		<g>
			<path class="st0" d="M24.9,147.1c-1.2-4.3-2.6-9.1-1.6-13.6c0.6-2.6,2.1-4.4,3.9-6.2c0.6-0.7,1.9-1.3,1.8-2.4
				c-0.3-4.9-7.4,0.3-8.6,2.1c-2.9,4.5-2.2,10.7-1.1,15.7c0.4,1.7,0.8,5.2,2.3,6.3c1.4,1.1,2.7,0.4,3.2-1.2c0.5-1.5-2-2.2-2.4-0.7
				c0.7,0,0.9-0.2,0.6-0.7c-0.1-0.4-0.3-0.8-0.4-1.2c-0.1-0.8-0.6-1.9-0.8-2.7c-0.5-1.9-0.8-3.8-0.9-5.7c-0.1-2.1-0.1-4.4,0.6-6.5
				c0.3-1,0.8-1.9,1.5-2.7c0.4-0.6,1-1.1,1.6-1.4c1.6-0.5,2-0.7,1.1-0.7c0,0.1-1.9,1.5-2.3,2c-0.6,0.7-1.1,1.5-1.5,2.3
				c-0.8,1.5-1.3,3.2-1.4,4.9c-0.5,4.4,0.8,8.8,1.9,13C22.9,149.3,25.4,148.6,24.9,147.1z"/>
		</g>
	</g>
	<g>
		<path class="st0" d="M24.4,152.8c2,6.7,10.6,11.5,16.9,7.5c1-0.6,0.3-2.2-0.8-1.7c-5.8,2.2-12.4,0.1-14.6-6.2
			C25.6,151.5,24.2,151.9,24.4,152.8z"/>
		<g>
			<path class="st0" d="M23.2,153.1c1.5,4.5,5.1,8.1,9.7,9.4c2.4,0.7,10.8,0.9,10.1-3.4c-0.2-1.5-1.5-1.9-2.9-1.8
				c-3.4,0.4-5.9,1.4-9.2-0.5c-1.4-0.8-2.5-2-3.3-3.5c-0.4-0.8-0.7-2.1-1.6-2.5c-1.3-0.7-2.7,0.3-2.9,1.6c-0.2,1.6,2.2,2.3,2.4,0.7
				c-0.3,1.8-0.9-1-0.1,1.5c0.2,0.5,0.7,1.2,1.1,1.6c0.8,1,1.7,1.9,2.8,2.6c2.3,1.4,5.1,2,7.7,1.8c0.5,0,1.1-0.1,1.6-0.2
				c0.3-0.1,1.7-0.7,1.2-0.7c-0.7,0-2.6,0.8-3.4,0.8c-1,0-2-0.1-3-0.4c-3.7-1.1-6.7-4-7.9-7.6C25.1,151,22.7,151.6,23.2,153.1z"/>
		</g>
	</g>
	<g>
		<path class="st0" d="M133.9,217.2c9.3-0.5,22.9-3.9,24.9-15c0.1-0.8-1-1.2-1.4-0.5c-2.4,4.1-4.9,7.6-9.2,9.9
			c-4.5,2.4-9.7,3.2-14.7,3.9C132.4,215.5,132.8,217.3,133.9,217.2z"/>
		<g>
			<path class="st0" d="M133.9,218.4c6.5-0.4,13.4-1.7,18.9-5.4c2.3-1.6,10.3-9.3,6.6-12.4c-1.5-1.2-2.6,0.1-3.4,1.1
				c-1.7,2.1-2.8,4.4-4.8,6.3c-2.7,2.4-6.1,3.8-9.5,4.7c-2.2,0.6-8.5,0.2-9.7,2.4c-0.9,1.5,0.3,2.8,1.7,3.3c1.5,0.5,2.2-1.9,0.7-2.4
				c4.2,1.5,11.7-1.6,15.4-3.8c1.9-1.1,9.2-6.8,7.8-9.1c0.8,1.3-3.1,5.5-3.8,6.2c-1.6,1.5-3.6,2.7-5.6,3.6c-4.4,2-9.3,2.8-14,3.1
				C132.3,216,132.3,218.5,133.9,218.4z"/>
		</g>
	</g>
	<g>
		<path class="st0" d="M144,192.9c1.7-0.4,3.3-0.4,5.1-0.3c1.4,0.1,2.8,0.5,4.2,0.4c0.7,0,0.8-1.1,0.3-1.5c-2.7-2-6.9-1.2-9.9-0.4
			C142.7,191.4,142.9,193.1,144,192.9z"/>
		<g>
			<path class="st0" d="M144.4,194.1c2.3-0.4,4.4-0.3,6.7,0c1.2,0.2,2.7,0.5,3.6-0.5c2.2-2.3-1.8-4.1-3.5-4.4
				c-1.4-0.2-2.8-0.2-4.3,0c-1.3,0.2-3,0.3-4.1,1.1c-1.8,1.2-0.9,3.9,1.3,3.9c1.6,0,1.6-2.5,0-2.5c0.2,0.6,0.6,0.7,1.1,0.5
				c0.4-0.1,0.7-0.2,1.1-0.3c0.7-0.1,1.3-0.2,2-0.3c0.7-0.1,1.4-0.1,2.1,0c0.4,0.1,1.9,0.8,2.2,0.7c0.3-0.6,0-0.8-0.6-0.6
				c-0.4,0-0.7-0.1-1.1-0.1c-0.8-0.1-1.6-0.2-2.5-0.3c-1.6-0.1-3.1,0.1-4.7,0.4C142.1,192,142.8,194.4,144.4,194.1z"/>
		</g>
	</g>
	<g>
		<path class="st0" d="M57.9,159.7c-1.3,1.8-1.1,4.3,0.5,5.8c1.3,1.3,4.2,2,5.3,0.2c0.3-0.4,0.1-1.1-0.4-1.3c-0.9-0.3-1.8,0-2.7-0.4
			c-1.3-0.6-1.6-2.2-1.3-3.5C59.6,159.6,58.5,158.9,57.9,159.7z"/>
		<g>
			<path class="st0" d="M56.8,159.1c-1.6,2.4-1.3,5.6,0.9,7.5c1.7,1.5,4.8,2.2,6.6,0.5c0.9-0.9,1.2-2.2,0.4-3.2
				c-0.5-0.6-1.2-0.7-1.9-0.8c-0.7-0.1-1.7,0.1-2.1-0.6c-0.6-1.1,0.3-2.3-0.4-3.3c-0.8-1.2-2.3-1.2-3.3-0.3
				c-1.1,1.2,0.6,2.9,1.8,1.8c-0.5-0.4-0.8-0.3-0.8,0.1c0,0.2-0.1,0.4-0.1,0.6c0,0.3,0,0.6,0.1,0.9c0.1,0.7,0.4,1.3,0.8,1.9
				c0.5,0.6,1.1,1,1.8,1.2c0.4,0.1,0.9,0.1,1.3,0.1c0.2,0,0.4,0,0.6,0c0.2-0.5,0.2-0.6-0.1-0.3c-0.6,0.1-0.9,0.4-1.6,0.2
				c-0.6-0.1-1.2-0.4-1.6-0.8c-1.3-1.2-1.2-3-0.3-4.3C59.9,159,57.7,157.7,56.8,159.1z"/>
		</g>
	</g>
	<g>
		<path class="st0" d="M92.3,23.6c1-1.5,2.3-2.7,4-3.2c1.6-0.5,3.1,0.1,4.8,0.2c0.7,0,1.2-0.8,0.7-1.4c-3.1-3.8-9.9-0.4-11.2,3.5
			C90.3,23.7,91.7,24.5,92.3,23.6z"/>
		<g>
			<path class="st0" d="M93.4,24.2c1.8-2.7,3.9-2.8,6.9-2.5c1.3,0.1,2.9-0.3,2.9-1.9c0.1-2.9-4.1-3.8-6.2-3.4
				c-2.8,0.4-5.7,2.3-7.1,4.9c-0.6,1.1-0.9,2.4,0.1,3.4c1,0.9,2.2,0.7,3.1-0.1c1.2-1.1-0.6-2.9-1.8-1.8c0.3-0.3,0.6-0.4,0.9-0.7
				c0.3-0.4,0.6-0.8,0.9-1.1c0.6-0.6,1.4-1.1,2.2-1.5c1.1-0.5,4.3-1.4,5.1,0.2c-0.7-1.4-4.3-0.6-5.3-0.2c-1.7,0.7-3,2-4,3.5
				C90.3,24.3,92.5,25.5,93.4,24.2z"/>
		</g>
	</g>
</g>
</svg>
