<?xml version="1.0" encoding="utf-8"?>
<!-- Generator: Adobe Illustrator 22.0.0, SVG Export Plug-In . SVG Version: 6.00 Build 0)  -->
<svg version="1.1" id="Capa_1" xmlns="http://www.w3.org/2000/svg" xmlns:xlink="http://www.w3.org/1999/xlink" x="0px" y="0px"
	 viewBox="0 0 142.1 142.7" style="enable-background:new 0 0 142.1 142.7;" xml:space="preserve">
<style type="text/css">
	.st0{fill:#7C0099;}
</style>
<g>
	<path class="st0" d="M60.4,9.8c-68.4-1-77.1,110.9-8.8,119.7c1.7,0.2,2.4-2.3,0.7-2.8C22.6,118.5,6.6,95.5,9,67
		c2.4-29,21.3-48.6,51.5-54.7C62,12,62,9.8,60.4,9.8z"/>
	<path class="st0" d="M48.4,124.1c0.8,1.8,1.8,3.6,2.6,5.3c0.9,1.9,1.3,4.4,3.2,5.7c0.7,0.5,2,0.2,2.2-0.6c0.6-2.2-0.7-4.3-1.7-6.3
		c-0.9-1.9-2-3.7-3.1-5.5C50.5,120.9,47.6,122.1,48.4,124.1z"/>
	<path class="st0" d="M55.3,135.6c5.4,2.4,12.3,3.5,18.2,1.8c4.9-1.4,9.7-5.5,9.3-10.6c-0.1-1.1-1.7-1.2-2.3-0.5
		c-3.5,3.8-4.7,7.3-10.7,8c-4.6,0.6-9.3-0.6-13.8-1.3C54.2,132.7,53.9,135,55.3,135.6z"/>
	<path class="st0" d="M77.7,134.1c28.8-2.8,62.3-23.8,61.5-53.3c-0.1-2.1-3.2-2.5-3.6-0.3c-3,14.6-8,26.2-21.1,35.7
		c-11.1,8.1-24,11.7-37.3,15.4C75.6,132.1,75.9,134.2,77.7,134.1z"/>
	<path class="st0" d="M138.1,78.1c-4-3-6.8-6.5-6.7-11.5c0.1-4.8,3.1-8,5.6-11.9c1-1.6-0.9-3.1-2.5-2.1c-9.9,6.4-9.7,23.7,2.4,27.6
		C138.3,80.7,139.2,78.9,138.1,78.1z"/>
	<path class="st0" d="M137.1,55.1c-2.2-13.8-12.2-35.6-28.7-39.1c-1.6-0.3-2.1,1.8-1,2.6c7.3,5.5,13.6,9.6,18.4,17.5
		c3.8,6.3,6.1,13.1,8.5,19.9C134.8,57.5,137.3,56.6,137.1,55.1z"/>
	<path class="st0" d="M110.7,17.9c-1.8-1.4-3.8-3.1-5.1-4.9c-0.9-1.3-1-2.6-1.7-3.9c-0.7-1.2-2.6-1.1-3.1,0.1
		c-0.8,1.7,0.6,3.9,1.6,5.3c1.8,2.5,4.1,3.9,6.9,5.4C110.7,20.8,112.1,18.9,110.7,17.9z"/>
	<path class="st0" d="M79.9,6.2c7-2.2,15.7,1.8,21.8,4.2c1.3,0.5,2.8-0.9,2-2.1c-2-3.2-7.8-4.1-11.3-4.8c-4.4-0.9-9.6-1.8-13.8,0.1
		C76.8,4.4,78.1,6.8,79.9,6.2z"/>
	<path class="st0" d="M78.2,4c-3.9,1.7-7.7,2.8-12,3.3C61.6,7.8,57.1,8,52.9,10c-1,0.5-0.9,2.1,0.4,2.2c5,0.1,10.2-0.9,15.1-1.7
		c4.1-0.7,7.9-1.9,11.3-4.1C81.3,5.5,79.7,3.3,78.2,4z"/>
	<path class="st0" d="M18.2,49.9c-6.5,8.6-5,25.5-0.2,34.4c0.7,1.3,2.6,0.6,2.5-0.7c-0.8-11.6-4.9-21-0.1-32.6
		C20.9,49.8,19,48.8,18.2,49.9z"/>
	<path class="st0" d="M24.2,97.9c2,0.3,3,2.3,4.8,2.9c1.2,0.4,2-0.7,1.6-1.7c-0.8-2.1-3.8-3.9-6.2-4.1
		C22.5,94.9,22.3,97.6,24.2,97.9z"/>
	<path class="st0" d="M117.2,35c1.5,5.8,2.6,11.5,3.6,17.4c0.2,1.2,2.2,1.1,2.3-0.1c0.8-6.1-0.9-12.4-3.4-18
		C119.2,32.9,116.8,33.6,117.2,35z"/>
	<path class="st0" d="M47.3,26.6c3.9-2.2,8.2-3.8,12.6-4.7c4.1-0.9,8.6-0.6,12.6-1.8c1.1-0.3,1.7-2,0.2-2.4
		c-8.6-2.3-20.4,1.5-27.2,6.3C44.2,25.2,45.7,27.5,47.3,26.6z"/>
</g>
</svg>
